<?xml version="1.0" encoding="UTF-8"?>
<svg version="1.1" xmlns="http://www.w3.org/2000/svg" width="3028" height="747">
<path d="M0 0 C12.49348348 -0.04674562 24.98694549 -0.08208046 37.48049927 -0.10362434 C43.28439466 -0.11397452 49.08822936 -0.12796934 54.89208984 -0.15087891 C60.51370828 -0.17292524 66.13526909 -0.18463412 71.75692749 -0.18975449 C73.88065496 -0.19339415 76.00437998 -0.20049725 78.12808228 -0.21146011 C89.43667432 -0.26740959 100.64646982 -0.02199957 111.921875 0.89892578 C112.89648682 0.97820753 113.87109863 1.05748928 114.87524414 1.13917351 C132.15887641 2.69362168 148.15793643 7.17930056 162 18 C162.71027344 18.53367188 163.42054688 19.06734375 164.15234375 19.6171875 C175.22167852 28.49815091 181.81989668 42.86110342 183.72265625 56.7421875 C185.94257402 82.81840473 180.04388507 109.19720834 163.5625 129.9375 C162.06402488 131.64488473 160.54335422 133.33307228 159 135 C158.25363281 135.83789062 157.50726562 136.67578125 156.73828125 137.5390625 C141.13985901 154.1945679 120.82956646 162.11647843 99 167 C98.34 167 97.68 167 97 167 C106.21456543 185.99075781 115.43916311 204.97360101 124.9213562 223.8324585 C130.36104316 234.65652035 135.61795777 245.55947883 140.79785156 256.50976562 C142.49721504 260.0299743 144.2823477 263.50540741 146.07763672 266.97753906 C147 269 147 269 147 271 C149.52323334 268.67574647 151.24638438 266.21437892 153.046875 263.30078125 C153.63686279 262.35098389 154.22685059 261.40118652 154.8347168 260.42260742 C155.46676025 259.39627197 156.09880371 258.36993652 156.75 257.3125 C158.10537513 255.12754609 159.46084659 252.94265193 160.81640625 250.7578125 C161.51008301 249.63665039 162.20375977 248.51548828 162.91845703 247.36035156 C166.16024015 242.12695925 169.42352414 236.90706948 172.6875 231.6875 C173.31301758 230.68630127 173.93853516 229.68510254 174.58300781 228.65356445 C178.85076868 221.82592871 183.14344104 215.01446072 187.44873047 208.21044922 C193.3624154 198.85743274 199.21704024 189.4675087 205.07666016 180.08056641 C208.83790905 174.05626601 212.60315182 168.03446118 216.36767578 162.01220703 C219.53162365 156.95038597 222.69454438 151.88792852 225.85546875 146.82421875 C232.02857747 136.93720722 238.21625756 127.06015109 244.44873047 117.21044922 C250.3624154 107.85743274 256.21704024 98.4675087 262.07666016 89.08056641 C265.83790905 83.05626601 269.60315182 77.03446118 273.36767578 71.01220703 C276.53162365 65.95038597 279.69454438 60.88792852 282.85546875 55.82421875 C298.59733531 30.61124568 298.59733531 30.61124568 301.44505692 26.27071857 C304.03495552 22.27685545 306.38931763 18.31202016 308.43621826 14.01176453 C314.67272457 1.56336293 314.67272457 1.56336293 320.23979187 -1.05239487 C326.59002097 -2.65304391 333.03351949 -2.1843336 339.515625 -1.85546875 C341.58343076 -1.81997182 343.6513978 -1.792954 345.71942139 -1.77400208 C351.12928724 -1.70188982 356.52925483 -1.51574856 361.9352417 -1.30462646 C368.43869875 -1.07482783 374.94549278 -0.98863076 381.45185852 -0.87801361 C391.30479081 -0.69459021 401.15164301 -0.34444675 411 0 C414.22454446 34.45635655 417.34538845 68.92025484 420.34362245 103.3970201 C420.86184793 109.35316425 421.38157466 115.30917748 421.90104675 121.26521301 C422.76668632 131.19291376 423.63115257 141.12071611 424.49487305 151.04858398 C425.49246864 162.51506196 426.49209779 173.98136139 427.49271852 185.44757575 C428.46407731 196.57907089 429.43398255 207.71069222 430.40323448 218.84237099 C430.81303342 223.54849786 431.2233548 228.25457874 431.63410378 232.96062279 C432.11385892 238.45798154 432.59234956 243.95544888 433.06983948 249.45300484 C433.24515956 251.46913912 433.42092426 253.48523479 433.59715843 255.50128937 C433.83674668 258.24291916 434.07474875 260.98468206 434.31233215 263.72648621 C434.38284957 264.52913994 434.45336699 265.33179368 434.5260213 266.15877026 C434.78101222 269.11698736 435 272.02916168 435 275 C409.92 275 384.84 275 359 275 C358.34 268.090625 357.68 261.18125 357 254.0625 C356.79117188 251.89953369 356.58234375 249.73656738 356.3671875 247.50805664 C356.20279173 245.76712128 356.03870886 244.02615634 355.875 242.28515625 C355.78863281 241.40275269 355.70226563 240.52034912 355.61328125 239.61120605 C355.53207031 238.73927612 355.45085938 237.86734619 355.3671875 236.96899414 C355.26059814 235.85313683 355.26059814 235.85313683 355.15185547 234.71473694 C354.93341629 230.80967577 354.97186551 226.91007661 355 223 C342.82107174 222.68950237 330.64513682 222.48304931 318.46236038 222.40672016 C312.8038029 222.36805405 307.15030927 222.29457214 301.49365234 222.1394043 C296.02629038 221.99074481 290.56511256 221.9363136 285.09581757 221.94515038 C283.01752415 221.93234138 280.9391455 221.88646277 278.86237335 221.805933 C267.63638213 221.13245042 267.63638213 221.13245042 257.95470428 225.87518311 C254.24792674 230.46206976 251.55558283 235.48105782 249.05584717 240.80253029 C247.74313901 243.53458897 246.16683723 246.03663363 244.484375 248.5546875 C244.01773438 249.29203125 243.55109375 250.029375 243.0703125 250.7890625 C242.17504314 252.20348213 241.27919101 253.61753303 240.3828125 255.03125 C239.69058594 256.12566406 239.69058594 256.12566406 238.984375 257.2421875 C238.30113285 258.2807072 238.30113285 258.2807072 237.60408783 259.3402071 C235.90632363 262.03925732 235.90632363 262.03925732 234.5197525 265.25649548 C230.05087825 274.27647053 230.05087825 274.27647053 224.65367126 276.18055153 C220.39463644 276.60487971 216.30710555 276.61175456 212.03710938 276.47583008 C210.42018939 276.47215912 208.80324776 276.47422932 207.18634033 276.48158264 C202.81313614 276.48530202 198.44459935 276.4090789 194.07247734 276.31812119 C189.4976581 276.23665823 184.92272265 276.22920296 180.34729004 276.21379089 C171.69086551 276.17344003 163.03658422 276.06684344 154.38110209 275.93624753 C144.52409221 275.79076259 134.66697802 275.7194208 124.80916119 275.65420687 C104.53824609 275.51844941 84.26925823 275.28990432 64 275 C63.80645306 274.48731064 63.61290611 273.97462128 63.41349411 273.44639587 C51.32270252 241.39635738 51.32270252 241.39635738 39.15625 209.375 C38.20240691 206.87527328 37.24958676 204.37515811 36.296875 201.875 C32.87988558 192.91074789 29.45110684 183.95118281 26 175 C23.66877655 178.49683517 22.72556525 181.97063104 21.61743164 185.96875 C21.27309334 187.18648354 21.27309334 187.18648354 20.92179871 188.42881775 C20.16281897 191.11780486 19.41145927 193.80885887 18.66015625 196.5 C18.13256863 198.37520888 17.60452131 200.25028847 17.07603455 202.12524414 C15.68328677 207.07136739 14.29703809 212.01929001 12.91204834 216.96759033 C11.51120224 221.96782287 10.10386103 226.96622616 8.69726562 231.96484375 C6.63229834 239.30769729 4.56929166 246.65109606 2.51196289 253.99609375 C2.17498933 255.19744461 2.17498933 255.19744461 1.83120823 256.42306519 C0.3638024 261.66516263 -1.06320487 266.91669747 -2.43849182 272.18383789 C-3 274 -3 274 -4 275 C-6.30053835 275.09443335 -8.60402173 275.11742128 -10.90649414 275.11352539 C-11.62840439 275.11367142 -12.35031464 275.11381744 -13.09410095 275.1139679 C-15.49114947 275.11326869 -17.88812123 275.10547595 -20.28515625 275.09765625 C-21.94282489 275.0957921 -23.60049407 275.09436818 -25.25816345 275.09336853 C-29.62954214 275.08954312 -34.00088781 275.07971265 -38.37225342 275.06866455 C-42.82954461 275.05845092 -47.28684111 275.05387101 -51.74414062 275.04882812 C-60.49610893 275.0380904 -69.24805036 275.02101371 -78 275 C-72.18085241 252.67235109 -65.91533584 230.4840589 -59.54354858 208.30880737 C-56.65064252 198.24051504 -53.76902749 188.16898635 -50.88671875 178.09765625 C-50.59490786 177.0783005 -50.30309696 176.05894474 -50.00244331 175.00869942 C-44.40620456 155.45746632 -38.86700757 135.89047722 -33.35672379 116.31486511 C-32.2468833 112.37224366 -31.13648102 108.42978043 -30.02612305 104.48730469 C-29.80716023 103.70983824 -29.58819742 102.93237179 -29.36259937 102.13134575 C-28.92063091 100.56207329 -28.47865532 98.99280284 -28.03667259 97.42353439 C-27.59659923 95.8610226 -27.1565471 94.29850482 -26.71651649 92.73598099 C-21.69472523 74.90464063 -16.6562462 57.07803848 -11.6053772 39.25491333 C-10.66575364 35.93900284 -9.72712357 32.62281374 -8.78939819 29.30636597 C-7.70226458 25.46162887 -6.61323685 21.61743368 -5.5226593 17.7736721 C-5.12292266 16.36360031 -4.72386292 14.95333643 -4.32551575 13.54287148 C-3.78291601 11.62213029 -3.23760472 9.70215571 -2.69213867 7.78222656 C-2.38765305 6.70732971 -2.08316742 5.63243286 -1.76945496 4.52496338 C-1 2 -1 2 0 0 Z M59 54 C56.16080371 61.13044978 54.07319624 68.41916348 51.98828125 75.80078125 C51.61160663 77.12742694 51.23474694 78.45402009 50.85771179 79.78056335 C50.07307083 82.54424314 49.29091339 85.30861045 48.51049805 88.07348633 C47.51010813 91.61678111 46.5030629 95.15814498 45.49413776 98.69901752 C44.71668735 101.43053156 43.94293199 104.16308163 43.17027855 106.89595604 C42.80026872 108.2028379 42.42906249 109.50938164 42.0566349 110.81557655 C41.53828498 112.63549879 41.02548069 114.4569978 40.51293945 116.27856445 C40.21998489 117.31366653 39.92703033 118.34876862 39.62519836 119.41523743 C38.88245053 122.04276924 38.88245053 122.04276924 39 125 C43.60402353 125.10026352 48.20738632 125.17211133 52.81225586 125.21972656 C54.37259007 125.23961365 55.93285209 125.26673352 57.49291992 125.30175781 C72.51413754 125.63009044 86.79474256 123.59901865 98.25390625 112.89453125 C107.88328221 102.59127631 110.71511359 91.74806604 110.3046875 77.85546875 C109.75699334 70.9250311 107.87967702 66.24026256 102.5625 61.6875 C89.67915718 53.05062213 73.80369877 53.83469815 59 54 Z M346 71 C345.59273682 71.83023682 345.18547363 72.66047363 344.76586914 73.51586914 C341.49374323 80.16951493 338.20241398 86.81327043 334.87109375 93.4375 C334.39048241 94.39916832 334.39048241 94.39916832 333.90016174 95.38026428 C330.71747025 101.68883625 327.1584817 107.71766838 323.40722656 113.70361328 C320.40406137 118.60433704 317.53501165 123.58672224 314.6378479 128.55062866 C308.95277512 138.29034688 303.24027316 148.01028903 297.37109375 157.640625 C295.91625895 159.68929533 295.91625895 159.68929533 296 161 C314.48 161 332.96 161 352 161 C351.28482207 145.90848667 351.28482207 145.90848667 350.28125 130.84375 C350.15248106 129.13722735 350.02399139 127.43068361 349.89575195 125.72412109 C349.83086578 124.86969421 349.76597961 124.01526733 349.6991272 123.13494873 C348.38606249 105.75983256 347.4044054 88.42294665 347 71 C346.67 71 346.34 71 346 71 Z " fill="#C44A1C" transform="translate(2027,179)"/>
<path d="M0 0 C0 3.43561862 -0.50166078 4.04493507 -2.5 6.7109375 C-3.04922119 7.45029541 -3.59844238 8.18965332 -4.16430664 8.95141602 C-5.07297485 10.15109009 -5.07297485 10.15109009 -6 11.375 C-6.62575928 12.21281006 -7.25151855 13.05062012 -7.89624023 13.91381836 C-13.24709711 21.05865766 -18.67793842 28.14331743 -24.10546875 35.22998047 C-28.87136822 41.46912251 -33.49528186 47.79574571 -38.06005859 54.18286133 C-42.93073004 60.96953033 -47.98858614 67.60714434 -53.09375 74.21875 C-54.3423075 75.84213325 -55.58087664 77.4732523 -56.80885315 79.11225891 C-58.27961994 81.05060169 -59.78419722 82.96371169 -61.31993103 84.85099792 C-69.05817289 94.63938326 -72.68192668 105.01923663 -76.3984375 116.81640625 C-77.04505736 118.806184 -77.69383322 120.79526226 -78.34463501 122.78367615 C-80.03834247 127.97817304 -81.70248325 133.18166768 -83.36035156 138.38769531 C-85.04605745 143.66221873 -86.76084244 148.92726436 -88.47265625 154.19335938 C-90.98017701 161.92178747 -93.47589149 169.65384954 -95.95068359 177.39282227 C-96.22198908 178.23693979 -96.49329456 179.08105732 -96.77282143 179.95075417 C-97.95786926 183.65361973 -99.11720283 187.35720785 -100.1784668 191.09761047 C-100.51579834 192.27373398 -100.85312988 193.44985748 -101.20068359 194.66162109 C-101.47302826 195.65721039 -101.74537292 196.65279968 -102.02597046 197.67855835 C-103 200 -103 200 -106.390625 202.09765625 C-107.91755597 202.44356863 -109.45638995 202.73838659 -111 203 C-113.10088657 203.53281854 -115.19965868 204.07400723 -117.296875 204.62109375 C-118.4842627 204.91016602 -119.67165039 205.19923828 -120.89501953 205.49707031 C-188.7126316 222.04130348 -269.32554483 251.89646987 -307.6875 314.25 C-324.19194709 342.11769227 -327.36138159 373.29941033 -319.80493164 404.53564453 C-307.18263011 453.02273105 -273.86321534 495.86534581 -238.5625 530.40234375 C-236.84553159 532.15794395 -235.2727348 533.99987272 -233.6875 535.875 C-230.27400075 539.83832463 -226.48684781 543.23782643 -222.56640625 546.69140625 C-218.55159944 550.30289914 -214.78224331 554.14814485 -211 558 C-210.00111297 559.00111173 -209.00156862 560.00157109 -208 561 C-212.43585167 560.37830867 -216.06563808 558.65895728 -220 556.625 C-220.69367676 556.27050781 -221.38735352 555.91601562 -222.10205078 555.55078125 C-223.61279562 554.77662012 -225.12201734 553.9994811 -226.62988281 553.21972656 C-229.01388979 551.99285194 -231.4083196 550.78846095 -233.8046875 549.5859375 C-254.51709752 539.08617713 -274.36649506 526.86316665 -293 513 C-293.57991699 512.57025879 -294.15983398 512.14051758 -294.75732422 511.69775391 C-317.28332755 494.91758843 -340.02837237 475.47437378 -357 453 C-357.50563477 452.34902344 -358.01126953 451.69804688 -358.53222656 451.02734375 C-391.12696489 409.02052248 -409.42958481 357.86919652 -403.1796875 304.34033203 C-397.41487606 261.70985804 -378.85423436 222.61999206 -351 190 C-350.11094105 188.92664027 -349.22297364 187.85237575 -348.3359375 186.77734375 C-342.75979756 180.07776016 -336.91052832 173.73021094 -330.75 167.5625 C-329.7763147 166.5876062 -329.7763147 166.5876062 -328.78295898 165.59301758 C-304.35428013 141.44338189 -275.29232407 121.98761548 -245 106 C-243.6687207 105.29641357 -243.6687207 105.29641357 -242.31054688 104.57861328 C-201.28474248 83.08046803 -157.07366651 69.08177768 -111.7890625 59.84765625 C-110.98162598 59.68273682 -110.17418945 59.51781738 -109.34228516 59.34790039 C-107 59 -107 59 -102 59 C-98.04 75.335 -98.04 75.335 -94 92 C-88.43360495 86.39437216 -88.43360495 86.39437216 -82.87304688 80.78295898 C-82.16212891 80.06954346 -81.45121094 79.35612793 -80.71875 78.62109375 C-80.00654297 77.9036499 -79.29433594 77.18620605 -78.56054688 76.44702148 C-76.61813555 74.59072966 -74.66482095 72.85770848 -72.62011719 71.12231445 C-66.59754174 65.88557944 -61.04659034 60.15659243 -55.42388153 54.49904633 C-53.32424764 52.38653215 -51.2214034 50.27726017 -49.11773682 48.16876221 C-44.65899436 43.69865721 -40.20421691 39.22461387 -35.75 34.75 C-30.57170985 29.54807866 -25.39179102 24.34780079 -20.20764923 19.15171051 C-18.13830615 17.07589661 -16.07200184 14.99709014 -14.00579834 12.91815186 C-12.73806305 11.64678437 -11.47018733 10.37555688 -10.20214844 9.10449219 C-9.63065063 8.52782806 -9.05915283 7.95116394 -8.47033691 7.35702515 C-5.78628939 4.67262225 -3.12316409 2.16648302 0 0 Z " fill="#255584" transform="translate(430,186)"/>
<path d="M0 0 C28.05 0 56.1 0 85 0 C89.10617511 12.31852532 93.18047977 24.58539977 96.8984375 37.015625 C97.33529043 38.46746021 97.77241245 39.91921447 98.20977783 41.37089539 C99.36426835 45.20585423 100.51484748 49.04197442 101.66425323 52.87845993 C102.62579549 56.08682624 103.58912661 59.29465438 104.55241203 62.50249767 C106.27216667 68.22950529 107.99111259 73.95675377 109.70730591 79.68482971 C112.41653759 88.72716068 115.1341662 97.76687142 117.86398315 106.80300903 C119.42586014 111.97378981 120.98125245 117.14651461 122.53594971 122.31945801 C123.25154592 124.69681115 123.96921602 127.07354121 124.68914795 129.44958496 C128.34082158 141.50855998 131.7611518 153.49691747 134.28662109 165.84594727 C134.67089957 168.84879746 134.67089957 168.84879746 136 170 C136.14864502 169.20009644 136.14864502 169.20009644 136.30029297 168.3840332 C138.76432742 155.37365901 141.8047094 142.57269726 145.29296875 129.8046875 C145.50317217 129.03099508 145.71337559 128.25730267 145.92994881 127.46016502 C151.94868838 105.30987513 158.22887991 83.23191293 164.49151611 61.1496582 C165.76903086 56.64295478 167.04428039 52.1356117 168.31948757 47.62825489 C169.56018664 43.24332945 170.80176393 38.85865311 172.0436573 34.47406578 C172.63025278 32.40301536 173.21669615 30.33192186 173.80297661 28.26078224 C174.6171033 25.38561842 175.4322926 22.51075802 176.24780273 19.63598633 C176.48312714 18.80434464 176.71845154 17.97270294 176.96090698 17.11585999 C178.58629368 11.39210961 180.28978483 5.70071724 182 0 C206.42 0 230.84 0 256 0 C255.30835904 5.53312765 254.57921268 10.03285474 253.07666016 15.28051758 C252.88228237 15.96558191 252.68790459 16.65064625 252.48763657 17.35647011 C251.84367564 19.62078593 251.19138724 21.88261214 250.5390625 24.14453125 C250.07658912 25.76458404 249.61465764 27.38479161 249.15322876 29.00514221 C248.16631163 32.46663267 247.17575021 35.92705073 246.18225098 39.38665771 C244.6062531 44.87477051 243.03831153 50.3651644 241.47167969 55.85595703 C239.6011103 62.41018014 237.72877361 68.96389257 235.85391998 75.51689148 C231.67867223 90.11107709 227.53474134 104.7140485 223.39874268 119.31939697 C222.24514785 123.39273029 221.09025652 127.46569529 219.93505859 131.53857422 C216.40473178 143.98585471 212.87663542 156.43376182 209.35325623 168.88301086 C207.31972529 176.06809202 205.28524298 183.25290361 203.25 190.4375 C202.95475496 191.47976557 202.95475496 191.47976557 202.65354538 192.54308701 C194.85922765 220.05515041 186.94916416 247.53209613 179 275 C151.94 275 124.88 275 97 275 C85.49970331 239.34908026 85.49970331 239.34908026 81.5546875 226.796875 C81.09672642 225.34281042 80.63866935 223.88877607 80.18052673 222.43476868 C78.74378963 217.87366978 77.30918141 213.31190305 75.875 208.75 C75.37486908 207.15933186 74.87473682 205.56866414 74.37460327 203.97799683 C74.12417928 203.18149373 73.87375528 202.38499063 73.61574268 201.56435108 C72.60166983 198.33898131 71.58754859 195.11362676 70.57341194 191.88827705 C70.06975812 190.28630513 69.56618089 188.68430912 69.0626812 187.08228874 C66.13910561 177.78046851 63.20511488 168.48213678 60.24810791 159.19088745 C58.77092372 154.54850318 57.29912145 149.90442194 55.82794189 145.26013184 C55.16316015 143.16673064 54.49574003 141.07416501 53.82537842 138.98254395 C49.9074962 126.75481624 46.53094854 114.59251425 44 102 C43.67 102 43.34 102 43 102 C42.86046402 102.7210643 42.72092804 103.4421286 42.5771637 104.18504333 C38.95814811 122.70242628 34.56848764 140.86652095 29.49848557 159.04644775 C28.53211514 162.51935934 27.57641479 165.99520843 26.61938477 169.47070312 C24.97194332 175.44834673 23.31795757 181.42414769 21.66015625 187.39892578 C19.06762369 196.74441857 16.49438525 206.09517998 13.92307854 215.4465313 C11.99912563 222.44202118 10.07215639 229.43668099 8.14509964 236.43131638 C7.67268043 238.14626283 7.20037801 239.86124147 6.72819138 241.57625198 C5.38178299 246.46638421 4.0333972 251.35596146 2.6816864 256.24463081 C2.26935548 257.73711905 1.8577437 259.22980617 1.44688416 260.72270012 C0.88506967 262.76359264 0.32068953 264.80375805 -0.24438477 266.84375 C-0.56093521 267.99037109 -0.87748566 269.13699219 -1.20362854 270.31835938 C-2 273 -2 273 -3 275 C-27.42 275 -51.84 275 -77 275 C-75.76220444 268.81102222 -74.51241429 262.84949815 -72.78295898 256.81591797 C-72.56868476 256.05655976 -72.35441053 255.29720156 -72.13364315 254.5148325 C-71.42477333 252.00623562 -70.71046072 249.49922398 -69.99609375 246.9921875 C-69.48442391 245.18580745 -68.9730904 243.3793321 -68.46206665 241.57276917 C-67.08028563 236.6916296 -65.69373702 231.81185602 -64.30629349 226.93232346 C-62.84067794 221.77475628 -61.37947933 216.61593784 -59.91772461 211.45727539 C-56.87935584 200.73767302 -53.83561253 190.01960232 -50.79040527 179.30194092 C-49.06937211 173.24466922 -47.34945321 167.18708163 -45.62988281 161.12939453 C-40.38821793 142.66470827 -35.1432091 124.20097524 -29.89453125 105.73828125 C-24.75132322 87.64648714 -19.6123675 69.55349058 -14.47946167 51.45877075 C-13.67479642 48.62217336 -12.86988737 45.78564535 -12.06472778 42.94918823 C-10.96445399 39.07305868 -9.86499246 35.19669921 -8.765625 31.3203125 C-8.45529831 30.22740402 -8.14497162 29.13449554 -7.82524109 28.00846863 C-5.18152834 18.68170393 -2.59472747 9.34101888 0 0 Z " fill="#213F6E" transform="translate(1011,179)"/>
<path d="M0 0 C28.05 0 56.1 0 85 0 C94.21232948 28.78852962 94.21232948 28.78852962 98.3203125 42.4140625 C98.78654718 43.95502848 99.25294219 45.49594596 99.71948242 47.03681946 C100.94045316 51.07154569 102.15880919 55.10705589 103.37619781 59.14286423 C104.13417964 61.65542876 104.8926729 64.16783839 105.65130615 66.6802063 C108.42084751 75.85272795 111.18701191 85.02626198 113.95055962 94.20059109 C115.769155 100.23679128 117.59347372 106.2712437 119.41897583 112.30535889 C120.70442124 116.55905661 121.98459853 120.81432219 123.26263428 125.07025146 C123.82431315 126.93775718 124.3878973 128.80469124 124.95367432 130.67095947 C128.79312234 143.34510829 132.05412002 156.0888744 135 169 C135.33 169 135.66 169 136 169 C136.12480743 168.35734192 136.24961487 167.71468384 136.37820435 167.05255127 C140.56091543 145.85247079 146.20123128 125.17388176 152.11986542 104.40407181 C153.40080985 99.90193592 154.67163385 95.39694305 155.94384766 90.89233398 C158.71590927 81.08486448 161.50315048 71.28175063 164.29418945 61.47966766 C165.40306164 57.58395581 166.51006084 53.6877121 167.6171875 49.79150391 C171.13599662 37.41083551 174.66305889 25.03253039 178.2109375 12.66015625 C178.61862366 11.23658562 178.61862366 11.23658562 179.0345459 9.78425598 C179.28144165 8.92482895 179.5283374 8.06540192 179.78271484 7.17993164 C179.9953598 6.43908829 180.20800476 5.69824493 180.42709351 4.93495178 C180.91725267 3.27947334 181.45402703 1.63791892 182 0 C206.42 0 230.84 0 256 0 C254.87496578 7.87523953 254.87496578 7.87523953 253.78271484 11.74169922 C253.53575363 12.62422363 253.28879242 13.50674805 253.03434753 14.41601562 C252.76262222 15.36927734 252.49089691 16.32253906 252.2109375 17.3046875 C251.77488945 18.85470459 251.77488945 18.85470459 251.33003235 20.43603516 C250.34944254 23.91695408 249.36225098 27.39596492 248.375 30.875 C247.66609647 33.38548738 246.95752874 35.8960696 246.24926758 38.40673828 C244.05732815 46.17180403 241.85597423 53.93418986 239.65355682 61.69628906 C238.76293555 64.83562431 237.87286814 67.97511649 236.98278713 71.11460495 C231.66635293 89.86627907 226.34114259 108.61545247 221.01151466 127.36338043 C217.64845382 139.19394853 214.28997764 151.02580355 210.9375 162.859375 C210.53394615 164.28375765 210.13039188 165.70814018 209.72683716 167.13252258 C209.13131705 169.23450464 208.53580149 171.33648799 207.94029427 173.4384737 C202.58240812 192.35011412 197.21643256 211.25938405 191.8203125 230.16015625 C191.62540096 230.84286528 191.43048943 231.5255743 191.22967148 232.22897148 C187.15831314 246.48746718 183.077976 260.74339591 179 275 C151.94 275 124.88 275 97 275 C87.8184738 247.4554214 87.8184738 247.4554214 84.58203125 237.01171875 C84.00484497 235.16076872 83.42765834 233.30981879 82.8504591 231.4588728 C82.04356668 228.86920392 81.2388916 226.27884837 80.43423462 223.68848419 C78.70123274 218.11100907 76.96438091 212.53473033 75.22761154 206.95842743 C74.77554016 205.50684686 74.32357778 204.05523235 73.87172318 202.60358429 C70.5747161 192.01309072 67.24652177 181.43281051 63.89642906 170.85899544 C62.45797007 166.31649197 61.02343806 161.77274617 59.58864689 157.22908306 C58.44145484 153.59774056 57.29145654 149.9673363 56.13491821 146.33895874 C47.3586645 118.79728472 47.3586645 118.79728472 44.63867188 104.95849609 C44.30695694 102.12629909 44.30695694 102.12629909 43 101 C42.85751831 101.73022873 42.71503662 102.46045746 42.5682373 103.21281433 C38.91058172 121.79893251 34.53387992 140.04497539 29.5 158.3125 C28.77572046 160.96204164 28.05399629 163.61227807 27.33203125 166.26245117 C25.55578189 172.77567734 23.76915179 179.2860151 21.97926331 185.79550457 C20.34117626 191.75440267 18.70860641 197.7147979 17.078125 203.67578125 C14.30451716 213.81556058 11.52710316 223.95429075 8.7461853 234.09206772 C8.24795628 235.90850433 7.74984875 237.72497427 7.25186157 239.5414772 C5.82826256 244.73413389 4.40255587 249.92620196 2.97337341 255.11732483 C2.53569179 256.7082522 2.09872123 258.29937538 1.66249084 259.89070129 C1.06472567 262.07066752 0.46436128 264.24990092 -0.13671875 266.42895508 C-0.47405029 267.65568436 -0.81138184 268.88241364 -1.15893555 270.14631653 C-2 273 -2 273 -3 275 C-27.42 275 -51.84 275 -77 275 C-75.87500042 267.12500295 -75.87500042 267.12500295 -74.90905762 263.72621155 C-74.69144681 262.95207192 -74.473836 262.1779323 -74.24963093 261.3803339 C-74.01192069 260.55236522 -73.77421045 259.72439653 -73.52929688 258.87133789 C-73.14960015 257.5281922 -73.14960015 257.5281922 -72.76223278 256.15791225 C-71.91872369 253.17825013 -71.06874423 250.20047428 -70.21875 247.22265625 C-69.6157206 245.09748309 -69.01309418 242.97219555 -68.4108429 240.84680176 C-66.78459115 235.11191419 -65.15275344 229.37862966 -63.51990128 223.64561844 C-61.80904667 217.6350419 -60.10339699 211.62298874 -58.3972168 205.61108398 C-55.26644854 194.58228989 -52.13134017 183.55473522 -48.99432468 172.52771664 C-45.96910975 161.89310215 -42.94808063 151.25730208 -39.92840767 140.62111282 C-35.78989485 126.04406446 -31.64908167 111.46767209 -27.50558281 96.89204025 C-21.07422329 74.26820207 -14.65559266 51.64076346 -8.2410717 29.012146 C-7.85671566 27.65624816 -7.47235328 26.30035212 -7.08798409 24.94445801 C-6.22035105 21.88380982 -5.3527947 18.82313996 -4.4854126 15.76242065 C-4.18479919 14.70185455 -3.88418579 13.64128845 -3.57446289 12.54858398 C-3.31677628 11.63930649 -3.05908966 10.73002899 -2.79359436 9.79319763 C-1.86584478 6.52781666 -0.93257332 3.26400661 0 0 Z " fill="#C44A1C" transform="translate(2553,179)"/>
<path d="M0 0 C-4.55594729 16.50897037 -9.32295709 32.94060251 -14.296875 49.328125 C-14.97821555 51.58022653 -15.65930049 53.83240541 -16.34014893 56.08465576 C-18.11572467 61.95627338 -19.89417616 67.82701548 -21.67346191 73.69750977 C-24.49822686 83.01900989 -27.31883753 92.34176824 -30.13911438 101.66462708 C-30.82518937 103.93225377 -31.51145712 106.19982216 -32.19792175 108.46733093 C-37.13106538 124.76333265 -42.02070241 141.07157701 -46.82830811 157.40509033 C-47.03910759 158.11883568 -47.24990707 158.83258102 -47.46709442 159.56795502 C-48.02430115 161.45470751 -48.57952504 163.34204527 -49.13458252 165.22943115 C-50 168 -50 168 -51 170 C-56.63820087 169.42614691 -61.75688639 168.36398878 -67.16015625 166.68334961 C-67.93185654 166.44911789 -68.70355682 166.21488617 -69.49864197 165.97355652 C-72.02186714 165.20601908 -74.54215266 164.42927352 -77.0625 163.65234375 C-78.8220907 163.11511379 -80.5818592 162.57846587 -82.34179688 162.04237366 C-86.95322535 160.63599553 -91.56220878 159.22176601 -96.17071533 157.80584717 C-100.88188078 156.35992438 -105.59533282 154.92149621 -110.30859375 153.48242188 C-119.54130641 150.66224805 -128.77145154 147.83376832 -138 145 C-137.75765625 146.06436279 -137.5153125 147.12872559 -137.265625 148.2253418 C-136.36568 152.1844151 -135.47280615 156.14505547 -134.58203125 160.10620117 C-134.19593097 161.81854941 -133.80792885 163.53047 -133.41796875 165.24194336 C-132.85693688 167.70576061 -132.30282142 170.17104804 -131.75 172.63671875 C-131.48751465 173.77919319 -131.48751465 173.77919319 -131.21972656 174.94474792 C-130.38702424 178.68994493 -129.78750222 182.15843863 -130 186 C-130.90492188 186.24492187 -131.80984375 186.48984375 -132.7421875 186.7421875 C-137.83622363 188.13276184 -142.91891991 189.56288797 -148 191 C-149.19641113 191.33821777 -150.39282227 191.67643555 -151.62548828 192.02490234 C-223.44077829 212.40631001 -295.19798279 240.15500219 -352 290 C-353.06347656 290.91458984 -353.06347656 290.91458984 -354.1484375 291.84765625 C-356.11639082 293.54652208 -358.06147212 295.26762154 -360 297 C-360.9590625 297.85464844 -361.918125 298.70929688 -362.90625 299.58984375 C-368.6651056 304.7644546 -374.0325891 310.05353509 -379 316 C-379.86882812 316.98097656 -380.73765625 317.96195312 -381.6328125 318.97265625 C-413.10473429 354.57789043 -435.4342987 399.49336088 -437.5625 447.5 C-437.60568359 448.4178125 -437.64886719 449.335625 -437.69335938 450.28125 C-437.79833456 452.52072061 -437.90049248 454.76028092 -438 457 C-441.80880987 453.19119013 -441.13941247 446.75851965 -441.625 441.5625 C-441.69003723 440.88028381 -441.75507446 440.19806763 -441.82208252 439.49517822 C-449.94301108 352.14777566 -422.63075567 271.24468087 -367.265625 203.890625 C-362.70469311 198.40785964 -357.87343276 193.20539123 -353 188 C-351.55485148 186.42118757 -350.11511006 184.83755803 -348.67553711 183.25366211 C-342.48330307 176.45058259 -336.19627848 169.94758955 -329.22265625 163.94140625 C-326.67023117 161.71195939 -324.18112486 159.41998618 -321.6875 157.125 C-316.28329205 152.2080567 -310.72337421 147.53911311 -305 143 C-304.35144043 142.48421387 -303.70288086 141.96842773 -303.03466797 141.43701172 C-292.28075789 132.90923737 -281.32023763 124.7599966 -270 117 C-269.38624512 116.57799316 -268.77249023 116.15598633 -268.14013672 115.72119141 C-243.49710318 98.84469027 -217.53596921 84.09754279 -190.95556641 70.51367188 C-188.98616194 69.50505568 -187.01967115 68.49072981 -185.05615234 67.47070312 C-133.43343993 40.65766173 -77.79039084 20.28651324 -21.875 4.5 C-21.04376617 4.26408142 -20.21253235 4.02816284 -19.35610962 3.78509521 C-17.02892471 3.12867165 -14.69903877 2.48337675 -12.3671875 1.84375 C-11.68922623 1.6539859 -11.01126495 1.4642218 -10.3127594 1.26870728 C-6.76610688 0.31685759 -3.65736846 -0.07553542 0 0 Z " fill="#244F7E" transform="translate(443,0)"/>
<path d="M0 0 C1.99235007 0.09699136 3.98459829 0.19609479 5.97674561 0.29716492 C8.04455137 0.33266185 10.11251841 0.35967966 12.18054199 0.37863159 C17.59040784 0.45074384 22.99037543 0.63688511 28.3963623 0.8480072 C33.92570021 1.04338549 39.45666022 1.12935661 44.98846436 1.22489929 C55.81719586 1.42788498 66.63785302 1.75922802 77.46112061 2.15263367 C79.15056781 16.53175131 80.46014689 30.93383909 81.70770264 45.35722351 C81.92456424 47.84598325 82.1416105 50.33472691 82.35882568 52.82345581 C82.88291919 58.83404446 83.40502757 64.8448024 83.92613925 70.85565005 C84.34958754 75.73940886 84.7739251 80.62308968 85.19887924 85.50671768 C85.29005969 86.55457671 85.29005969 86.55457671 85.38308217 87.6236046 C85.50661062 89.04315528 85.63014156 90.46270574 85.75367497 91.88225599 C86.84141255 104.38270547 87.92698628 116.88334193 89.01141357 129.38407898 C90.0628934 141.50501342 91.11626811 153.62578138 92.17156982 165.74638367 C93.32364328 178.97847455 94.47462093 192.21065993 95.62373626 205.44300807 C95.74615451 206.85266224 95.86857359 208.26231634 95.9909935 209.67197037 C96.05121395 210.36541764 96.1114344 211.05886491 96.17347971 211.77332573 C96.59769252 216.65737668 97.02267398 221.5413604 97.44794083 226.42531967 C98.01923807 232.98670975 98.58868378 239.54825875 99.15687561 246.10991859 C99.36590779 248.52069169 99.5755307 250.93141365 99.78577805 253.34208107 C100.07190371 256.62387872 100.35591598 259.90585248 100.63937378 263.18788147 C100.7236104 264.14836187 100.80784703 265.10884227 100.89463627 266.09842813 C100.97003758 266.97659083 101.04543888 267.85475352 101.12312508 268.75952721 C101.18887171 269.51680497 101.25461834 270.27408273 101.3223573 271.0543083 C101.45652747 273.08317806 101.46112061 275.11933237 101.46112061 277.15263367 C76.38112061 277.15263367 51.30112061 277.15263367 25.46112061 277.15263367 C24.47112061 266.23169617 24.47112061 266.23169617 23.46112061 255.09013367 C23.14787842 251.6617511 23.14787842 251.6617511 22.82830811 248.16410828 C22.66399867 246.33608684 22.49992079 244.50804456 22.33612061 242.67997742 C22.24975342 241.74415833 22.16338623 240.80833923 22.07440186 239.84416199 C21.99319092 238.93138489 21.91197998 238.01860779 21.82830811 237.07817078 C21.75724854 236.29429489 21.68618896 235.51041901 21.61297607 234.70278931 C21.42322301 231.51620772 21.43817684 228.34402918 21.46112061 225.15263367 C9.33457833 224.7253056 -2.78750538 224.43063712 -14.9210825 224.30029297 C-20.5576122 224.23567741 -26.18585955 224.12728654 -31.81890869 223.9148407 C-55.39189149 221.69384096 -55.39189149 221.69384096 -76.99383545 228.43803406 C-82.19285283 233.90658112 -84.97779744 240.00724086 -87.37731934 247.08561707 C-89.26015975 252.05712307 -92.1955911 256.27310281 -95.16387939 260.65263367 C-96.09845141 262.11828047 -97.02906118 263.58647414 -97.95294189 265.05888367 C-98.334021 265.66023132 -98.7151001 266.26157898 -99.10772705 266.88114929 C-100.59129657 269.02292112 -100.59129657 269.02292112 -101.17289734 271.16105652 C-102.29290571 273.92891119 -103.17582323 275.28886591 -105.53887939 277.15263367 C-111.59416371 278.33473151 -117.60055387 278.08213006 -123.74591064 277.93388367 C-125.55477903 277.91895664 -127.36367983 277.90757179 -129.17259216 277.89958191 C-133.92621678 277.86908339 -138.67787554 277.79054223 -143.4307251 277.70195007 C-148.28356328 277.62000798 -153.1367202 277.58355271 -157.99005127 277.54325867 C-167.50718953 277.45754405 -177.0228708 277.3210662 -186.53887939 277.15263367 C-185.07676637 273.38532226 -183.39589888 270.08497085 -181.26544189 266.64482117 C-180.61156494 265.58529236 -179.95768799 264.52576355 -179.28399658 263.43412781 C-178.57744766 262.29853218 -177.87073831 261.16303636 -177.16387939 260.02763367 C-176.43610164 258.85256988 -175.70856489 257.6773568 -174.98126221 256.5019989 C-169.36180032 247.43165784 -163.68170557 238.39980448 -157.96124268 229.39286804 C-149.06406411 215.37973545 -140.25186531 201.31395986 -131.46221924 187.23320007 C-128.32298716 182.2051688 -125.18080788 177.17898026 -122.03887939 172.15263367 C-120.78886476 170.15264281 -119.53886477 168.15264281 -118.28887939 166.15263367 C-114.53887939 160.15263367 -114.53887939 160.15263367 -110.78887939 154.15263367 C-110.1698877 153.16223083 -109.550896 152.171828 -108.91314697 151.15141296 C-107.66564692 149.15544538 -106.41808852 147.15951427 -105.17047119 145.16362 C-102.00673757 140.1022245 -98.84408378 135.04015973 -95.68341064 129.97685242 C-89.51030192 120.08984088 -83.32262183 110.21278476 -77.09014893 100.36308289 C-71.176464 91.01006641 -65.32183915 81.62014236 -59.46221924 72.23320007 C-55.70097034 66.20889967 -51.93572757 60.18709485 -48.17120361 54.1648407 C-45.00725575 49.10301964 -41.84433501 44.04056219 -38.68341064 38.97685242 C-38.04145752 37.94882507 -37.39950439 36.92079773 -36.73809814 35.86161804 C-35.54629765 33.95301 -34.3548451 32.0441846 -33.16387939 30.13505554 C-32.0296588 28.3189989 -30.87546303 26.5152685 -29.70185852 24.72441101 C-28.00935034 22.05080452 -26.63923553 19.30960431 -25.28691101 16.45011902 C-19.04972216 4.04088338 -13.99947628 -0.24880828 0 0 Z M12.46112061 73.15263367 C12.21168701 73.70797791 11.96225342 74.26332214 11.70526123 74.835495 C4.91061344 89.82001112 -2.91492995 103.91832753 -11.43414307 117.98403931 C-15.23566961 124.27474856 -18.88617916 130.6495669 -22.53887939 137.02763367 C-27.00407568 144.81120506 -31.52085585 152.54026097 -36.31622314 160.12528992 C-37.62495199 161.90077294 -37.62495199 161.90077294 -37.53887939 163.15263367 C-19.05887939 163.15263367 -0.57887939 163.15263367 18.46112061 163.15263367 C17.85135156 149.73771461 17.18107646 136.40143271 16.1602478 123.02244568 C14.89711661 106.40409164 13.88917665 89.81607491 13.46112061 73.15263367 C13.13112061 73.15263367 12.80112061 73.15263367 12.46112061 73.15263367 Z " fill="#1E2D5C" transform="translate(818.5388793945313,176.8473663330078)"/>
<path d="M0 0 C5.52241723 0.21607598 11.04682698 0.31099068 16.57226562 0.41656494 C27.38550124 0.64081774 38.18978338 0.99845104 48.99609375 1.44195557 C50.84900227 15.01779525 52.05876116 28.63231976 53.24267578 42.28009033 C53.45946995 44.75384143 53.67651804 47.22757028 53.89379883 49.70127869 C54.41855282 55.68368003 54.9405375 61.66631684 55.46111239 67.64908279 C55.88429789 72.51191072 56.30866492 77.37463424 56.73385239 82.23728752 C56.82503284 83.28009072 56.82503284 83.28009072 56.91805532 84.34396065 C57.04158364 85.75666022 57.16511459 87.16935955 57.28864811 88.58205866 C58.44273831 101.78153716 59.59317382 114.98133221 60.74233375 128.18124073 C61.72752147 139.49667005 62.71588587 150.81181828 63.70654297 162.12677002 C64.85962439 175.29689359 66.01073253 188.4671872 67.15870941 201.63775676 C67.2811259 203.0421599 67.40354497 204.44656281 67.52596664 205.8509655 C67.58618709 206.5418165 67.64640755 207.2326675 67.70845286 207.94445338 C68.13215197 212.80357296 68.5572578 217.6625683 68.98291397 222.5215168 C69.5554269 229.05734031 70.12471924 235.59343893 70.69184875 242.12973213 C70.90042542 244.52799544 71.11003508 246.92616917 71.32075119 249.32424545 C71.60808845 252.59624203 71.89169029 255.86854167 72.17434692 259.14094543 C72.25858355 260.0901606 72.34282017 261.03937576 72.42960942 262.01735502 C72.50501072 262.89924087 72.58041203 263.78112671 72.65809822 264.68973637 C72.72384485 265.44392135 72.78959149 266.19810633 72.85733044 266.9751454 C73.03457869 270.12610641 72.99609375 273.2860132 72.99609375 276.44195557 C48.24609375 276.44195557 23.49609375 276.44195557 -2.00390625 276.44195557 C-3.12293638 274.2038953 -3.26512712 272.65008431 -3.48461914 270.16339111 C-3.56462662 269.2787468 -3.64463409 268.39410248 -3.72706604 267.48265076 C-3.80939987 266.52433853 -3.8917337 265.56602631 -3.9765625 264.57867432 C-4.10761635 263.10247368 -4.10761635 263.10247368 -4.24131775 261.59645081 C-4.42559166 259.51102429 -4.60787324 257.42542093 -4.78833008 255.33966064 C-5.06439999 252.15261653 -5.34710619 248.96621444 -5.63085938 245.77984619 C-5.80898892 243.75449028 -5.98673578 241.72910067 -6.1640625 239.70367432 C-6.29059959 238.27531502 -6.29059959 238.27531502 -6.41969299 236.81809998 C-6.49654831 235.92399918 -6.57340363 235.02989838 -6.65258789 234.10870361 C-6.72063126 233.32641891 -6.78867462 232.54413422 -6.85877991 231.73814392 C-7.01286024 229.30028563 -7.02818776 226.8840271 -7.00390625 224.44195557 C-19.20019439 224.15484029 -31.39375027 223.96601039 -43.59335804 223.9004879 C-49.25952037 223.8670122 -54.92116958 223.80050189 -60.58569336 223.65679932 C-66.05943174 223.51918004 -71.52758156 223.47055694 -77.00296593 223.48198318 C-79.08480907 223.47100295 -81.16674384 223.42866282 -83.24726295 223.35361862 C-94.33800947 222.65897344 -94.33800947 222.65897344 -103.94841766 227.21635437 C-107.40422338 231.55126496 -109.82250477 236.29309665 -112.05117989 241.34760666 C-113.26415284 244.0140476 -114.76988469 246.42522106 -116.38671875 248.86383057 C-116.85207031 249.59988525 -117.31742188 250.33593994 -117.796875 251.09429932 C-118.23644531 251.78652588 -118.67601562 252.47875244 -119.12890625 253.19195557 C-119.57621094 253.89965088 -120.02351563 254.60734619 -120.484375 255.33648682 C-121.40913639 256.7970431 -122.35149184 258.24662701 -123.31217957 259.68380737 C-125.11246241 262.49959185 -125.11246241 262.49959185 -126.62324524 265.93399048 C-131.20018899 275.27059561 -131.20018899 275.27059561 -135.87975311 277.22566223 C-141.39418807 278.42607595 -147.00166423 278.04843353 -152.6015625 277.80914307 C-154.40466083 277.78299621 -156.20785935 277.76308425 -158.01109314 277.74911499 C-162.73371118 277.69592006 -167.45019827 277.55867942 -172.17041016 277.40325928 C-176.99622638 277.25944491 -181.82304444 277.19597871 -186.65039062 277.12554932 C-196.10424141 276.9758722 -205.55356213 276.73729227 -215.00390625 276.44195557 C-213.77640429 273.307704 -212.53256998 270.47404399 -210.7109375 267.64117432 C-210.25356201 266.92421387 -209.79618652 266.20725342 -209.32495117 265.46856689 C-208.57822144 264.31070679 -208.57822144 264.31070679 -207.81640625 263.12945557 C-206.72463398 261.41891773 -205.63351878 259.7079604 -204.54296875 257.99664307 C-203.96579102 257.09268799 -203.38861328 256.18873291 -202.79394531 255.25738525 C-199.73153629 250.44073212 -196.71248618 245.59709799 -193.69140625 240.75445557 C-192.41408107 238.70887105 -191.13673715 236.66329824 -189.859375 234.61773682 C-189.22177246 233.59631592 -188.58416992 232.57489502 -187.92724609 231.52252197 C-184.1659972 225.49822157 -180.40075443 219.47641675 -176.63623047 213.4541626 C-173.4722826 208.39234154 -170.30936187 203.32988409 -167.1484375 198.26617432 C-160.97532878 188.37916278 -154.78764869 178.50210666 -148.55517578 168.65240479 C-142.64149085 159.29938831 -136.78686601 149.90946426 -130.92724609 140.52252197 C-127.1659972 134.49822157 -123.40075443 128.47641675 -119.63623047 122.4541626 C-116.4722826 117.39234154 -113.30936187 112.32988409 -110.1484375 107.26617432 C-103.97532878 97.37916278 -97.78764869 87.50210666 -91.55517578 77.65240479 C-85.64430978 68.30384669 -79.7927258 58.91825725 -73.93603516 49.53570557 C-72.01627853 46.46176622 -70.09444367 43.38913681 -68.171875 40.31695557 C-67.21825073 38.79267944 -67.21825073 38.79267944 -66.24536133 37.23760986 C-65.06976231 35.35865048 -63.89386107 33.47988012 -62.7175293 31.60137939 C-62.15976807 30.70958984 -61.60200684 29.81780029 -61.02734375 28.89898682 C-60.37693115 27.95321777 -59.72651855 27.00744873 -59.05639648 26.03302002 C-57.22856651 23.16228855 -56.30513394 20.32338874 -55.31274414 17.07550049 C-46.71430945 -6.57316334 -20.80788042 -0.90000685 0 0 Z M-16.00390625 73.44195557 C-16.3191626 74.09865234 -16.63441895 74.75534912 -16.95922852 75.4319458 C-24.0499726 90.11582749 -31.62947309 104.19073076 -40.1484375 118.10211182 C-44.88814679 125.84400074 -49.39399551 133.71426496 -53.90576172 141.59039307 C-54.48600098 142.60230713 -55.06624023 143.61422119 -55.6640625 144.65679932 C-56.21852051 145.62472412 -56.77297852 146.59264893 -57.34423828 147.58990479 C-59.47953631 151.25930042 -61.69594876 154.87652313 -63.93530273 158.48321533 C-65.16354663 160.36269614 -65.16354663 160.36269614 -65.00390625 162.44195557 C-46.85390625 162.44195557 -28.70390625 162.44195557 -10.00390625 162.44195557 C-9.97105627 153.77748524 -9.97105627 153.77748524 -10.35522461 145.18634033 C-10.43207993 144.09052139 -10.50893524 142.99470245 -10.58811951 141.86567688 C-10.67247757 140.71651291 -10.75683563 139.56734894 -10.84375 138.38336182 C-10.93016251 137.15898911 -11.01657501 135.93461639 -11.10560608 134.67314148 C-11.380574 130.783311 -11.66060228 126.89386874 -11.94140625 123.00445557 C-12.30732906 117.901776 -12.6707395 112.79892665 -13.03125 107.69586182 C-13.1178891 106.470336 -13.2045282 105.24481018 -13.29379272 103.98214722 C-14.00186388 93.80780541 -14.55721321 83.63088211 -15.00390625 73.44195557 C-15.33390625 73.44195557 -15.66390625 73.44195557 -16.00390625 73.44195557 Z " fill="#276593" transform="translate(1683.00390625,177.55804443359375)"/>
<path d="M0 0 C12.51075425 -0.04672284 25.0214871 -0.08206926 37.53231144 -0.10362434 C43.34408249 -0.11397933 49.15579305 -0.12798344 54.9675293 -0.15087891 C60.59562699 -0.17290746 66.22366719 -0.18463055 71.85180473 -0.18975449 C73.97914978 -0.19339723 76.10649236 -0.20050685 78.23381233 -0.21146011 C109.70455722 -0.36677801 141.88071542 0.2162194 166.0703125 22.9453125 C179.99364401 37.2921674 183.47821053 56.61584608 183.2109375 75.890625 C182.27673209 106.40800163 168.52439214 134.97957495 146.51171875 155.88671875 C113.49329847 185.9228301 64.38485824 180.34763709 23 180 C22.67237671 181.88525391 22.67237671 181.88525391 22.33813477 183.80859375 C20.62203131 192.3611255 18.02599234 200.69399632 15.58984375 209.0625 C15.05670797 210.90420891 14.52388116 212.74600729 13.99134827 214.58789062 C12.88015639 218.4279884 11.76623403 222.26727934 10.65014648 226.10595703 C9.21794356 231.03219097 7.79113112 235.95996572 6.36614132 240.88829041 C5.26881588 244.68216575 4.16944652 248.47544619 3.06936836 252.26852417 C2.54221674 254.08652564 2.01552629 255.9046609 1.48930168 257.72293091 C0.75647336 260.25336397 0.02108276 262.7830376 -0.71508789 265.3125 C-0.93276825 266.0657103 -1.15044861 266.81892059 -1.37472534 267.59495544 C-2.88548718 272.77097435 -2.88548718 272.77097435 -4 275 C-28.42 275 -52.84 275 -78 275 C-73.40564111 256.62256443 -73.40564111 256.62256443 -70.84423828 247.7277832 C-70.55280567 246.70747702 -70.26137306 245.68717083 -69.96110916 244.63594627 C-69.00001541 241.27350215 -68.03516947 237.91214726 -67.0703125 234.55078125 C-66.37196401 232.11032317 -65.67386109 229.66979481 -64.97598267 227.22920227 C-63.47832409 221.99352588 -61.97909034 216.75830482 -60.47839355 211.52349854 C-58.30267346 203.93394164 -56.12997202 196.3435232 -53.95814323 188.75285196 C-52.93811443 185.18779249 -51.91798267 181.62276247 -50.89782715 178.05773926 C-50.6930179 177.34201256 -50.48820866 176.62628586 -50.27719307 175.88887048 C-48.8029666 170.73726616 -47.32818408 165.58582121 -45.85314941 160.43444824 C-39.61621147 138.65237662 -33.38760077 116.86793505 -27.1640625 95.08203125 C-26.9435952 94.31028037 -26.72312791 93.5385295 -26.49597979 92.74339223 C-24.31284089 85.10123704 -22.12982816 77.45904581 -19.94691908 69.81682497 C-17.19434195 60.18025931 -14.44129222 50.54382873 -11.68798828 40.9074707 C-11.48796337 40.20739808 -11.28793847 39.50732546 -11.0818522 38.78603852 C-10.10962232 35.38331417 -9.13738451 31.98059208 -8.16514206 28.57787132 C-6.41571217 22.45508508 -4.66635604 16.33227776 -2.91699219 10.20947266 C-2.34478792 8.2067565 -1.77258336 6.20404043 -1.20037842 4.20132446 C-0.96691082 3.38418787 -0.73344322 2.56705128 -0.49290085 1.72515297 C-0.33024357 1.15585249 -0.16758629 0.58655201 0 0 Z M58 59 C55.40015008 65.60329063 53.3765488 72.3007127 51.42578125 79.12109375 C51.09708542 80.26159683 50.76838959 81.40209991 50.42973328 82.5771637 C49.73997639 84.97280207 49.05175505 87.36888303 48.36499023 89.76538086 C47.30870746 93.45073209 46.24752092 97.13464456 45.18554688 100.81835938 C44.51533979 103.14835548 43.84540803 105.4784308 43.17578125 107.80859375 C42.85708572 108.91577255 42.5383902 110.02295135 42.21003723 111.16368103 C41.91940903 112.17886307 41.62878082 113.1940451 41.3293457 114.23999023 C41.07192093 115.1374144 40.81449615 116.03483856 40.54927063 116.9594574 C39.9566789 118.80874208 39.9566789 118.80874208 40 120 C72.35767779 121.42143707 72.35767779 121.42143707 101.25 108.68359375 C108.11884611 102.07539582 111.00311563 92.69045362 111.375 83.3125 C111.07146283 76.76310193 109.32724459 71.9125632 104.625 67.25 C91.86714991 56.97805452 73.35095624 58.85815338 58 59 Z " fill="#1E2D5C" transform="translate(520,179)"/>
<path d="M0 0 C1.42930599 1.18885809 2.85072098 2.38719215 4.27050781 3.58740234 C3.65235361 6.73508556 2.6052487 8.87035827 0.78613281 11.50146484 C0.26962158 12.25339111 -0.24688965 13.00531738 -0.77905273 13.7800293 C-1.34019775 14.5827124 -1.90134277 15.38539551 -2.47949219 16.21240234 C-3.05932861 17.05053467 -3.63916504 17.88866699 -4.23657227 18.75219727 C-9.27706474 26.00857484 -14.43171942 33.18102058 -19.63964844 40.31787109 C-21.68658034 43.12832587 -23.69201974 45.96153018 -25.66308594 48.82568359 C-26.11917236 49.48334717 -26.57525879 50.14101074 -27.04516602 50.81860352 C-27.89568684 52.04878998 -28.73845703 53.28438446 -29.57202148 54.52612305 C-30.70605469 56.15771484 -30.70605469 56.15771484 -32.72949219 58.58740234 C-36.75029202 58.58740234 -37.77458398 57.12551747 -40.79199219 54.52490234 C-53.07934897 44.23969042 -66.37351842 34.86363991 -83.08105469 35.27490234 C-91.05581648 36.21587719 -98.48670865 39.40433698 -103.72949219 45.58740234 C-106.72276205 49.88131923 -108.5546182 54.28855098 -108.23339844 59.58349609 C-106.09494268 68.0875876 -97.06371925 73.92711077 -90.0378418 78.23950195 C-87.18122756 79.86768479 -84.30509945 81.45330577 -81.41699219 83.02490234 C-60.51425533 94.63900621 -37.17039181 108.23224496 -29.41699219 132.21240234 C-28.05096888 137.0700039 -27.04905272 141.55432392 -26.72949219 146.58740234 C-26.67792969 147.39564453 -26.62636719 148.20388672 -26.57324219 149.03662109 C-25.65367746 176.50861723 -35.28561174 203.29227739 -53.72949219 223.58740234 C-54.55320312 224.51552734 -54.55320312 224.51552734 -55.39355469 225.46240234 C-77.34366422 248.81818391 -110.32552672 260.4222277 -141.78857422 261.71289062 C-175.70083802 262.69621286 -203.95597373 255.26291465 -229.35839844 232.20068359 C-239.9304274 221.95064536 -239.9304274 221.95064536 -242.72949219 216.58740234 C-242.76247563 211.59865695 -239.53412922 208.63610512 -236.35449219 205.14990234 C-235.25044663 203.9033993 -234.14894301 202.65464086 -233.04980469 201.40380859 C-232.21304199 200.45272217 -232.21304199 200.45272217 -231.359375 199.48242188 C-228.8780169 196.59741565 -226.55192227 193.60073304 -224.22949219 190.58740234 C-219.98749476 185.1085723 -215.56218039 179.82335685 -211.02539062 174.58691406 C-206.790495 169.69092747 -202.72210645 164.68385702 -198.72949219 159.58740234 C-195.41488526 160.69227132 -194.75973113 161.4636332 -192.60449219 164.08740234 C-181.95231417 176.5371354 -170.43825425 186.27676971 -154.72949219 191.58740234 C-154.00761719 191.83232422 -153.28574219 192.07724609 -152.54199219 192.32958984 C-142.4965581 195.10730457 -129.19327578 195.1327321 -119.72949219 190.58740234 C-112.13796625 185.98487442 -107.46933056 180.79708963 -105.14746094 172.13818359 C-104.22194517 166.48994249 -105.99970669 162.32090011 -109.10449219 157.64990234 C-117.17506256 147.80913612 -128.94269035 142.0478001 -139.78808594 135.82250977 C-158.7623864 124.87408967 -177.6004734 112.30863146 -184.72949219 90.58740234 C-190.40984461 68.93105874 -183.8345511 45.3326444 -173.72949219 25.99365234 C-159.54481105 1.83536727 -136.2453558 -16.05671232 -109.27636719 -23.60400391 C-69.85687766 -32.59060559 -31.63071059 -25.83502138 0 0 Z " fill="#C44A1C" transform="translate(3023.7294921875,199.41259765625)"/>
<path d="M0 0 C2.56675876 0.00315774 5.13235721 -0.02039762 7.69897461 -0.0456543 C22.63238628 -0.103746 36.99367276 1.79046785 51.32983398 6.06567383 C52.19479492 6.31808838 53.05975586 6.57050293 53.95092773 6.83056641 C64.27148235 9.9356233 74.55425703 13.66980728 83.76733398 19.31567383 C80.57629216 32.91263167 76.66172382 46.29087258 72.73950195 59.69165039 C71.63480174 63.46641151 70.53469178 67.2424878 69.43530273 71.01879883 C68.73113955 73.43293832 68.0267217 75.84700355 67.32202148 78.26098633 C66.9949118 79.38288361 66.66780212 80.50478088 66.33078003 81.66067505 C64.89113178 86.57574959 63.4434605 91.47458275 61.76733398 96.31567383 C60.62063015 95.46267615 59.47504464 94.60817516 58.32983398 93.75317383 C57.59120117 93.2040332 56.85256836 92.65489258 56.09155273 92.08911133 C54.61102636 90.95943238 53.15210469 89.800434 51.72436523 88.60473633 C32.62866888 72.76928082 7.00240778 67.7566022 -17.23266602 69.31567383 C-38.35761835 71.42020865 -55.40732057 81.69825749 -70.23266602 96.31567383 C-70.97645508 97.04657227 -71.72024414 97.7774707 -72.48657227 98.53051758 C-90.52848521 117.49041435 -96.88719767 144.75685245 -96.51000977 170.18676758 C-96.09367983 181.33653906 -92.74210386 191.23672105 -86.23266602 200.31567383 C-85.51079102 201.36754883 -84.78891602 202.41942383 -84.04516602 203.50317383 C-70.6304974 216.91784244 -52.70538297 220.58006328 -34.42016602 220.69067383 C-16.32163218 220.54051929 -0.25561807 216.46954713 16.98217773 211.17114258 C21.2373509 209.86415391 25.50282791 208.59179697 29.76733398 207.31567383 C28.33733611 215.40344034 26.18527247 223.2133315 23.88842773 231.09301758 C23.5121975 232.39423459 23.13631376 233.69555182 22.76075745 234.9969635 C21.7800753 238.39158091 20.79441246 241.78473221 19.80773926 245.1776123 C19.00120229 247.95419624 18.19822116 250.73180249 17.39541531 253.50946712 C15.73717881 259.24663443 14.07620744 264.9830124 12.40966797 270.71777344 C12.11591782 271.72907822 11.82216766 272.740383 11.51951599 273.78233337 C10.96883527 275.63701978 10.37914367 277.48024477 9.76733398 279.31567383 C7.14081039 280.32563835 4.66569955 281.10868823 1.95483398 281.81567383 C1.15674316 282.02998047 0.35865234 282.24428711 -0.46362305 282.46508789 C-39.78329025 292.58698242 -89.57689272 293.93959262 -125.61499023 272.99804688 C-147.83332198 259.28334402 -164.32346127 237.09960523 -170.38500977 211.63598633 C-172.18960193 203.62658511 -173.95662386 195.53942966 -174.23266602 187.31567383 C-174.25844727 186.66679199 -174.28422852 186.01791016 -174.31079102 185.34936523 C-176.0898089 134.50281037 -157.2410756 87.71746638 -123.23266602 50.31567383 C-122.52110352 49.52032227 -121.80954102 48.7249707 -121.07641602 47.90551758 C-90.22677347 15.21676173 -44.04185248 -0.11276719 0 0 Z " fill="#255785" transform="translate(1444.232666015625,172.684326171875)"/>
<path d="M0 0 C1.12789669 0.00436926 1.12789669 0.00436926 2.27857918 0.00882679 C3.07164276 0.00797237 3.86470634 0.00711794 4.68180215 0.00623763 C7.35970838 0.00458041 10.03755303 0.01010812 12.71545357 0.01555592 C14.6269068 0.01583776 16.53836014 0.01568011 18.44981331 0.01511341 C23.65620902 0.01482534 28.8625819 0.0207237 34.06897229 0.02768737 C39.50357601 0.03391923 44.9381802 0.03452457 50.37278694 0.03571278 C60.671722 0.03882659 70.9706465 0.04704065 81.26957691 0.05706227 C92.991262 0.06822186 104.71294758 0.07373346 116.43463665 0.0787577 C140.55420844 0.08922323 164.67377084 0.10682363 188.79333442 0.12908131 C188.18689523 4.54847387 187.45656332 8.74323683 186.22692817 13.03264576 C185.90989937 14.14682377 185.59287056 15.26100178 185.26623482 16.40894276 C184.75371162 18.18273556 184.75371162 18.18273556 184.23083442 19.99236256 C183.70380928 21.83485836 183.70380928 21.83485836 183.16613716 23.7145763 C182.42522695 26.3013965 181.68261694 28.88764806 180.93688911 31.47307545 C179.98070945 34.7884245 179.03038463 38.10541563 178.08207649 41.42302376 C177.17564186 44.59263418 176.26572581 47.76124302 175.35583442 50.92986256 C174.84331123 52.71883709 174.84331123 52.71883709 174.32043403 54.54395252 C174.00340523 55.64236973 173.68637642 56.74078694 173.35974067 57.87248951 C173.08073921 58.84176884 172.80173774 59.81104817 172.51428169 60.80969959 C171.79333442 63.12908131 171.79333442 63.12908131 170.79333442 65.12908131 C151.32333442 65.12908131 131.85333442 65.12908131 111.79333442 65.12908131 C110.47333442 70.40908131 109.15333442 75.68908131 107.79333442 81.12908131 C105.36362118 89.98196028 105.36362118 89.98196028 104.47270149 93.11757618 C104.17406228 94.17031035 104.17406228 94.17031035 103.86938995 95.24431187 C103.66253381 95.97327797 103.45567768 96.70224407 103.24255317 97.45330006 C102.79451391 99.03895028 102.34667006 100.62465573 101.89900154 102.21041065 C100.68346096 106.5135709 99.46477809 110.81583534 98.24542183 115.11791569 C97.21463796 118.75614067 96.18569079 122.39488411 95.15669006 126.03361374 C81.09649281 175.74935627 66.94026975 225.43797098 52.79333442 275.12908131 C28.04333442 275.12908131 3.29333442 275.12908131 -22.20666558 275.12908131 C-19.95666257 263.8790663 -19.95666257 263.8790663 -18.87484795 260.08797413 C-18.50632415 258.78564398 -18.50632415 258.78564398 -18.13035542 257.45700413 C-17.86662664 256.54006401 -17.60289786 255.6231239 -17.33117729 254.67839772 C-17.04711808 253.67887703 -16.76305887 252.67935635 -16.47039181 251.64954716 C-15.52943412 248.34217297 -14.58291569 245.03641783 -13.63635308 241.73064381 C-12.96378111 239.37096778 -12.29155283 237.01119377 -11.6196447 234.65132862 C-10.00331823 228.9778146 -8.38341711 223.30532884 -6.76183891 217.63331431 C-4.89227873 211.09319135 -3.02715867 204.55180484 -1.16228241 198.01034504 C2.77388958 184.20397538 6.71630267 170.39939263 10.66033882 156.59526783 C12.67551428 149.54203266 14.68949137 142.48845586 16.70300239 135.43474537 C23.39335953 111.99768472 30.08986962 88.56239666 36.79333442 65.12908131 C16.66333442 65.12908131 -3.46666558 65.12908131 -24.20666558 65.12908131 C-21.85464956 55.72101726 -19.51094397 46.39488259 -16.78869683 37.10173756 C-16.48598366 36.06133824 -16.18327049 35.02093891 -15.8713842 33.94901234 C-15.24189873 31.78862372 -14.61090103 29.62867515 -13.97839409 27.4691692 C-13.00608718 24.14689373 -12.04069805 20.82265763 -11.0758062 17.49822193 C-10.45967731 15.38677484 -9.84315592 13.27544222 -9.22619683 11.16423756 C-8.79341172 9.67235668 -8.79341172 9.67235668 -8.35188347 8.1503368 C-7.95092713 6.78642056 -7.95092713 6.78642056 -7.54187065 5.39495045 C-7.30744759 4.59271549 -7.07302452 3.79048054 -6.83149773 2.96393543 C-5.57701087 -0.71993451 -3.58226405 0.01052343 0 0 Z " fill="#C44A1C" transform="translate(1800.2066655755043,178.8709186911583)"/>
<path d="M0 0 C0.33 0 0.66 0 1 0 C0.97905273 0.73935791 0.95810547 1.47871582 0.93652344 2.24047852 C0.29550089 28.31751934 4.31081144 48.3858837 21 69 C21.59039062 69.75410156 22.18078125 70.50820313 22.7890625 71.28515625 C41.78999412 94.20755673 72.35376736 106.73581796 99.71435547 116.18139648 C102.16919782 117.06059819 104.58127266 118.02637449 107 119 C106.30554697 129.80773209 104.77576441 140.48521364 103.27734375 151.203125 C103.00944752 153.13649652 102.74183858 155.06990787 102.47450256 157.00335693 C101.7753891 162.05392765 101.07241345 167.10395324 100.36859131 172.15386963 C99.64896169 177.32230395 98.9330424 182.49125207 98.21679688 187.66015625 C96.81479835 197.77393952 95.40871306 207.88714995 94 218 C91 218 91 218 88.65917969 216.015625 C87.75586914 215.10296875 86.85255859 214.1903125 85.921875 213.25 C85.43221252 212.75846436 84.94255005 212.26692871 84.43804932 211.76049805 C83.39902909 210.71474676 82.36361739 209.6653998 81.33154297 208.61279297 C79.77669255 207.02721997 78.21183895 205.45215635 76.64453125 203.87890625 C71.22770755 198.41956245 66.00356265 192.84269097 61 187 C59.5867645 185.4551874 58.17059591 183.91304675 56.75 182.375 C51.16663115 176.17021067 46.05464308 169.63491598 41 163 C40.44618652 162.27603027 39.89237305 161.55206055 39.32177734 160.80615234 C30.8015366 149.61961665 22.9599703 138.22257307 16 126 C15.53996582 125.19900879 15.07993164 124.39801758 14.60595703 123.57275391 C-3.56539827 91.57686734 -14.98825108 53.45115012 -5.71386719 16.68725586 C-4.13598727 11.01752711 -2.25160682 5.43739094 0 0 Z " fill="#B5421C" transform="translate(145,513)"/>
<path d="M0 0 C8.58 0 17.16 0 26 0 C30.01706175 15.58619959 33.490605 31.29353402 37 47 C37.30180176 46.14470703 37.60360352 45.28941406 37.91455078 44.40820312 C48.56015682 14.26121049 48.56015682 14.26121049 54 0 C61.59 0 69.18 0 77 0 C76.33993976 3.3003012 75.74516536 5.98269637 74.62402344 9.06713867 C74.34528381 9.83908066 74.06654419 10.61102264 73.77935791 11.40635681 C73.47576355 12.23518875 73.17216919 13.06402069 72.859375 13.91796875 C72.54047302 14.79655045 72.22157104 15.67513214 71.89300537 16.58033752 C70.84936702 19.45087793 69.79998089 22.31927405 68.75 25.1875 C68.21693237 26.64923645 68.21693237 26.64923645 67.6730957 28.14050293 C60.97671129 46.50245601 54.05817395 64.77444125 47 83 C38.75 83 30.5 83 22 83 C20.91377942 78.55707403 19.82882743 74.11387259 18.74682617 69.66992188 C18.3800096 68.16486915 18.01251992 66.65998028 17.64428711 65.15527344 C15.27373972 55.46610564 13.028061 45.76776431 11 36 C9.31591751 38.52612374 8.4016393 40.36165608 7.41186523 43.16430664 C7.11493271 43.99849625 6.81800018 44.83268585 6.5120697 45.69215393 C6.19742264 46.5890947 5.88277557 47.48603546 5.55859375 48.41015625 C5.23085464 49.33340195 4.90311554 50.25664764 4.56544495 51.20787048 C3.5188987 54.15805002 2.47795958 57.11016894 1.4375 60.0625 C0.39248962 63.01804372 -0.65368207 65.9731699 -1.70115662 68.92784119 C-2.35276766 70.7669051 -3.00276553 72.60654152 -3.65101624 74.4467926 C-3.9447966 75.27783005 -4.23857697 76.10886749 -4.54125977 76.96508789 C-4.92859032 78.06404137 -4.92859032 78.06404137 -5.32374573 79.18519592 C-6 81 -6 81 -7 83 C-14.59 83 -22.18 83 -30 83 C-26.62489648 71.74965492 -26.62489648 71.74965492 -24.8269043 66.88623047 C-24.22563972 65.25305374 -24.22563972 65.25305374 -23.61222839 63.58688354 C-23.18718521 62.44188385 -22.76214203 61.29688416 -22.32421875 60.1171875 C-21.87657669 58.90410919 -21.42893463 57.69103088 -20.96772766 56.44119263 C-19.7841697 53.23410193 -18.59693427 50.02838489 -17.40893555 46.82293701 C-16.21877825 43.60941163 -15.03248802 40.39445948 -13.84570312 37.1796875 C-9.26388068 24.77384621 -4.65896422 12.37708084 0 0 Z " fill="#C44A1C" transform="translate(2909,511)"/>
<path d="M0 0 C0.93392578 -0.02449219 1.86785156 -0.04898437 2.83007812 -0.07421875 C12.09532654 -0.11279716 20.14838056 2.74253757 27.4296875 8.53515625 C33.39429263 14.77810962 35.44368136 22.85936106 35.32128906 31.28271484 C34.32497988 46.86368146 27.00072739 59.50405075 16.1875 70.375 C15.41019531 71.20451172 15.41019531 71.20451172 14.6171875 72.05078125 C4.4281016 81.94646415 -10.07766018 86.33049968 -23.875 86.625 C-34.00569114 86.43861283 -42.8245241 84.72373664 -50.60546875 77.7734375 C-56.41970605 71.48544753 -58.79943493 63.86729709 -58.8125 55.375 C-57.64273496 38.82814186 -50.54168349 25.66867485 -38.75 14.125 C-27.76399901 4.86343303 -14.21323779 0.01937728 0 0 Z M-24.8125 29.375 C-31.2176325 36.39014512 -34.46752643 43.4777987 -34.0859375 53.046875 C-33.67839381 56.51681839 -32.94021725 58.5823711 -30.8125 61.375 C-26.3159847 64.75266407 -21.69141385 66.05164747 -16.1015625 65.75390625 C-7.54594467 64.3377033 -0.46537554 59.16824024 4.7265625 52.35546875 C9.27549547 45.39905955 11.28546812 38.71142465 10.1875 30.375 C8.00586248 25.93092357 5.74341707 23.34232783 1.1875 21.375 C-8.80072289 19.00491321 -17.48505576 22.39423054 -24.8125 29.375 Z " fill="#C44A1C" transform="translate(2756.8125,509.625)"/>
<path d="M0 0 C0.93392578 -0.02449219 1.86785156 -0.04898437 2.83007812 -0.07421875 C12.16663772 -0.11309408 21.33245516 2.78226555 28.1875 9.375 C34.04470934 16.61862325 35.71827082 24.17989685 35.1875 33.375 C32.62986408 48.3747824 27.00044181 59.50433786 16.1875 70.375 C15.41019531 71.20451172 15.41019531 71.20451172 14.6171875 72.05078125 C4.26608149 82.10381876 -10.3318143 86.31039859 -24.3125 86.6875 C-33.83081955 86.53413332 -42.36295363 84.57762659 -49.8125 78.375 C-56.36240943 71.33020852 -58.67797588 63.89930736 -58.8125 54.375 C-57.64368021 38.35783998 -50.10979388 25.24586896 -38.75 14.125 C-27.76399901 4.86343303 -14.21323779 0.01937728 0 0 Z M-27.5625 32.125 C-32.55949357 39.3428796 -35.01580976 46.57103745 -33.8125 55.375 C-32.54750677 59.64435216 -30.96498238 61.5828388 -27.1875 63.75 C-21.87742726 66.06041556 -17.08440389 66.31860368 -11.5234375 64.71484375 C-1.3362173 60.67146254 5.0361704 53.27791246 9.5 43.5 C10.79909494 37.595023 11.20432042 32.44630085 8.5 26.9375 C4.65336497 22.67501253 1.24267669 20.8312727 -4.57421875 20.31640625 C-14.168224 20.56755822 -21.03200628 25.59450628 -27.5625 32.125 Z " fill="#C44A1C" transform="translate(1952.8125,509.625)"/>
<path d="M0 0 C35.96047588 0.02859112 35.96047588 0.02859112 44.93481445 9.00292969 C51.65967426 18.80201112 52.13992075 28.49477128 50.05981445 39.87792969 C46.44914598 55.31894507 38.561663 66.88781247 25.30981445 75.62792969 C10.29091644 83.86333177 -6.53837978 83.34851929 -23.12768555 83.25292969 C-24.66284032 83.24790012 -26.19799671 83.24333981 -27.7331543 83.23925781 C-31.44803224 83.22837808 -35.16284814 83.21119546 -38.87768555 83.19042969 C-38.21853731 77.65133103 -36.40210746 72.77979343 -34.44799805 67.59667969 C-33.92814835 66.19786812 -33.92814835 66.19786812 -33.39779663 64.77079773 C-32.27106527 61.7421289 -31.13695851 58.71628121 -30.00268555 55.69042969 C-29.22804544 53.61291717 -28.45395924 51.53519803 -27.68041992 49.45727539 C-26.51807004 46.33504855 -25.35536709 43.21295978 -24.19061279 40.09162903 C-21.88375043 33.90751355 -19.5967518 27.71672241 -17.33862305 21.51464844 C-17.07937042 20.80313629 -16.8201178 20.09162415 -16.55300903 19.35855103 C-15.59478327 16.72706644 -14.63727489 14.09533692 -13.68438721 11.46191406 C-13.05323393 9.71823016 -12.41869377 7.97577326 -11.78393555 6.23339844 C-11.4365332 5.27457764 -11.08913086 4.31575684 -10.73120117 3.32788086 C-8.82418701 -1.4478368 -4.59860262 0.03005836 0 0 Z M7.12231445 19.19042969 C3.51292542 27.62290569 0.199253 36.1379507 -2.95458984 44.74829102 C-3.70150911 46.78378856 -4.45646042 48.81619862 -5.21166992 50.84863281 C-5.69067136 52.15118864 -6.16920511 53.45391657 -6.6472168 54.75683594 C-7.07623291 55.92158447 -7.50524902 57.08633301 -7.94726562 58.28637695 C-9.03024044 61.15834502 -9.03024044 61.15834502 -8.87768555 64.19042969 C0.95252514 64.75514392 9.53397673 63.37763533 17.3059082 56.97167969 C24.32701875 50.0864616 27.71736641 41.62674821 28.2512207 31.82324219 C28.03027589 28.27473454 27.12489357 26.19402482 25.05981445 23.31542969 C19.51354896 19.30323763 13.80605002 18.91194071 7.12231445 19.19042969 Z " fill="#C44A1C" transform="translate(467.877685546875,510.8095703125)"/>
<path d="M0 0 C7.26 0 14.52 0 22 0 C20.87541185 7.87211707 20.87541185 7.87211707 19.43359375 11.59912109 C19.11656494 12.43043549 18.79953613 13.26174988 18.47290039 14.11825562 C18.13121826 14.99446564 17.78953613 15.87067566 17.4375 16.7734375 C16.7159932 18.66921275 15.9946439 20.56504795 15.2734375 22.4609375 C14.13791304 25.41997487 12.99897752 28.3776457 11.85644531 31.33398438 C10.7494376 34.20627231 9.65543609 37.08327135 8.5625 39.9609375 C8.22081787 40.83309906 7.87913574 41.70526062 7.52709961 42.60385132 C5.51202517 47.92785978 3.83652325 53.24187032 4 59 C5.31379818 61.73061576 5.31379818 61.73061576 8 63 C11.99922757 63.59247816 14.3236794 63.30998028 18 61.625 C25.28777482 55.24819703 29.3509995 46.798692 32.875 37.9375 C33.49737549 36.41092773 33.49737549 36.41092773 34.13232422 34.85351562 C38.76160622 23.36181823 42.91146228 11.69282284 47 0 C54.59 0 62.18 0 70 0 C67.74908117 10.12913475 67.74908117 10.12913475 66.43115234 13.71508789 C66.13679291 14.52365738 65.84243347 15.33222687 65.53915405 16.16529846 C65.22459259 17.00922653 64.91003113 17.8531546 64.5859375 18.72265625 C64.25260406 19.62640488 63.91927063 20.5301535 63.57583618 21.46128845 C62.87111496 23.3658531 62.16333151 25.2692872 61.45263672 27.17163086 C60.3884175 30.0265062 59.34016079 32.88688936 58.29296875 35.74804688 C55.11385922 44.34925663 51.81682249 52.82890702 47.7421875 61.05078125 C47.42865326 61.6865358 47.11511902 62.32229034 46.79208374 62.97731018 C41.55728356 73.16562347 33.54297786 78.93475569 23 83 C17.50568226 84.7504597 12.31407084 85.35764885 6.5625 85.3125 C5.81822754 85.30758545 5.07395508 85.3026709 4.30712891 85.29760742 C-4.26758177 85.11478776 -11.66189014 83.06253987 -18 77 C-21.60115292 71.59827063 -22.40214633 65.78219998 -21.48852539 59.46142578 C-18.73586604 48.94845228 -15.247593 38.78690812 -11.4543457 28.60546875 C-10.4271015 25.8470776 -9.41284437 23.08416265 -8.40039062 20.3203125 C-7.74553212 18.54399768 -7.08995945 16.76794595 -6.43359375 14.9921875 C-6.13351913 14.17652313 -5.83344452 13.36085876 -5.52427673 12.52047729 C-5.23710281 11.75172272 -4.94992889 10.98296814 -4.65405273 10.19091797 C-4.406306 9.52414032 -4.15855927 8.85736267 -3.90330505 8.17037964 C-2.74353844 5.38379737 -1.34982216 2.69964432 0 0 Z " fill="#C44A1C" transform="translate(2255,511)"/>
<path d="M0 0 C4.19513465 -0.05014413 8.3901018 -0.08606394 12.58544922 -0.10986328 C14.00702968 -0.1198044 15.42859036 -0.13336208 16.85009766 -0.15087891 C41.63065639 -0.44817566 41.63065639 -0.44817566 49 6 C53.35694676 10.71021271 54.40082914 14.18793181 54.26953125 20.59765625 C53.20718156 30.06642524 49.39513841 37.95268521 42 44 C36.79823927 47.2210903 32.19756283 50 26 50 C26.36351562 50.9286084 26.72703125 51.8572168 27.1015625 52.81396484 C28.44675891 56.25291074 29.78752848 59.69356805 31.12695312 63.13476562 C31.7077731 64.62514709 32.28979968 66.11505891 32.87304688 67.60449219 C33.71019528 69.74292231 34.54301894 71.88299257 35.375 74.0234375 C35.63748535 74.69120209 35.8999707 75.35896667 36.17041016 76.04696655 C38 80.77225659 38 80.77225659 38 83 C29.42 83 20.84 83 12 83 C9.36 74.09 6.72 65.18 4 56 C2.08845937 58.86731094 1.02673637 61.3278118 -0.1640625 64.54296875 C-0.56367187 65.61611328 -0.96328125 66.68925781 -1.375 67.79492188 C-1.7875 68.91447266 -2.2 70.03402344 -2.625 71.1875 C-3.04523438 72.31865234 -3.46546875 73.44980469 -3.8984375 74.61523438 C-4.93573989 77.40887832 -5.96832009 80.20427482 -7 83 C-14.59 83 -22.18 83 -30 83 C-28.08437605 75.97604551 -26.15267903 69.3019648 -23.59375 62.5390625 C-23.27220947 61.67754074 -22.95066895 60.81601898 -22.61938477 59.9283905 C-21.58430453 57.15880149 -20.54231474 54.39187348 -19.5 51.625 C-18.78283763 49.71066748 -18.06604358 47.79619695 -17.34960938 45.8815918 C-15.24072505 40.25150267 -13.12228026 34.62505157 -11 29 C-10.69143066 28.1820697 -10.38286133 27.3641394 -10.06494141 26.52142334 C-6.72606088 17.67481094 -3.37271772 8.83377519 0 0 Z M17 17 C14.03584181 23.9241798 11.27435204 30.81783567 9 38 C15.13095959 38.33441598 20.47599899 37.89248872 26 35 C29.61146375 31.02738987 31 27.38088173 31 22 C28.82946501 19.05427395 27.47817177 18.15939059 24 17 C21.66700175 16.96045766 19.33291811 16.95598268 17 17 Z " fill="#C44A1C" transform="translate(1397,511)"/>
<path d="M0 0 C0.33 0 0.66 0 1 0 C1.00257813 0.92296875 1.00515625 1.8459375 1.0078125 2.796875 C1.65677258 24.68846158 9.60913412 44.51966279 24 61 C24.51691406 61.66 25.03382813 62.32 25.56640625 63 C43.82104393 85.69248192 75.06651391 97.9818764 101.71435547 107.18139648 C104.16917473 108.06058992 106.58448265 109.01847931 109 110 C108.37631512 118.98356116 107.25299295 127.84369439 105.9375 136.75 C105.75123047 138.03132812 105.56496094 139.31265625 105.37304688 140.6328125 C104.91859746 143.75569563 104.46086118 146.87805781 104 150 C96.85793478 147.83684883 90.46722925 144.9184177 83.875 141.4375 C82.86453613 140.90592285 81.85407227 140.3743457 80.81298828 139.82666016 C72.49352883 135.38510593 64.61806193 130.55320736 57 125 C56.16251221 124.39357666 56.16251221 124.39357666 55.30810547 123.77490234 C26.44470162 102.69751655 4.84318705 75.8665507 -2.3125 40.1875 C-4.01322264 28.33103357 -3.92455867 15.63419326 -1 4 C-0.81308594 3.24589844 -0.62617188 2.49179687 -0.43359375 1.71484375 C-0.29050781 1.14894531 -0.14742187 0.58304688 0 0 Z " fill="#D47112" transform="translate(143,522)"/>
<path d="M0 0 C7.92 0 15.84 0 24 0 C24.33 16.83 24.66 33.66 25 51 C27.31 47.37 29.62 43.74 32 40 C33.84621404 37.22362264 35.69929554 34.4558306 37.57421875 31.69921875 C38.06533646 30.97434769 38.55645416 30.24947662 39.06245422 29.50263977 C40.60268211 27.22993644 42.14500807 24.95866716 43.6875 22.6875 C45.24022901 20.39816118 46.79252062 18.1085264 48.34468079 15.81880188 C49.30257241 14.40606412 50.26086923 12.99360097 51.21965027 11.58146667 C51.6572316 10.9367189 52.09481293 10.29197113 52.5456543 9.62768555 C52.96638214 9.01739502 53.38710999 8.40710449 53.82058716 7.77832031 C54.94241317 6.0868295 55.95368062 4.32353486 56.95727539 2.55932617 C59 0 59 0 61.74902344 -0.68115234 C62.77543945 -0.64973145 63.80185547 -0.61831055 64.859375 -0.5859375 C65.97441406 -0.56660156 67.08945313 -0.54726563 68.23828125 -0.52734375 C69.97658203 -0.45193359 69.97658203 -0.45193359 71.75 -0.375 C73.51150391 -0.33439453 73.51150391 -0.33439453 75.30859375 -0.29296875 C78.2075816 -0.22226173 81.1028647 -0.12361956 84 0 C83.38503677 3.55839859 81.9625664 5.66545756 79.75390625 8.4921875 C79.08681641 9.35457031 78.41972656 10.21695313 77.73242188 11.10546875 C77.01634766 12.01941406 76.30027344 12.93335938 75.5625 13.875 C74.0830055 15.78780292 72.60513769 17.70186515 71.12890625 19.6171875 C70.41234863 20.5462793 69.69579102 21.47537109 68.95751953 22.43261719 C66.1654129 26.09460188 63.51485727 29.84171275 60.86938477 33.61083984 C56.38541782 39.94822919 51.62577162 46.07558547 46.90258789 52.23535156 C42.99202986 57.34783588 39.15940428 62.49890718 35.4375 67.75 C35.03321777 68.30316895 34.62893555 68.85633789 34.21240234 69.42626953 C32.45671182 71.84025176 30.90292235 74.1899911 29.54296875 76.8515625 C27.86480095 79.83805396 26.91166674 81.1417091 24 83 C20.57081192 83.44889037 17.19299126 83.34057118 13.7421875 83.2265625 C12.80689209 83.21020752 11.87159668 83.19385254 10.90795898 83.17700195 C8.60444539 83.13437152 6.30265598 83.07481697 4 83 C3.47312163 74.39327881 2.95122699 65.78627502 2.43539429 57.17888546 C2.19562714 53.18055071 1.9542542 49.18232744 1.70898438 45.18432617 C1.47158745 41.31362817 1.23870497 37.4426808 1.00872803 33.57153511 C0.92099087 32.10735255 0.8317277 30.64326047 0.74078369 29.17927361 C0.13666241 19.43293322 -0.08240523 9.76244489 0 0 Z " fill="#C44A1C" transform="translate(1060,511)"/>
<path d="M0 0 C-1.5194373 4.8603687 -4.32918654 8.06079356 -7.625 11.8125 C-8.140625 12.40998047 -8.65625 13.00746094 -9.1875 13.62304688 C-10.45246272 15.08712409 -11.72543834 16.54427155 -13 18 C-13.58007812 17.57847656 -14.16015625 17.15695312 -14.7578125 16.72265625 C-20.80693011 12.30879209 -20.80693011 12.30879209 -28 11 C-30.87502253 11.97477807 -30.87502253 11.97477807 -33 14 C-33.88658466 16.59122743 -33.88658466 16.59122743 -34 19 C-30.98235571 21.53092747 -27.88773818 23.71737527 -24.5625 25.8125 C-19.41617825 29.19755971 -14.98379644 33.04861067 -13 39 C-12.35552953 48.18370414 -14.70325623 56.31144296 -20.07421875 63.828125 C-25.97774046 70.48605212 -33.35113226 75.01332939 -42 77 C-42.94875 77.226875 -43.8975 77.45375 -44.875 77.6875 C-54.47730002 78.64773 -63.77652836 78.89583926 -71.8125 72.90234375 C-78.70678858 66.87963427 -78.70678858 66.87963427 -80 63 C-79.15695312 62.09636719 -78.31390625 61.19273437 -77.4453125 60.26171875 C-76.33843161 59.07041474 -75.23166684 57.87900285 -74.125 56.6875 C-73.56941406 56.09259766 -73.01382812 55.49769531 -72.44140625 54.88476562 C-71.90644531 54.30791016 -71.37148437 53.73105469 -70.8203125 53.13671875 C-70.32805176 52.60780029 -69.83579102 52.07888184 -69.32861328 51.53393555 C-67.79418204 49.82718765 -67.79418204 49.82718765 -66 47 C-62.29115966 48.68731857 -59.6722904 50.9377132 -56.68359375 53.66015625 C-53.24241896 56.39872458 -49.44493813 56.38093781 -45.23046875 56.3671875 C-41.70836426 55.78736645 -40.11363738 53.72727404 -38 51 C-40.26144296 43.59891394 -47.39075641 40.29102675 -53.4765625 36.09765625 C-56.93471166 33.22300285 -58.67236565 30.74992302 -59.50390625 26.30859375 C-59.70473106 16.4681782 -56.45672052 8.48294308 -49.875 1.125 C-34.74535408 -12.62309696 -15.62032512 -11.65864846 0 0 Z " fill="#C44A1C" transform="translate(1806,518)"/>
<path d="M0 0 C15.84 0 31.68 0 48 0 C45 11 45 11 41 20 C28.625 20.495 28.625 20.495 16 21 C14.68 24.63 13.36 28.26 12 32 C19.26 32 26.52 32 34 32 C32.84726043 38.9164374 30.58965475 44.49266242 28 51 C20.08 51 12.16 51 4 51 C3.01 54.3 2.02 57.6 1 61 C0.67 61.99 0.34 62.98 0 64 C7.92 64 15.84 64 24 64 C22 73 22 73 18 83 C2.16 83 -13.68 83 -30 83 C-29.33993976 79.6996988 -28.74516536 77.01730363 -27.62402344 73.93286133 C-27.205914 72.77494835 -27.205914 72.77494835 -26.77935791 71.59364319 C-26.47576355 70.76481125 -26.17216919 69.93597931 -25.859375 69.08203125 C-25.54047302 68.20344955 -25.22157104 67.32486786 -24.89300537 66.41966248 C-23.84936702 63.54912207 -22.79998089 60.68072595 -21.75 57.8125 C-21.39462158 56.83800903 -21.03924316 55.86351807 -20.6730957 54.85949707 C-13.97611773 36.49591643 -7.03832774 18.23566732 0 0 Z " fill="#C44A1C" transform="translate(1243,511)"/>
<path d="M0 0 C15.84 0 31.68 0 48 0 C45 11 45 11 41 20 C28.625 20.495 28.625 20.495 16 21 C14.68 24.63 13.36 28.26 12 32 C19.26 32 26.52 32 34 32 C32 41 32 41 28 51 C20.08 51 12.16 51 4 51 C3.01 54.3 2.02 57.6 1 61 C0.67 61.99 0.34 62.98 0 64 C7.92 64 15.84 64 24 64 C22 73 22 73 18 83 C2.16 83 -13.68 83 -30 83 C-29.33993976 79.6996988 -28.74516536 77.01730363 -27.62402344 73.93286133 C-27.205914 72.77494835 -27.205914 72.77494835 -26.77935791 71.59364319 C-26.47576355 70.76481125 -26.17216919 69.93597931 -25.859375 69.08203125 C-25.54047302 68.20344955 -25.22157104 67.32486786 -24.89300537 66.41966248 C-23.84936702 63.54912207 -22.79998089 60.68072595 -21.75 57.8125 C-21.39462158 56.83800903 -21.03924316 55.86351807 -20.6730957 54.85949707 C-13.97611773 36.49591643 -7.03832774 18.23566732 0 0 Z " fill="#C44A1C" transform="translate(637,511)"/>
<path d="M0 0 C8.25 0 16.5 0 25 0 C26.23967693 3.71903078 27.28676244 6.9426624 28.03515625 10.70703125 C28.20466797 11.54041016 28.37417969 12.37378906 28.54882812 13.23242188 C28.71833984 14.08384766 28.88785156 14.93527344 29.0625 15.8125 C29.4040838 17.52803797 29.74895663 19.24292548 30.09765625 20.95703125 C30.32207397 22.08588745 30.32207397 22.08588745 30.55102539 23.23754883 C30.84384507 25.01406705 30.84384507 25.01406705 32 26 C32.34321289 25.51966309 32.68642578 25.03932617 33.04003906 24.54443359 C36.93402495 19.21114187 41.19284942 14.39702605 45.75 9.625 C46.75740234 8.55958984 46.75740234 8.55958984 47.78515625 7.47265625 C54.84830623 0.01317721 54.84830623 0.01317721 57.61376953 -0.22705078 C58.69255371 -0.21657715 59.77133789 -0.20610352 60.8828125 -0.1953125 C62.63271484 -0.18564453 62.63271484 -0.18564453 64.41796875 -0.17578125 C65.64128906 -0.15902344 66.86460938 -0.14226562 68.125 -0.125 C69.35605469 -0.11597656 70.58710937 -0.10695313 71.85546875 -0.09765625 C74.90383815 -0.07402548 77.95182382 -0.04108054 81 0 C79.58405585 1.65769071 78.1664263 3.31396313 76.74169922 4.96411133 C75.67039906 6.2163642 74.61166613 7.47966351 73.57470703 8.76049805 C69.73663654 13.38773363 65.46308963 17.33717278 60.9921875 21.33203125 C42.18084171 38.37823225 31.49851428 53.46319087 24.81494141 78.05200195 C24 81 24 81 23 83 C15.41 83 7.82 83 0 83 C3.34846462 71.83845127 3.34846462 71.83845127 5.296875 66.8359375 C5.69777344 65.77632812 6.09867188 64.71671875 6.51171875 63.625 C7.34183027 61.44628459 8.18311901 59.27179717 9.03515625 57.1015625 C9.43089844 56.04453125 9.82664062 54.9875 10.234375 53.8984375 C10.59756836 52.95661621 10.96076172 52.01479492 11.33496094 51.04443359 C12.82836132 44.20790541 10.45953165 37.51138972 8.49609375 30.9765625 C8.2533522 30.14917572 8.01061066 29.32178894 7.76051331 28.46932983 C6.99198974 25.85279719 6.21527218 23.23879687 5.4375 20.625 C4.65740227 17.98943731 3.87908835 15.35337432 3.10377502 12.71640015 C2.62274154 11.08172582 2.13873551 9.4479227 1.651474 7.81509399 C0 2.22280717 0 2.22280717 0 0 Z " fill="#C44A1C" transform="translate(1547,511)"/>
<path d="M0 0 C19.14 0 38.28 0 58 0 C56.81107208 7.13356752 54.49653728 13.2145397 52 20 C46.06 20.33 40.12 20.66 34 21 C33.48091064 22.41627686 32.96182129 23.83255371 32.42700195 25.29174805 C30.48044556 30.60186094 28.53253081 35.91147473 26.58422852 41.22094727 C25.74499702 43.50857407 24.90612228 45.79633178 24.06762695 48.08422852 C15.49343775 71.47813008 15.49343775 71.47813008 11 83 C3.41 83 -4.18 83 -12 83 C-11.25842829 79.29214146 -10.45780694 76.23763757 -9.17407227 72.73828125 C-8.61327721 71.20143677 -8.61327721 71.20143677 -8.04115295 69.63354492 C-7.43490334 67.98962769 -7.43490334 67.98962769 -6.81640625 66.3125 C-6.40083969 65.17723877 -5.98527313 64.04197754 -5.55711365 62.87231445 C-4.22898336 59.2469497 -2.8957145 55.62349771 -1.5625 52 C-0.66830182 49.56001234 0.22558202 47.11990946 1.11914062 44.6796875 C2.75918241 40.2063676 4.39931793 35.7330856 6.04467773 31.26171875 C6.37475327 30.36412842 6.7048288 29.46653809 7.04490662 28.54174805 C7.99463301 26.01428295 8.99724104 23.50689739 10 21 C4.39 20.67 -1.22 20.34 -7 20 C-5.01086934 13.03804268 -2.7259591 6.81489775 0 0 Z " fill="#C44A1C" transform="translate(2426,511)"/>
<path d="M0 0 C7.59 0 15.18 0 23 0 C22.25885302 4.44688187 21.51123898 7.71276869 19.95874023 11.82177734 C19.53837997 12.94248627 19.11801971 14.06319519 18.68492126 15.21786499 C18.23073318 16.41182892 17.7765451 17.60579285 17.30859375 18.8359375 C16.84389175 20.07042633 16.37918976 21.30491516 15.90040588 22.57681274 C14.67063142 25.8435425 13.43429269 29.10774885 12.1965332 32.37145996 C10.93235809 35.70836993 9.67439796 39.0476209 8.41601562 42.38671875 C5.95069275 48.92703945 3.47510692 55.46334229 1 62 C9.58 62 18.16 62 27 62 C26 68 26 68 20 83 C3.5 83 -13 83 -30 83 C-26.62489648 71.74965492 -26.62489648 71.74965492 -24.8269043 66.88623047 C-24.22563972 65.25305374 -24.22563972 65.25305374 -23.61222839 63.58688354 C-23.18718521 62.44188385 -22.76214203 61.29688416 -22.32421875 60.1171875 C-21.87657669 58.90410919 -21.42893463 57.69103088 -20.96772766 56.44119263 C-19.7841697 53.23410193 -18.59693427 50.02838489 -17.40893555 46.82293701 C-16.21877825 43.60941163 -15.03248802 40.39445948 -13.84570312 37.1796875 C-9.26388068 24.77384621 -4.65896422 12.37708084 0 0 Z " fill="#C44A1C" transform="translate(2105,511)"/>
<path d="M0 0 C7.59 0 15.18 0 23 0 C19.62509904 12.37463685 19.62509904 12.37463685 18.02294922 16.60742188 C17.48757034 18.03314514 17.48757034 18.03314514 16.94137573 19.4876709 C16.37871506 20.96330505 16.37871506 20.96330505 15.8046875 22.46875 C15.21531906 24.03284607 15.21531906 24.03284607 14.61404419 25.62854004 C13.37238433 28.92082044 12.12390448 32.21046187 10.875 35.5 C9.62051881 38.81867734 8.36742189 42.13787477 7.11453247 45.45715332 C6.33785901 47.51321252 5.5599686 49.56881252 4.7807312 51.62390137 C4.43011627 52.54916626 4.07950134 53.47443115 3.71826172 54.42773438 C3.40976288 55.24060913 3.10126404 56.05348389 2.78341675 56.89099121 C2.15531567 58.58188011 1.57040479 60.28878563 1 62 C9.58 62 18.16 62 27 62 C24.87976114 69.06746288 22.52160173 76.06559525 20 83 C3.5 83 -13 83 -30 83 C-28.08437605 75.97604551 -26.15267903 69.3019648 -23.59375 62.5390625 C-23.27220947 61.67754074 -22.95066895 60.81601898 -22.61938477 59.9283905 C-21.58430453 57.15880149 -20.54231474 54.39187348 -19.5 51.625 C-18.78283763 49.71066748 -18.06604358 47.79619695 -17.34960938 45.8815918 C-15.24072505 40.25150267 -13.12228026 34.62505157 -11 29 C-10.69143066 28.1820697 -10.38286133 27.3641394 -10.06494141 26.52142334 C-6.7260563 17.6747988 -3.37095096 8.83446258 0 0 Z " fill="#C44A1C" transform="translate(791,511)"/>
<path d="M0 0 C7.59 0 15.18 0 23 0 C21.8750456 7.87468077 21.8750456 7.87468077 20.39282227 11.77246094 C20.06448395 12.64663162 19.73614563 13.52080231 19.39785767 14.42146301 C19.0409787 15.34972397 18.68409973 16.27798492 18.31640625 17.234375 C17.9448642 18.21818649 17.57332214 19.20199799 17.19052124 20.21562195 C15.98777245 23.39629069 14.77524508 26.57313094 13.5625 29.75 C12.73762197 31.92558195 11.91348601 34.1014454 11.09008789 36.27758789 C9.86514139 39.51461173 8.63968353 42.75143 7.41142273 45.98719788 C5.11931342 52.02714467 2.84701783 58.073498 0.6171875 64.13671875 C0.37864548 64.7851474 0.14010345 65.43357605 -0.10566711 66.10165405 C-1.16391768 68.98211359 -2.21803504 71.86404925 -3.26928711 74.74707031 C-3.80307983 76.20064941 -3.80307983 76.20064941 -4.34765625 77.68359375 C-4.64679932 78.50400146 -4.94594238 79.32440918 -5.25415039 80.16967773 C-6 82 -6 82 -7 83 C-8.70772358 83.08713831 -10.41898649 83.10700007 -12.12890625 83.09765625 C-13.68061523 83.09282227 -13.68061523 83.09282227 -15.26367188 83.08789062 C-16.35228516 83.07951172 -17.44089844 83.07113281 -18.5625 83.0625 C-20.2012207 83.05573242 -20.2012207 83.05573242 -21.87304688 83.04882812 C-24.58208759 83.03699825 -27.29100822 83.01967721 -30 83 C-27.97175419 75.93736046 -25.63782927 69.0377009 -23.0859375 62.1484375 C-22.7119986 61.13190094 -22.33805969 60.11536438 -21.95278931 59.06802368 C-20.76297971 55.83598099 -19.56898643 52.60550165 -18.375 49.375 C-17.59739838 47.26311576 -16.82005284 45.15113722 -16.04296875 43.0390625 C-10.75141064 28.67151432 -5.38665313 14.33215293 0 0 Z " fill="#C44A1C" transform="translate(2587,511)"/>
<path d="M0 0 C7.59 0 15.18 0 23 0 C22.30096025 3.49519877 21.61589204 6.32857978 20.40869141 9.60546875 C20.08354553 10.49342636 19.75839966 11.38138397 19.42340088 12.29624939 C18.89284088 13.72741844 18.89284088 13.72741844 18.3515625 15.1875 C17.98270935 16.19095963 17.6138562 17.19441925 17.23382568 18.22828674 C16.03467562 21.48693609 14.83002162 24.74351782 13.625 28 C12.80403548 30.22642075 11.98323503 32.45290201 11.16259766 34.67944336 C5.20536935 50.82347452 -0.83448632 66.93435533 -7 83 C-14.59 83 -22.18 83 -30 83 C-28.75644436 77.40399961 -27.6898144 72.71290438 -25.7409668 67.47729492 C-25.29677902 66.27542038 -24.85259125 65.07354584 -24.39494324 63.83525085 C-23.91322796 62.55025116 -23.43131479 61.26532564 -22.94921875 59.98046875 C-22.44794253 58.63219029 -21.94712219 57.28374227 -21.44673157 55.93513489 C-20.40047055 53.11905154 -19.35035775 50.30444775 -18.29711914 47.4909668 C-16.96025855 43.91961894 -15.630575 40.34565543 -14.30351543 36.77065563 C-13.26994201 33.98746651 -12.23375332 31.20525703 -11.19669533 28.42336464 C-10.70630524 27.10770298 -10.21639894 25.79186087 -9.72702599 24.47582054 C-6.66008728 16.23692002 -3.42847393 8.09538473 0 0 Z " fill="#C44A1C" transform="translate(942,511)"/>
<path d="M0 0 C0.33 0 0.66 0 1 0 C1.97758625 5.45275886 1.97344509 10.42516763 1.5625 15.9375 C1.48418945 17.10635742 1.48418945 17.10635742 1.40429688 18.29882812 C1.27601936 20.19966772 1.13892679 22.09990904 1 24 C0.67 24 0.34 24 0 24 C-2.90909091 5.81818182 -2.90909091 5.81818182 0 0 Z " fill="#204070" transform="translate(4,430)"/>
<path d="M0 0 C0.33 0 0.66 0 1 0 C0.67 8.25 0.34 16.5 0 25 C-0.33 25 -0.66 25 -1 25 C-1.33 21.04 -1.66 17.08 -2 13 C-2.33 13 -2.66 13 -3 13 C-2.52060632 8.28596212 -2.03165952 4.33420699 0 0 Z " fill="#C35A18" transform="translate(145,513)"/>
<path d="M0 0 C3.59844449 1.51642877 5.85713143 3.64973442 8.5625 6.4375 C9.32691406 7.21996094 10.09132812 8.00242187 10.87890625 8.80859375 C11.57886719 9.53175781 12.27882812 10.25492188 13 11 C13.99780462 12.00219057 14.99680002 13.00321025 16 14 C11.1452735 13.58388059 9.19560921 11.54108048 6 8 C5.34 7.34 4.68 6.68 4 6 C2.64837492 4.01231606 1.31306433 2.0133653 0 0 Z " fill="#244671" transform="translate(206,733)"/>
<path d="" fill="#1B1B4E" transform="translate(0,0)"/>
</svg>
