<?xml version="1.0" encoding="UTF-8"?>
<svg version="1.1" xmlns="http://www.w3.org/2000/svg" width="945" height="630">
<path d="M0 0 C311.85 0 623.7 0 945 0 C945 207.9 945 415.8 945 630 C633.15 630 321.3 630 0 630 C0 422.1 0 214.2 0 0 Z " fill="#FFFFFF" transform="translate(0,0)"/>
<path d="M0 0 C20.27731909 -0.54156398 39.7449727 2.53176343 55.91796875 15.6171875 C58.05414696 17.4453401 58.05414696 17.4453401 61.08984375 17.15625 C62.7312505 16.17431109 64.32999163 15.12034547 65.90234375 14.03125 C87.58634504 -0.0819208 113.67447086 -2.67630466 138.67578125 2.07421875 C143.94471004 3.23459594 148.92733784 5.2013198 153.78955078 7.52587891 C155.85049327 8.50090967 155.85049327 8.50090967 159.08984375 9.15625 C162.11244332 7.36358306 162.11244332 7.36358306 165.08984375 5.15625 C167.91221331 4.73992896 170.22424778 4.53306408 173.02734375 4.59375 C173.73592529 4.60470703 174.44450684 4.61566406 175.17456055 4.62695312 C179.75697616 4.81777668 183.43659081 5.18956163 186.75711823 8.51166916 C191.75740877 14.68201847 191.51838696 22.18857255 191.47460938 29.70605469 C191.48266853 31.40527573 191.48266853 31.40527573 191.4908905 33.13882446 C191.50064281 35.58867441 191.50362039 38.0385588 191.50053406 40.48842621 C191.49604081 44.37389991 191.5101009 48.2589218 191.52893066 52.14434814 C191.56667019 60.39829987 191.57955808 68.65222527 191.58984375 76.90625 C191.60176551 86.46152682 191.62362774 96.01657614 191.66984558 105.57175446 C191.68335209 109.38490117 191.67925594 113.19776431 191.67443848 117.01092529 C191.68378642 119.37024284 191.69395707 121.72955733 191.70507812 124.08886719 C191.6989299 125.13654266 191.69278168 126.18421814 191.68644714 127.26364136 C191.77909626 138.53384567 193.92642519 150.17755482 201.46484375 158.90625 C210.37350883 166.54224864 220.45398355 168.80665982 232.11328125 168.4375 C242.02788164 167.50068736 250.4658646 164.78022915 257.61328125 157.6328125 C265.46023797 147.88356324 266.2375882 134.70095807 266.23168945 122.75415039 C266.23516388 121.61359695 266.23863831 120.47304352 266.24221802 119.29792786 C266.24955793 116.8261927 266.2549127 114.35445103 266.25850868 111.8827076 C266.26568817 107.96947537 266.28136485 104.05636749 266.29985046 100.14317322 C266.30618683 98.80045038 266.31251246 97.45772748 266.31882763 96.11500454 C266.32199344 95.44283646 266.32515925 94.77066837 266.328421 94.07813156 C266.37041356 84.97536173 266.40347894 75.87263572 266.41577148 66.76977539 C266.42506004 59.96111234 266.45516664 53.15277488 266.49709129 46.34423637 C266.50940343 43.75154444 266.51452218 41.15880793 266.51229286 38.56608772 C266.50994129 34.93962976 266.53209602 31.31407947 266.55981445 27.68774414 C266.55321304 26.6189502 266.54661163 25.55015625 266.53981018 24.44897461 C266.61903072 18.13414425 267.33702377 14.29587405 271.08984375 9.15625 C275.50061501 5.30855592 279.31141517 4.47067494 285.02734375 4.59375 C286.09021606 4.6090979 286.09021606 4.6090979 287.17456055 4.62475586 C291.01898758 4.78173478 294.14568348 5.10821051 297.40234375 7.21875 C302.37606399 12.65514189 303.46499732 17.50088592 303.46406555 24.73731995 C303.46803996 25.46846242 303.47201436 26.1996049 303.47610921 26.95290321 C303.48568095 29.38620319 303.47394523 31.81891423 303.4621582 34.25219727 C303.46458801 36.00389319 303.46830917 37.75558772 303.47322083 39.50727844 C303.4826124 44.25566071 303.47321629 49.00383618 303.4598887 53.75220227 C303.44854415 58.73445481 303.45268435 63.7166976 303.45463562 68.69895935 C303.45551822 77.07253377 303.44445008 85.44602719 303.42602539 93.81958008 C303.4049067 103.47213779 303.40133784 113.12457647 303.40758735 122.7771526 C303.41330468 132.08737658 303.40760442 141.39755903 303.3964138 150.70777702 C303.39179414 154.65676588 303.39088255 158.60572912 303.39299965 162.55471992 C303.3948988 167.21937416 303.38665508 171.88390923 303.37093925 176.5485363 C303.36673546 178.25035484 303.36581915 179.95218555 303.36862946 181.65400696 C303.39991689 204.0107501 300.47855247 224.97431015 284.43359375 241.875 C267.33930195 258.51344402 245.99296719 262.644436 222.875 262.3671875 C200.13483005 261.75877998 179.94167113 254.22233164 162.796875 239.11328125 C160.04992681 235.96403402 159.13060838 233.17536575 158.96484375 229.03125 C160.16688525 222.3613856 165.76723019 216.25800153 170.63671875 211.8515625 C173.99143282 209.5331773 176.09022178 209.65629725 180.08984375 210.15625 C183.73911234 212.11163985 186.93599764 214.51583671 190.21484375 217.03125 C205.54506981 228.24044755 222.70781663 230.20308635 241.27050781 227.88378906 C249.38508968 226.40345449 255.96461016 222.6319771 261.08984375 216.15625 C264.70998219 209.53109414 266.24294343 202.86352343 266.15234375 195.34375 C266.13880859 193.88001953 266.13880859 193.88001953 266.125 192.38671875 C266.11339844 191.65066406 266.10179687 190.91460937 266.08984375 190.15625 C265.21585938 190.73632812 265.21585938 190.73632812 264.32421875 191.328125 C246.91072628 202.38952588 224.23744293 204.25075326 204.19091797 200.0793457 C192.8169285 197.19303988 182.04141653 191.74562692 173.08984375 184.15625 C172.87199219 184.72472656 172.65414062 185.29320312 172.4296875 185.87890625 C166.65311182 195.69740078 152.6166408 201.01955178 142.17773438 203.86889648 C135.19414556 205.66623968 128.30733265 206.9088547 121.08984375 207.15625 C120.17332031 207.19621094 119.25679687 207.23617187 118.3125 207.27734375 C97.90028327 207.74312588 77.07446488 203.53053851 61.08984375 190.15625 C57.41273243 191.47042887 54.67174595 193.08871936 51.58984375 195.46875 C34.52202685 207.67821663 11.69114038 209.00907701 -8.421875 205.84375 C-16.00391583 204.3494172 -22.49715966 202.07455295 -29.10449219 198.06933594 C-30.00455994 197.52500916 -30.90462769 196.98068237 -31.83197021 196.41986084 C-32.51777161 196.00286926 -33.203573 195.58587769 -33.91015625 195.15625 C-33.91380188 195.8275293 -33.91744751 196.49880859 -33.92120361 197.19042969 C-33.96312633 204.19907827 -34.03254107 211.20707797 -34.11767578 218.21533203 C-34.14584099 220.82822163 -34.16707754 223.44119573 -34.18115234 226.05419922 C-34.20264238 229.81782146 -34.24932768 233.58043248 -34.30078125 237.34375 C-34.30262421 239.08640137 -34.30262421 239.08640137 -34.30450439 240.86425781 C-34.42771537 247.74091534 -35.18511221 252.31983808 -38.91015625 258.15625 C-44.30583775 262.84814696 -49.65705849 262.7582143 -56.65625 262.54296875 C-62.15028094 261.89001669 -64.59544127 259.57756349 -68.22265625 255.65625 C-71.22674007 251.20575545 -71.03704933 247.25003914 -71.04386902 241.94267273 C-71.04613458 241.21479909 -71.04840013 240.48692546 -71.05073434 239.73699504 C-71.05706637 237.29689659 -71.05624545 234.85685381 -71.05541992 232.41674805 C-71.05841214 230.66711861 -71.06181482 228.91748984 -71.06559753 227.16786194 C-71.07444107 222.41104147 -71.07677596 217.654239 -71.07741332 212.89741111 C-71.07812429 209.92095805 -71.08025962 206.94450956 -71.08291054 203.96805763 C-71.09216917 193.57009212 -71.09624528 183.17213942 -71.09545898 172.77416992 C-71.0948599 163.10750388 -71.10537699 153.44089396 -71.12120265 143.7742421 C-71.13432554 135.45976809 -71.13964081 127.14531229 -71.13900357 118.83082801 C-71.13874973 113.87226727 -71.14153697 108.91375627 -71.15218163 103.95520592 C-71.16194128 99.28075685 -71.16188847 94.6064042 -71.15466499 89.93195152 C-71.15362845 88.22732399 -71.1559259 86.52269021 -71.16202545 84.81807327 C-71.24167335 60.99210731 -68.43056245 37.30619771 -51.15234375 19.30078125 C-37.15902779 5.91693027 -18.96398913 0.75780176 0 0 Z " fill="#FEB719" transform="translate(543.91015625,177.84375)"/>
<path d="M0 0 C0.70858154 0.01095703 1.41716309 0.02191406 2.1472168 0.03320312 C6.72963241 0.22402668 10.40924706 0.59581163 13.72977448 3.91791916 C18.73006502 10.08826847 18.49104321 17.59482255 18.44726562 25.11230469 C18.4526384 26.24511871 18.45801117 27.37793274 18.46354675 28.54507446 C18.47329906 30.99492441 18.47627664 33.4448088 18.47319031 35.89467621 C18.46869706 39.78014991 18.48275715 43.6651718 18.50158691 47.55059814 C18.53932644 55.80454987 18.55221433 64.05847527 18.5625 72.3125 C18.57442176 81.86777682 18.59628399 91.42282614 18.64250183 100.97800446 C18.65600834 104.79115117 18.65191219 108.60401431 18.64709473 112.41717529 C18.65644267 114.77649284 18.66661332 117.13580733 18.67773438 119.49511719 C18.67158615 120.54279266 18.66543793 121.59046814 18.65910339 122.66989136 C18.75175251 133.94009567 20.89908144 145.58380482 28.4375 154.3125 C37.34616508 161.94849864 47.4266398 164.21290982 59.0859375 163.84375 C69.00053789 162.90693736 77.43852085 160.18647915 84.5859375 153.0390625 C92.43289422 143.28981324 93.21024445 130.10720807 93.2043457 118.16040039 C93.20955734 116.44957024 93.20955734 116.44957024 93.21487427 114.70417786 C93.22221418 112.2324427 93.22756895 109.76070103 93.23116493 107.2889576 C93.23834442 103.37572537 93.2540211 99.46261749 93.27250671 95.54942322 C93.27884308 94.20670038 93.28516871 92.86397748 93.29148388 91.52125454 C93.29464969 90.84908646 93.2978155 90.17691837 93.30107725 89.48438156 C93.34306981 80.38161173 93.37613519 71.27888572 93.38842773 62.17602539 C93.39771629 55.36736234 93.42782289 48.55902488 93.46974754 41.75048637 C93.48205968 39.15779444 93.48717843 36.56505793 93.48494911 33.97233772 C93.48259754 30.34587976 93.50475227 26.72032947 93.5324707 23.09399414 C93.52256859 21.49080322 93.52256859 21.49080322 93.51246643 19.85522461 C93.59168697 13.54039425 94.30968002 9.70212405 98.0625 4.5625 C102.47327126 0.71480592 106.28407142 -0.12307506 112 0 C113.06287231 0.0153479 113.06287231 0.0153479 114.1472168 0.03100586 C117.99164383 0.18798478 121.11833973 0.51446051 124.375 2.625 C129.34872024 8.06139189 130.43765357 12.90713592 130.4367218 20.14356995 C130.44069621 20.87471242 130.44467061 21.6058549 130.44876546 22.35915321 C130.4583372 24.79245319 130.44660148 27.22516423 130.43481445 29.65844727 C130.43724426 31.41014319 130.44096542 33.16183772 130.44587708 34.91352844 C130.45526865 39.66191071 130.44587254 44.41008618 130.43254495 49.15845227 C130.4212004 54.14070481 130.4253406 59.1229476 130.42729187 64.10520935 C130.42817447 72.47878377 130.41710633 80.85227719 130.39868164 89.22583008 C130.37756295 98.87838779 130.37399409 108.53082647 130.3802436 118.1834026 C130.38596093 127.49362658 130.38026067 136.80380903 130.36907005 146.11402702 C130.36445039 150.06301588 130.3635388 154.01197912 130.3656559 157.96096992 C130.36755505 162.62562416 130.35931133 167.29015923 130.3435955 171.9547863 C130.33939171 173.65660484 130.3384754 175.35843555 130.34128571 177.06025696 C130.37257314 199.4170001 127.45120872 220.38056015 111.40625 237.28125 C94.3119582 253.91969402 72.96562344 258.050686 49.84765625 257.7734375 C27.1074863 257.16502998 6.91432738 249.62858164 -10.23046875 234.51953125 C-12.97741694 231.37028402 -13.89673537 228.58161575 -14.0625 224.4375 C-12.8604585 217.7676356 -7.26011356 211.66425153 -2.390625 207.2578125 C0.96408907 204.9394273 3.06287803 205.06254725 7.0625 205.5625 C10.71176859 207.51788985 13.90865389 209.92208671 17.1875 212.4375 C32.51772606 223.64669755 49.68047288 225.60933635 68.24316406 223.29003906 C76.35774593 221.80970449 82.93726641 218.0382271 88.0625 211.5625 C91.68263844 204.93734414 93.21559968 198.26977343 93.125 190.75 C93.11597656 189.77417969 93.10695313 188.79835938 93.09765625 187.79296875 C93.08605469 187.05691406 93.07445312 186.32085937 93.0625 185.5625 C92.47984375 185.94921875 91.8971875 186.3359375 91.296875 186.734375 C73.88126547 197.79712068 51.21262672 199.65370654 31.16381836 195.48608398 C14.45016361 191.24104168 0.96094174 182.50474553 -7.9375 167.5625 C-16.02381748 152.83143696 -18.07365344 137.07408349 -18.11450195 120.54443359 C-18.12107315 119.37418137 -18.12764435 118.20392914 -18.13441467 116.99821472 C-18.1540162 113.15245488 -18.16577584 109.30673369 -18.17578125 105.4609375 C-18.17985678 104.14298817 -18.1839323 102.82503883 -18.18813133 101.46715164 C-18.20712573 95.21745132 -18.22137613 88.96776247 -18.2297433 82.71803892 C-18.23953487 75.52607661 -18.26592805 68.33442047 -18.30624419 61.14256608 C-18.336434 55.56439949 -18.35121432 49.9863207 -18.35452431 44.40807402 C-18.35686878 41.08396782 -18.36774343 37.76026521 -18.39098549 34.43622971 C-18.41529876 30.7311619 -18.41442653 27.02690028 -18.4074707 23.32177734 C-18.42028076 22.22964432 -18.43309082 21.13751129 -18.44628906 20.01228333 C-18.40262105 13.63089497 -17.74829204 9.74705723 -13.9375 4.5625 C-9.52703671 0.71507457 -5.71576515 -0.12374406 0 0 Z " fill="#EF333E" transform="translate(716.9375,182.4375)"/>
<path d="M0 0 C20.54471917 -0.54870567 39.3709178 2.89643129 56.2109375 15.32421875 C57.14099609 16.23107422 57.14099609 16.23107422 58.08984375 17.15625 C58.08984375 20.15625 58.08984375 20.15625 56.77734375 21.6640625 C56.22046875 22.19773438 55.66359375 22.73140625 55.08984375 23.28125 C52.10519989 26.69431164 51.06306002 29.13727789 51.3671875 33.68359375 C53.43234602 40.74978479 59.09620231 47.06624939 65.08984375 51.15625 C69.12768624 51.97584931 73.15068186 51.23535225 77.08984375 50.15625 C80.01716092 62.74655589 80.24990246 75.29820064 80.08984375 88.15625 C79.18363281 88.6409375 78.27742187 89.125625 77.34375 89.625 C62.34642196 97.80329813 52.50475988 107.07801605 46.81640625 123.6484375 C46.09555993 126.13651996 45.5554581 128.60906559 45.08984375 131.15625 C44.75984375 131.15625 44.42984375 131.15625 44.08984375 131.15625 C44.08397751 130.42534653 44.07811127 129.69444305 44.07206726 128.94139099 C44.01367767 121.9851363 43.94134576 115.02914429 43.85412884 108.07319546 C43.80978198 104.49877195 43.77045253 100.92445313 43.7434082 97.34985352 C43.71701238 93.88718264 43.67636916 90.4249228 43.62665749 86.96251106 C43.60234509 85.0271409 43.59203907 83.09161052 43.5821991 81.15611267 C43.37482111 68.37311437 42.27009579 53.43149047 33.52734375 43.35546875 C23.24195403 33.76053343 10.56933745 33.59720835 -2.6875 34.02001953 C-10.96966407 34.52764778 -18.71396325 37.97948382 -24.59765625 43.8359375 C-31.79820311 52.51259646 -33.99546419 63.9998987 -34.0871582 75.00927734 C-34.0937294 75.66720276 -34.1003006 76.32512817 -34.10707092 77.00299072 C-34.12666729 79.16605787 -34.13844196 81.3290557 -34.1484375 83.4921875 C-34.15251303 84.23899403 -34.15658855 84.98580055 -34.16078758 85.75523758 C-34.18160028 89.71589117 -34.19591707 93.67651072 -34.20532227 97.63720703 C-34.21631719 101.68253064 -34.25064946 105.72729363 -34.29049397 109.77242088 C-34.31693939 112.92132421 -34.32503894 116.07010023 -34.32860374 119.21910477 C-34.3334059 120.70752328 -34.34483183 122.19593867 -34.36364174 123.68424606 C-34.52630471 137.41918884 -33.43618085 152.41261323 -23.91015625 163.15625 C-15.795063 171.27134325 -6.37750464 173.27514502 4.77734375 173.40625 C15.33913931 173.38929493 25.08402649 171.56904376 33.08984375 164.15625 C37.83356386 158.14615384 40.30001789 151.53535663 42.08984375 144.15625 C44.14891671 147.61923634 44.52947427 150.74267159 44.96484375 154.71875 C46.78038446 168.19564834 52.63990333 178.02950709 60.08984375 189.15625 C46.11907631 200.5260767 31.21838438 206.31793598 13.08984375 207.15625 C12.2184375 207.1975 11.34703125 207.23875 10.44921875 207.28125 C-3.41014802 207.60544571 -17.16694016 205.30561265 -29.10449219 198.06933594 C-30.00455994 197.52500916 -30.90462769 196.98068237 -31.83197021 196.41986084 C-32.51777161 196.00286926 -33.203573 195.58587769 -33.91015625 195.15625 C-33.91380188 195.8275293 -33.91744751 196.49880859 -33.92120361 197.19042969 C-33.96312633 204.19907827 -34.03254107 211.20707797 -34.11767578 218.21533203 C-34.14584099 220.82822163 -34.16707754 223.44119573 -34.18115234 226.05419922 C-34.20264238 229.81782146 -34.24932768 233.58043248 -34.30078125 237.34375 C-34.30262421 239.08640137 -34.30262421 239.08640137 -34.30450439 240.86425781 C-34.42771537 247.74091534 -35.18511221 252.31983808 -38.91015625 258.15625 C-44.30583775 262.84814696 -49.65705849 262.7582143 -56.65625 262.54296875 C-62.15028094 261.89001669 -64.59544127 259.57756349 -68.22265625 255.65625 C-71.22674007 251.20575545 -71.03704933 247.25003914 -71.04386902 241.94267273 C-71.04613458 241.21479909 -71.04840013 240.48692546 -71.05073434 239.73699504 C-71.05706637 237.29689659 -71.05624545 234.85685381 -71.05541992 232.41674805 C-71.05841214 230.66711861 -71.06181482 228.91748984 -71.06559753 227.16786194 C-71.07444107 222.41104147 -71.07677596 217.654239 -71.07741332 212.89741111 C-71.07812429 209.92095805 -71.08025962 206.94450956 -71.08291054 203.96805763 C-71.09216917 193.57009212 -71.09624528 183.17213942 -71.09545898 172.77416992 C-71.0948599 163.10750388 -71.10537699 153.44089396 -71.12120265 143.7742421 C-71.13432554 135.45976809 -71.13964081 127.14531229 -71.13900357 118.83082801 C-71.13874973 113.87226727 -71.14153697 108.91375627 -71.15218163 103.95520592 C-71.16194128 99.28075685 -71.16188847 94.6064042 -71.15466499 89.93195152 C-71.15362845 88.22732399 -71.1559259 86.52269021 -71.16202545 84.81807327 C-71.24167335 60.99210731 -68.43056245 37.30619771 -51.15234375 19.30078125 C-37.15902779 5.91693027 -18.96398913 0.75780176 0 0 Z " fill="#00AAB8" transform="translate(543.91015625,177.84375)"/>
<path d="M0 0 C14.04685884 13.23350394 20.21238797 31.54284126 20.91633224 50.55418587 C20.96992127 53.77342888 20.99326837 56.9915139 21.00537109 60.21118164 C21.01763733 62.03730232 21.01763733 62.03730232 21.03015137 63.90031433 C21.05483863 67.90359178 21.07163987 71.90683204 21.0859375 75.91015625 C21.09130522 77.29587749 21.09668273 78.6815987 21.10206985 80.06731987 C21.12364923 85.83145911 21.14238627 91.5955958 21.15369225 97.35976505 C21.16994785 105.58848901 21.20322074 113.81674242 21.26009309 122.0452891 C21.29884757 127.8519169 21.31833062 133.65841901 21.32361281 139.46517271 C21.32725494 142.92518401 21.33915604 146.3846904 21.37171555 149.84456062 C21.40751222 153.7025843 21.4034113 157.56001881 21.39599609 161.41821289 C21.41240143 162.55350433 21.42880676 163.68879578 21.44570923 164.85848999 C21.39205472 171.68375331 20.46747249 176.56178616 15.8125 181.75 C9.69234153 185.94929351 2.96378773 185.51438943 -4.1875 184.75 C-8.70515178 182.64695521 -11.40792801 179.86788443 -14.1875 175.75 C-15.18490279 172.68010426 -15.31634797 169.8581149 -15.32553101 166.64221191 C-15.33098434 165.61070007 -15.33643768 164.57918823 -15.34205627 163.51641846 C-15.3430986 162.39016052 -15.34414093 161.26390259 -15.34521484 160.10351562 C-15.35029556 158.91276428 -15.35537628 157.72201294 -15.36061096 156.49517822 C-15.37411443 153.23025147 -15.38350362 149.96533803 -15.39202833 146.70039558 C-15.40277344 143.27334059 -15.42135212 139.84633204 -15.43984985 136.41931152 C-15.50164973 124.7509335 -15.55566 113.08255952 -15.58886719 101.4140625 C-15.60729177 94.96811859 -15.636329 88.52231075 -15.6768719 82.07646704 C-15.69781944 78.67120844 -15.7133815 75.26612045 -15.71567917 71.86079407 C-15.72061567 68.05087578 -15.74384682 64.24145662 -15.77099609 60.43164062 C-15.76798996 59.32157654 -15.76498383 58.21151245 -15.7618866 57.06781006 C-15.88399287 45.4651089 -18.04488723 34.11125444 -25.64453125 25.00390625 C-33.08401313 17.74543366 -42.83949253 16.37467343 -52.8125 16.3125 C-63.75135517 16.46617758 -72.69965372 18.42418029 -81.1875 25.75 C-92.66884228 37.78783592 -90.7288838 58.98378611 -90.64278984 74.16145325 C-90.62068572 78.23137851 -90.6240515 82.3005548 -90.63526917 86.3704834 C-90.65827523 96.46424239 -90.64000612 106.55787263 -90.61376953 116.65161133 C-90.59378135 124.53049611 -90.58528806 132.40904559 -90.61070591 140.28793097 C-90.62054081 143.6684931 -90.62024707 147.04840684 -90.59591484 150.4289093 C-90.57214785 154.19060754 -90.57866814 157.95116502 -90.59155273 161.71289062 C-90.569188 163.3712796 -90.569188 163.3712796 -90.54637146 165.06317139 C-90.60861601 171.8149903 -91.60733239 176.60990261 -96.1875 181.75 C-102.32180491 185.95328898 -109.02389471 185.49967962 -116.1875 184.75 C-120.16980956 183.52365964 -122.54051059 181.61265254 -125.0625 178.25 C-126.81827128 174.34828605 -127.31297005 171.05147099 -127.32121277 166.78302002 C-127.32547775 165.78253128 -127.32974274 164.78204254 -127.33413696 163.75123596 C-127.33368378 162.65931442 -127.33323059 161.56739288 -127.33276367 160.44238281 C-127.33612228 159.28731735 -127.3394809 158.13225189 -127.34294128 156.94218445 C-127.35246036 153.11248708 -127.35439549 149.28283347 -127.35546875 145.453125 C-127.35787006 143.45921117 -127.36027319 141.46529732 -127.36292917 139.47138381 C-127.37107368 133.19104302 -127.37351378 126.91071656 -127.37280273 120.63037109 C-127.37220503 114.18902848 -127.38269507 107.74777045 -127.3985464 101.30644917 C-127.41171755 95.75286957 -127.41698251 90.19931722 -127.41634732 84.64572215 C-127.4160947 81.33982265 -127.41976054 78.03401385 -127.42952538 74.72812653 C-127.5000437 48.36661941 -127.21234163 21.53240031 -107.8515625 1.16796875 C-79.75853097 -24.32995869 -28.68811865 -24.46674384 0 0 Z " fill="#0C2C6C" transform="translate(432.1875,195.25)"/>
<path d="M0 0 C2.7354324 2.96455409 3.8895846 4.44792298 4.6875 8.4375 C4.47171487 12.76980137 2.67428277 16.46382661 0.8125 20.3125 C0.52141357 20.92343506 0.23032715 21.53437012 -0.06958008 22.16381836 C-2.09878996 26.08898794 -3.97247347 28.17512709 -8 30 C-13.98943227 30.95830916 -17.92439176 28.77664236 -23.171875 26.24609375 C-32.77747445 22.01379233 -43.76119024 21.61847473 -53.67578125 24.96484375 C-59.67049753 27.6347594 -63.57729064 31.76970318 -66.15625 37.77832031 C-69.02560503 45.33362436 -69.38261026 53.05858865 -69.625 61.0625 C-69.66367188 62.11888672 -69.70234375 63.17527344 -69.7421875 64.26367188 C-69.83553093 66.84228408 -69.92131253 69.42090608 -70 72 C-69.36186371 71.99111755 -68.72372742 71.98223511 -68.06625366 71.9730835 C-61.41519135 71.88448254 -54.76429713 71.82421256 -48.11279297 71.78027344 C-45.63160389 71.76017759 -43.15046205 71.73289616 -40.66943359 71.69824219 C-37.09981618 71.64963706 -33.53082584 71.62701028 -29.9609375 71.609375 C-28.85446869 71.58872986 -27.74799988 71.56808472 -26.60800171 71.54681396 C-20.40668658 71.54501354 -16.70251568 71.81675076 -12 76 C-8.0180351 80.53120143 -7.70876799 84.66512328 -7.78515625 90.49609375 C-8.20165421 95.35018812 -10.00898751 98.10567166 -13.5625 101.3125 C-17.05605332 103.73111383 -18.79124265 104.12369265 -23.00048828 104.11352539 C-24.56188034 104.11341209 -24.56188034 104.11341209 -26.15481567 104.11329651 C-27.28192963 104.10813522 -28.40904358 104.10297394 -29.5703125 104.09765625 C-30.72167694 104.0962413 -31.87304138 104.09482635 -33.05929565 104.09336853 C-36.74788986 104.08775716 -40.43642405 104.0752027 -44.125 104.0625 C-46.62109288 104.05748647 -49.1171867 104.05292331 -51.61328125 104.04882812 C-57.74220809 104.03778403 -63.87109976 104.0210348 -70 104 C-69.99631283 104.7811467 -69.99262566 105.5622934 -69.98882675 106.36711121 C-69.90042599 125.38859098 -69.83426619 144.41002966 -69.79275131 163.43167114 C-69.77214054 172.63046656 -69.74404838 181.82912472 -69.69824219 191.02783203 C-69.6583289 199.04697227 -69.63255639 207.06601309 -69.62364602 215.0852499 C-69.61843886 219.33001962 -69.60623128 223.57450493 -69.57707977 227.81918335 C-69.54983954 231.8181336 -69.54157226 235.81668348 -69.54756927 239.8157177 C-69.54647287 241.27980668 -69.5385701 242.74390968 -69.5231781 244.20791817 C-69.44333479 252.19708994 -69.49006167 258.24616039 -74 265 C-79.37817634 269.67667508 -84.70083207 269.61207365 -91.6796875 269.375 C-96.37914094 268.8442382 -98.41369185 268.11852883 -102 265 C-106.8913737 257.67494342 -106.54424117 250.62049724 -106.45410156 242.046875 C-106.45297186 240.5383253 -106.45360934 239.0297734 -106.45587158 237.52122498 C-106.45701489 233.44518746 -106.43356831 229.36962491 -106.40557575 225.29369736 C-106.38049771 221.02695908 -106.37821507 216.76020881 -106.37347412 212.4934082 C-106.3610631 204.42227116 -106.32826699 196.35135194 -106.28807616 188.28031063 C-106.24329999 179.08806964 -106.22135674 169.895818 -106.20129442 160.70349503 C-106.15953259 141.80220672 -106.08921715 122.9011209 -106 104 C-107.22976562 104.04640625 -108.45953125 104.0928125 -109.7265625 104.140625 C-111.3593506 104.17816036 -112.99216511 104.21455862 -114.625 104.25 C-115.43324219 104.28351563 -116.24148437 104.31703125 -117.07421875 104.3515625 C-122.57132225 104.4409463 -125.65798259 103.69336237 -130 100 C-133.66078281 95.18318052 -134.65838014 91.47380435 -134.3828125 85.4296875 C-133.58207977 80.34748591 -131.38490806 77.17801631 -127.4375 73.8203125 C-122.96699148 71.45297503 -119.58535551 71.54430743 -114.625 71.75 C-113.79355469 71.76804687 -112.96210937 71.78609375 -112.10546875 71.8046875 C-110.06980926 71.85148427 -108.0347491 71.92321702 -106 72 C-106.01571045 71.3922876 -106.0314209 70.7845752 -106.04760742 70.15844727 C-106.59268768 45.74023155 -104.70782166 23.43598823 -87.1875 4.75 C-65.91311365 -15.46474259 -23.91155811 -16.18218502 0 0 Z " fill="#0C2C6C" transform="translate(237,111)"/>
<path d="M0 0 C9.75080153 7.71237966 12.42153548 18.53228298 13.8125 30.43359375 C14.1019542 35.76541623 14.14302972 41.08806112 14.1484375 46.42578125 C14.15488659 47.94451006 14.1616164 49.46323771 14.16860962 50.98196411 C14.1804991 54.14702226 14.18429896 57.31197193 14.18310547 60.47705078 C14.18290236 64.49329254 14.21023329 68.50882615 14.24464989 72.52490044 C14.26709688 75.65657628 14.27093768 78.78808616 14.26988602 81.91983414 C14.2722142 83.39872813 14.28087652 84.87762873 14.29655075 86.3564415 C14.42718262 99.94803256 12.57617054 113.46890918 3.8125 124.43359375 C-4.85196377 132.90032079 -15.40056243 134.66100628 -27.09594727 134.61206055 C-37.28977106 134.46917276 -45.64748219 132.40389342 -53.390625 125.45703125 C-64.8188735 113.47853374 -65.50751824 98.47008392 -65.5234375 82.70703125 C-65.52988412 81.19023521 -65.53661378 79.67344034 -65.54360962 78.15664673 C-65.5555235 74.98802821 -65.55929676 71.8195182 -65.55810547 68.65087891 C-65.55790306 64.63701647 -65.58515079 60.62386819 -65.61964989 56.61017418 C-65.64214993 53.47841347 -65.64593598 50.34681806 -65.64488602 47.21498489 C-65.64720954 45.7377439 -65.65584387 44.26049596 -65.67155075 42.78333664 C-65.80342598 29.09659765 -64.67308113 14.13161758 -55.1875 3.43359375 C-41.51807092 -10.23583533 -15.57861397 -10.58466312 0 0 Z " fill="#FEFEFE" transform="translate(574.1875,217.56640625)"/>
<path d="M0 0 C-0.57584432 2.38564077 -1.22227595 4.66682784 -2 7 C-2.11762201 9.13091056 -2.1768694 11.26520525 -2.20532227 13.39916992 C-2.21522186 14.04334366 -2.22512146 14.6875174 -2.23532104 15.35121155 C-2.26687467 17.4775934 -2.29166905 19.60399758 -2.31640625 21.73046875 C-2.33698109 23.20592322 -2.3579777 24.68137186 -2.37937927 26.15681458 C-2.43454526 30.03819051 -2.48397862 33.91961915 -2.53222656 37.80108643 C-2.58248158 41.76262091 -2.63814676 45.72407894 -2.69335938 49.68554688 C-2.80087399 57.45696649 -2.90233377 65.22844972 -3 73 C-3.83873405 73.00879936 -3.83873405 73.00879936 -4.69441223 73.01777649 C-10.61794708 73.08268814 -16.54098642 73.16733022 -22.46411133 73.26245117 C-24.66228623 73.2953076 -26.86053756 73.32345565 -29.05883789 73.34643555 C-45.82494463 73.52630476 -61.7454002 74.78296704 -78 79 C-78.05534912 78.20416504 -78.11069824 77.40833008 -78.16772461 76.58837891 C-78.42277478 72.93380982 -78.68012177 69.27940583 -78.9375 65.625 C-79.02451172 64.37332031 -79.11152344 63.12164062 -79.20117188 61.83203125 C-79.69292059 54.87469752 -80.24828932 47.93435394 -81 41 C-81.58136719 41.3196875 -82.16273438 41.639375 -82.76171875 41.96875 C-86.19132733 43.5488838 -89.35456805 43.75375473 -93 43 C-99.13114205 39.67241436 -103.85213316 33.06629732 -107 27 C-108.1990201 22.85481622 -107.96447942 19.78428692 -105.90625 15.9765625 C-94.42919603 1.16179385 -72.83734264 -5.99722672 -55.140625 -8.55859375 C-35.8923182 -10.83264567 -17.57557376 -8.01010663 0 0 Z " fill="#FEB719" transform="translate(702,187)"/>
<path d="M0 0 C1.02867187 -0.02320313 1.02867187 -0.02320313 2.078125 -0.046875 C7.20443172 -0.00774289 10.16355959 1.14311464 14 4.5 C17.38303791 9.53551174 18.50061487 12.75019859 18.50793457 18.93835449 C18.51417453 19.65401817 18.5204145 20.36968184 18.52684355 21.1070323 C18.54270595 23.48771293 18.53019678 25.86735999 18.51757812 28.24804688 C18.52300228 29.96184381 18.53012659 31.67563608 18.53881836 33.38941956 C18.5570198 38.03200575 18.54999735 42.67423552 18.53730202 47.31682777 C18.52715787 52.18091399 18.53657163 57.04497018 18.54284668 61.90905762 C18.55011896 70.07663437 18.54054638 78.24406633 18.52148438 86.41162109 C18.49971645 95.84741237 18.50676811 105.2828579 18.52879 114.7186408 C18.54695594 122.82755917 18.54949648 130.93637359 18.53903532 139.04530573 C18.53280696 143.88511476 18.53194667 148.72476141 18.54518127 153.56455994 C18.55675653 158.11521994 18.54868353 162.66543521 18.52560425 167.21604729 C18.52032609 168.8837148 18.52181564 170.5514199 18.53065491 172.21907234 C18.54163001 174.50043118 18.52782525 176.78037612 18.50793457 179.06164551 C18.50642647 180.3366114 18.50491837 181.6115773 18.50336456 182.92517853 C17.71319728 188.53683097 15.50165671 192.22685626 11.125 195.9375 C5.57071015 198.7206691 -0.99209861 198.21402429 -7 197.5 C-11.51765178 195.39695521 -14.22042801 192.61788443 -17 188.5 C-18.25084854 184.88878715 -18.13424454 181.33708049 -18.14717102 177.54302979 C-18.15084771 176.84288561 -18.1545244 176.14274143 -18.1583125 175.42138076 C-18.16932475 173.0755094 -18.17318898 170.72968237 -18.17700195 168.38378906 C-18.18326843 166.70161804 -18.18991539 165.0194484 -18.19691467 163.33728027 C-18.2179343 157.81340495 -18.22831458 152.28952941 -18.23828125 146.765625 C-18.24232948 144.86264786 -18.24644643 142.95967087 -18.25063133 141.05669403 C-18.2696778 132.11646995 -18.2839104 123.17625411 -18.2922433 114.23601365 C-18.30201634 103.92150449 -18.32833989 93.6072099 -18.36874419 83.29277635 C-18.3989159 75.31641403 -18.41371315 67.34011318 -18.41702431 59.36369491 C-18.41937344 54.6014591 -18.42831615 49.83945265 -18.45348549 45.07727814 C-18.47678992 40.59565246 -18.48098995 36.1144068 -18.47072411 31.63273621 C-18.47022922 29.99127182 -18.47653563 28.34978857 -18.49028015 26.70838165 C-18.61279113 11.20589467 -18.61279113 11.20589467 -14 4.5 C-9.59810992 0.54830323 -5.746465 -0.12961951 0 0 Z " fill="#0C2C6C" transform="translate(267,182.5)"/>
<path d="M0 0 C0.98467255 0.0028299 1.96934509 0.00565979 2.9838562 0.00857544 C6.09093011 0.01966055 9.19770254 0.04474259 12.3046875 0.0703125 C14.42707913 0.08035741 16.54947534 0.0894806 18.671875 0.09765625 C23.84125981 0.11956151 29.01042276 0.15400922 34.1796875 0.1953125 C35.09914661 38.45424163 35.09914661 38.45424163 23.24609375 51.2890625 C13.3015367 59.90159631 0.7922936 61.19368175 -11.83251953 60.37548828 C-20.54177729 59.5860714 -28.27258425 57.15267181 -34.8203125 51.1953125 C-41.4245605 43.23136639 -42.64827894 34.27547534 -41.8203125 24.1953125 C-40.62610046 17.70241173 -37.95824168 12.41467281 -32.8203125 8.1953125 C-22.33389693 1.62806235 -12.18882021 -0.13489759 0 0 Z " fill="#FFFFFF" transform="translate(664.8203125,291.8046875)"/>
<path d="M0 0 C1.18408447 0.00737183 1.18408447 0.00737183 2.39208984 0.01489258 C12.72697591 0.2221856 21.32706956 3.00069461 29.03515625 10.0625 C37.74969311 19.2395919 40.27439811 31.31002764 40.171875 43.6640625 C40.16510742 44.72705566 40.15833984 45.79004883 40.15136719 46.88525391 C40.13831543 48.08674072 40.13831543 48.08674072 40.125 49.3125 C39.56584396 49.31836624 39.00668793 49.32423248 38.43058777 49.33027649 C32.50705292 49.39518814 26.58401358 49.47983022 20.66088867 49.57495117 C18.46271377 49.6078076 16.26446244 49.63595565 14.06616211 49.65893555 C-2.69994463 49.83880476 -18.6204002 51.09546704 -34.875 55.3125 C-34.95016846 54.12660278 -34.95016846 54.12660278 -35.02685547 52.91674805 C-35.26131084 49.27737335 -35.50559478 45.63871951 -35.75 42 C-35.82863281 40.75669922 -35.90726563 39.51339844 -35.98828125 38.23242188 C-36.49521187 30.80393859 -37.34031026 23.60086397 -38.875 16.3125 C-27.26500925 6.35444341 -15.51415071 -0.11468571 0 0 Z " fill="#FFFFFF" transform="translate(658.875,210.6875)"/>
<path d="M0 0 C3.18422435 3.26382996 4.25015117 5.91609789 4.4375 10.375 C4.23142318 15.05081203 3.53634602 19.64176941 2.75 24.25 C2.64099365 24.92337402 2.5319873 25.59674805 2.41967773 26.29052734 C1.36569862 31.87447696 -0.77967507 36.04880536 -5.0625 39.8125 C-10.45510232 43.11764336 -16.90458353 42.53545776 -23 42 C-26.50111758 40.87192706 -29.1465486 39.36090899 -31.15625 36.15625 C-33.75392636 29.51774375 -31.93723296 21.52255851 -30.75 14.6875 C-30.64083252 14.0181543 -30.53166504 13.34880859 -30.41918945 12.65917969 C-29.34205671 6.98887042 -27.23799731 2.66415184 -22.5625 -0.8125 C-15.22585808 -4.21240723 -7.04418373 -4.01869918 0 0 Z " fill="#0C2C6C" transform="translate(612,499)"/>
<path d="M0 0 C3.89833582 4.29816513 4.11071653 8.36037681 4 14 C3.22436006 22.61424031 2.32134338 32.55113672 -4 39 C-9.38106887 43.30485509 -16.43919227 42.61768419 -23 42 C-27.35032576 40.49988767 -29.65356512 38.93077979 -32 35 C-33.27145256 24.39089043 -32.68534639 11.52268224 -26.359375 2.5546875 C-19.86358573 -4.87440483 -8.08910734 -4.80683097 0 0 Z " fill="#0C2C6C" transform="translate(172,499)"/>
<path d="M0 0 C2.83253266 2.31075033 3.83837867 3.515136 5 7 C5.79825629 16.53302223 5.28336622 28.37125855 0.0625 36.6875 C-3.53599462 40.72217579 -6.4187565 42.78977857 -11.92578125 43.23828125 C-21.05821876 43.43841541 -21.05821876 43.43841541 -25.625 41.3125 C-29.41023585 37.62687562 -30.84810084 35.5443081 -31.375 30.1875 C-31.20807291 25.68046868 -30.51016297 21.25219682 -29.75 16.8125 C-29.58636963 15.79675903 -29.58636963 15.79675903 -29.41943359 14.76049805 C-28.53517618 10.03499398 -26.8753619 6.82053037 -24 3 C-23.566875 2.4225 -23.13375 1.845 -22.6875 1.25 C-16.11423764 -3.61908323 -7.21347281 -2.72206521 0 0 Z " fill="#0C2C6C" transform="translate(761,498)"/>
<path d="M0 0 C2.625 1.9375 2.625 1.9375 4 4 C4.0625 6 4.0625 6 3 8 C0.4375 10.25 0.4375 10.25 -2 12 C-6 10 -6 10 -7.8125 8.875 C-12.00286188 7.19885525 -15.72542621 7.50125373 -19.875 9.125 C-22.67593323 11.59641167 -22.76663197 13.34390082 -23 17 C-23 17.66 -23 18.32 -23 19 C-22.2265625 19.17015625 -21.453125 19.3403125 -20.65625 19.515625 C-5.85659436 22.95910923 -5.85659436 22.95910923 -1.0625 28.0625 C1.63624185 32.98373513 1.82103559 38.02745549 0.3515625 43.34765625 C-1.81553721 48.89506106 -4.61238695 52.35345324 -10 55 C-16.75974343 57.29243473 -25.92062867 57.07755533 -32.625 54.75 C-37.99328859 51.96644295 -37.99328859 51.96644295 -40 49 C-39.92903989 46.09063544 -39.35637616 44.53456424 -37.75 42.125 C-36 41 -36 41 -33.625 41.125 C-31 42 -31 42 -28.8125 43.5625 C-24.59747749 45.71684484 -20.6368067 45.81201034 -16 45 C-12.70173338 43.03855046 -12.70173338 43.03855046 -11 40 C-11.32906212 37.36339514 -11.32906212 37.36339514 -12 35 C-13.25296875 34.62488281 -14.5059375 34.24976563 -15.796875 33.86328125 C-17.44819493 33.34724377 -19.09922159 32.83026716 -20.75 32.3125 C-21.575 32.06822266 -22.4 31.82394531 -23.25 31.57226562 C-28.24889568 29.97987547 -31.14151963 28.65631407 -34 24 C-36.38834383 19.22331234 -35.51644696 12.61009935 -33.9375 7.6875 C-25.64154935 -3.81978639 -12.58110701 -5.90131766 0 0 Z " fill="#0C2C6C" transform="translate(576,485)"/>
<path d="M0 0 C6.15234375 -0.09765625 6.15234375 -0.09765625 8 0 C8.33 0.33 8.66 0.66 9 1 C8.909084 3.70108504 8.76259234 6.36930311 8.5625 9.0625 C8.51029297 9.82111328 8.45808594 10.57972656 8.40429688 11.36132812 C8.27424165 13.24121722 8.13771962 15.12065685 8 17 C8.65226562 16.89300781 9.30453125 16.78601563 9.9765625 16.67578125 C15.55357823 15.91079237 19.1930588 15.59996842 24 19 C26.96448484 21.76003761 27.48686686 24.50686152 27.93530273 28.46557617 C28.07172061 33.80955334 27.00692685 39.05890261 26.125 44.3125 C25.84462891 46.08077148 25.84462891 46.08077148 25.55859375 47.88476562 C24.17218646 56.48344061 24.17218646 56.48344061 23 60 C19.7 60 16.4 60 13 60 C13.47301542 54.08730719 14.08273768 48.28827925 15.0625 42.4375 C15.95617808 36.90331575 16.22736609 31.59573211 16 26 C12.9020375 25.78877528 10.68656558 25.64334256 7.89453125 27.09375 C5.24029018 29.76440906 5.06109771 31.99689973 4.4375 35.6875 C4.32237061 36.33726807 4.20724121 36.98703613 4.08862305 37.65649414 C3.84340063 39.04267049 3.60474194 40.43002123 3.37207031 41.81835938 C2.8618493 44.81004901 2.29268577 47.78955079 1.72485352 50.77075195 C1.13973667 53.84530021 0.5701791 56.92265041 0 60 C-3.3 60 -6.6 60 -10 60 C-9.34175068 49.39587399 -7.72207091 38.99921806 -6.04370117 28.515625 C-5.55937175 25.48039569 -5.08698834 22.44345627 -4.61523438 19.40625 C-4.30800948 17.46863605 -4.00009186 15.53113178 -3.69140625 13.59375 C-3.55174942 12.68959351 -3.41209259 11.78543701 -3.26820374 10.85388184 C-3.13143723 10.01200317 -2.99467072 9.17012451 -2.85375977 8.30273438 C-2.73686295 7.56615601 -2.61996613 6.82957764 -2.49952698 6.07067871 C-1.95929896 3.83128285 -1.10229283 2.01571458 0 0 Z " fill="#0C2C6C" transform="translate(486,480)"/>
<path d="M0 0 C2.83253266 2.31075033 3.83837867 3.515136 5 7 C5.11934103 8.76791252 5.17524624 10.54060644 5.1875 12.3125 C5.20167969 13.23675781 5.21585937 14.16101563 5.23046875 15.11328125 C5 18 5 18 3 24 C-4.59 24 -12.18 24 -20 24 C-19.76666667 30.63333333 -19.76666667 30.63333333 -17 33 C-11.11663097 33.50966413 -11.11663097 33.50966413 -6 31 C-4.68 31 -3.36 31 -2 31 C0.1519437 34.22791555 0.20086443 35.28400809 0 39 C-6.88645236 43.32091128 -12.93912695 44.02555637 -21 43 C-24.46927774 41.85525516 -27.10439457 40.37366509 -29.15625 37.2265625 C-32.61156979 28.10835751 -29.84753097 14.57122531 -26.0859375 5.890625 C-23.6763606 1.93343367 -20.39038785 -0.12352446 -16.125 -1.6875 C-10.39154998 -2.53065441 -5.42325341 -2.04651072 0 0 Z " fill="#0C2C6C" transform="translate(434,498)"/>
<path d="M0 0 C0.73541016 0.00202423 1.47082031 0.00404846 2.22851562 0.00613403 C2.97939453 0.00517731 3.73027344 0.00422058 4.50390625 0.00323486 C6.09440189 0.00255315 7.6849003 0.00440682 9.27539062 0.00857544 C11.71816217 0.01392386 14.16074984 0.00863019 16.60351562 0.00222778 C18.1451827 0.00288857 19.68684966 0.00416973 21.22851562 0.00613403 C21.96392578 0.0041098 22.69933594 0.00208557 23.45703125 0 C28.61356402 0.02399493 28.61356402 0.02399493 29.72851562 1.13894653 C29.39851563 4.10894653 29.06851563 7.07894653 28.72851562 10.13894653 C20.47851562 10.13894653 12.22851562 10.13894653 3.72851562 10.13894653 C3.39851563 13.43894653 3.06851562 16.73894653 2.72851562 20.13894653 C2.39851563 21.45894653 2.06851562 22.77894653 1.72851562 24.13894653 C8.32851563 24.13894653 14.92851562 24.13894653 21.72851562 24.13894653 C22.72851562 28.13894653 22.72851562 28.13894653 20.72851562 34.13894653 C13.79851562 34.13894653 6.86851562 34.13894653 -0.27148438 34.13894653 C-0.39523437 35.72707153 -0.51898438 37.31519653 -0.64648438 38.95144653 C-2.10065699 54.96811914 -2.10065699 54.96811914 -4.27148438 57.13894653 C-7.60476279 57.28139433 -10.93602331 57.18116756 -14.27148438 57.13894653 C-13.76551916 46.24004274 -12.04249974 35.59080963 -10.26025391 24.84158325 C-9.76580097 21.85461333 -9.28178085 18.86607648 -8.79882812 15.87722778 C-8.48823847 13.97999269 -8.17706275 12.08285343 -7.86523438 10.18582153 C-7.72041626 9.29119202 -7.57559814 8.3965625 -7.4263916 7.474823 C-6.182055 0.028767 -6.182055 0.028767 0 0 Z " fill="#0C2C6C" transform="translate(285.271484375,482.8610534667969)"/>
<path d="M0 0 C3.63 0 7.26 0 11 0 C13.79308415 6.62391498 16.53267983 13.24733426 19 20 C19.58007812 19.2265625 20.16015625 18.453125 20.7578125 17.65625 C21.96115856 16.05178859 23.16503051 14.44765122 24.38330078 12.85449219 C26.22624491 10.43397294 27.98079686 8.03200523 29.546875 5.421875 C30.90374376 3.2029955 31.94234991 1.5983532 34 0 C37.75993794 -0.64754487 41.22779378 -0.48327197 45 0 C44.58878856 5.37738043 41.51530304 8.92329582 38.4375 13.125 C37.62539062 14.27029175 37.62539062 14.27029175 36.796875 15.4387207 C34.49078305 18.67430191 32.18260594 21.79101439 29.56640625 24.78515625 C22.55448718 32.93700923 21.72404134 42.58299662 20.35375977 52.92797852 C20 55 20 55 19 57 C15.7 57 12.4 57 9 57 C8.8405307 52.61459417 8.80207371 48.8251575 9.83203125 44.53125 C13.02018685 30.64377087 7.16696766 20.03553942 1.04150391 7.68457031 C0 5 0 5 0 0 Z " fill="#0C2C6C" transform="translate(104,483)"/>
<path d="M0 0 C2.4375 1.9375 2.4375 1.9375 4 5 C4.75452554 13.38077054 3.50251869 21.52675584 2 29.75 C1.71382812 31.38582031 1.71382812 31.38582031 1.421875 33.0546875 C0.95695584 35.70472672 0.47978554 38.35261194 0 41 C-3.3 41 -6.6 41 -10 41 C-9.51731697 33.238965 -8.72976289 25.6368062 -7.40234375 17.97265625 C-6.98539151 14.89206739 -6.72212774 12.10070157 -7 9 C-9.74694525 6.73857742 -9.74694525 6.73857742 -12.5 7.125 C-15.63461431 8.22211501 -16.29138758 9.17360104 -18 12 C-18.86550185 15.17869082 -18.86550185 15.17869082 -19.38671875 18.734375 C-19.60263672 20.02988281 -19.81855469 21.32539062 -20.04101562 22.66015625 C-20.25675587 24.02339868 -20.47224753 25.38668047 -20.6875 26.75 C-20.91367636 28.12907675 -21.14087897 29.50798562 -21.36914062 30.88671875 C-21.92288249 34.25629693 -22.46607391 37.62723487 -23 41 C-26.3 41 -29.6 41 -33 41 C-32.61564572 33.49846466 -31.83778491 26.10695324 -30.6875 18.6875 C-30.58203857 17.94773926 -30.47657715 17.20797852 -30.36791992 16.44580078 C-29.27885792 9.76811147 -27.35462415 3.91313212 -22 -0.4375 C-14.58578235 -4.29907169 -7.31728619 -4.08079422 0 0 Z " fill="#0C2C6C" transform="translate(803,499)"/>
<path d="M0 0 C2.83253266 2.31075033 3.83837867 3.515136 5 7 C5.35610808 14.51615347 4.30193809 21.59768114 3.0625 29 C2.88009766 30.14339844 2.69769531 31.28679688 2.50976562 32.46484375 C1.13664379 40.86335621 1.13664379 40.86335621 0 42 C-3.00003445 42.14177857 -5.99757235 42.04228771 -9 42 C-9.19881116 34.22250743 -8.21855258 26.95090788 -6.97851562 19.2890625 C-6.83994141 18.391875 -6.70136719 17.4946875 -6.55859375 16.5703125 C-6.42767334 15.76352051 -6.29675293 14.95672852 -6.16186523 14.12548828 C-5.84763157 11.81151772 -5.84763157 11.81151772 -7 9 C-10.28696233 8.20046862 -11.71023192 7.90341064 -15 9 C-18.09745804 15.5451312 -19.05674739 22.3229376 -20.125 29.4375 C-20.45743533 31.60340501 -20.79318533 33.76880481 -21.1328125 35.93359375 C-21.27605957 36.88290771 -21.41930664 37.83222168 -21.56689453 38.81030273 C-22 41 -22 41 -23 42 C-24.51928038 42.07179964 -26.04167482 42.08392007 -27.5625 42.0625 C-28.38878906 42.05347656 -29.21507812 42.04445313 -30.06640625 42.03515625 C-30.70449219 42.02355469 -31.34257812 42.01195312 -32 42 C-32.2404573 35.11794628 -31.33114273 28.65368234 -30.1875 21.875 C-30.02185547 20.81667969 -29.85621094 19.75835938 -29.68554688 18.66796875 C-28.59828735 12.12800012 -27.60783953 6.53735739 -22.6875 1.75 C-15.39007975 -3.00180853 -8.05081193 -3.03804224 0 0 Z " fill="#0C2C6C" transform="translate(364,498)"/>
<path d="M0 0 C1.9453125 -0.29296875 1.9453125 -0.29296875 4.125 -0.1875 C5.40375 -0.125625 6.6825 -0.06375 8 0 C9.51891057 4.94903313 8.47478633 9.2887152 7.5625 14.25 C6.40325069 20.59802895 5.73804007 26.53406231 6 33 C6.98267859 34.20561184 6.98267859 34.20561184 8.84765625 34.09765625 C10.8984375 34.06510417 12.94921875 34.03255208 15 34 C18.05552533 19.10499318 18.05552533 19.10499318 20.60546875 4.1171875 C21 2 21 2 22 0 C28.15234375 -0.09765625 28.15234375 -0.09765625 30 0 C30.495 0.495 30.495 0.495 31 1 C30.94947372 8.46525802 29.8217349 15.94532332 28.6875 23.3125 C28.58211914 24.05234131 28.47673828 24.79218262 28.36816406 25.55444336 C27.27779057 32.2348481 25.30695629 38.03663295 20.0625 42.5 C14.85991818 45.03922106 8.61342369 44.78872156 3 44 C-0.17766693 42.42948162 -2.71615811 40.71065045 -5 38 C-7.1336821 30.4891131 -5.49201602 22.57562787 -4.1875 15.0625 C-4.00896484 13.94037109 -3.83042969 12.81824219 -3.64648438 11.66210938 C-2.27370323 3.41055485 -2.27370323 3.41055485 0 0 Z " fill="#0C2C6C" transform="translate(646,497)"/>
<path d="M0 0 C0.721875 0.00257813 1.44375 0.00515625 2.1875 0.0078125 C2.909375 0.00523437 3.63125 0.00265625 4.375 0 C6.1875 0.1328125 6.1875 0.1328125 7.1875 1.1328125 C7.04591813 7.44954218 6.13526716 13.7177371 5.125 19.9453125 C4.40381594 24.42849403 3.87840899 28.59947768 4.1875 33.1328125 C5.37174326 34.54858727 5.37174326 34.54858727 8.75 34.1953125 C10.4515625 34.164375 10.4515625 34.164375 12.1875 34.1328125 C15.79340215 28.3284401 16.32358495 22.1208382 17.25 15.4453125 C17.56739095 13.19043464 17.89131272 10.93646362 18.22265625 8.68359375 C18.3606665 7.69012939 18.49867676 6.69666504 18.64086914 5.6730957 C19.1875 3.1328125 19.1875 3.1328125 21.1875 0.1328125 C23.1328125 -0.16015625 23.1328125 -0.16015625 25.3125 -0.0546875 C26.59125 0.0071875 27.87 0.0690625 29.1875 0.1328125 C31.04542362 5.48530441 29.29201518 11.0189067 28.34643555 16.44018555 C28.00335107 18.42591689 27.68359642 20.41447245 27.36523438 22.40429688 C24.90721485 36.75125354 24.90721485 36.75125354 19.125 42.0078125 C13.6622087 45.17975584 7.29972856 44.68846964 1.1875 44.1328125 C-2.63329656 42.70882559 -4.54704555 40.53099418 -6.8125 37.1328125 C-8.49025113 25.50560701 -5.5005057 12.41997916 -2.8125 1.1328125 C-1.8125 0.1328125 -1.8125 0.1328125 0 0 Z " fill="#0C2C6C" transform="translate(187.8125,496.8671875)"/>
<path d="M0 0 C0.9453125 1.859375 0.9453125 1.859375 1 4 C0 6.2734375 0 6.2734375 -2 8 C-5.25 8.1015625 -5.25 8.1015625 -9 7.625 C-14.33431212 6.75125456 -14.33431212 6.75125456 -19 9 C-19.72382467 11.05925139 -19.72382467 11.05925139 -20 13 C-19.19175781 13.18175781 -18.38351562 13.36351562 -17.55078125 13.55078125 C-16.48214844 13.80214844 -15.41351562 14.05351563 -14.3125 14.3125 C-13.25675781 14.55613281 -12.20101562 14.79976562 -11.11328125 15.05078125 C-7.1537412 16.25801868 -3.96251426 17.55622861 -1.625 21.0625 C-0.44028547 26.63065829 -0.83639431 31.97446417 -3.6875 36.9375 C-9.54969227 42.16594175 -14.99523556 42.51961142 -22.56640625 42.359375 C-27.31440282 41.86242883 -30.07511821 40.69354632 -34 38 C-34.495 36.515 -34.495 36.515 -35 35 C-33.0625 32.3125 -33.0625 32.3125 -31 30 C-26.25 30.875 -26.25 30.875 -24 32 C-22.29297265 32.06996014 -20.58331997 32.08440154 -18.875 32.0625 C-17.96492187 32.05347656 -17.05484375 32.04445313 -16.1171875 32.03515625 C-15.41851563 32.02355469 -14.71984375 32.01195312 -14 32 C-13.34 30.02 -12.68 28.04 -12 26 C-12.80824219 25.81824219 -13.61648438 25.63648438 -14.44921875 25.44921875 C-15.51785156 25.19785156 -16.58648438 24.94648437 -17.6875 24.6875 C-18.74324219 24.44386719 -19.79898438 24.20023438 -20.88671875 23.94921875 C-24.00271489 22.99917225 -26.33882573 21.86521944 -29 20 C-30.97449669 16.05100663 -30.43770498 11.30409896 -30 7 C-27.8322232 2.50387035 -25.52280685 0.09593488 -21 -2 C-14.1223209 -3.99090711 -6.29394341 -3.61969278 0 0 Z " fill="#0C2C6C" transform="translate(845,499)"/>
<path d="M0 0 C0.721875 0.00257813 1.44375 0.00515625 2.1875 0.0078125 C2.909375 0.00523437 3.63125 0.00265625 4.375 0 C6.1875 0.1328125 6.1875 0.1328125 7.1875 1.1328125 C7.00986496 4.48495758 6.56763585 7.79606448 6.1875 11.1328125 C9.8175 11.1328125 13.4475 11.1328125 17.1875 11.1328125 C18.1875 15.1328125 18.1875 15.1328125 17.1875 20.1328125 C12.8975 20.1328125 8.6075 20.1328125 4.1875 20.1328125 C4.043125 22.0509375 3.89875 23.9690625 3.75 25.9453125 C3.34259879 31.33599812 2.84825229 36.71064241 2.2734375 42.0859375 C2.24507812 42.76140625 2.21671875 43.436875 2.1875 44.1328125 C3.77022601 45.71553851 5.56784003 45.48016997 7.75 45.6953125 C8.57628906 45.77910156 9.40257812 45.86289062 10.25390625 45.94921875 C11.21103516 46.04009766 11.21103516 46.04009766 12.1875 46.1328125 C12.5175 48.4428125 12.8475 50.7528125 13.1875 53.1328125 C9.76420149 55.41501151 8.34612332 55.43022413 4.3125 55.4453125 C3.28382813 55.46207031 2.25515625 55.47882812 1.1953125 55.49609375 C-2.25642583 55.07919548 -4.06969909 54.24964317 -6.8125 52.1328125 C-11.79673175 44.82963305 -8.3811324 33.69154984 -6.88012695 25.62036133 C-6.53078995 23.78991838 -6.17259832 21.96116884 -5.8125 20.1328125 C-7.4625 20.1328125 -9.1125 20.1328125 -10.8125 20.1328125 C-9.9375 12.2578125 -9.9375 12.2578125 -8.8125 11.1328125 C-7.14632885 11.09217418 -5.47861905 11.0900915 -3.8125 11.1328125 C-3.75191406 10.42253906 -3.69132813 9.71226562 -3.62890625 8.98046875 C-3.54511719 8.06136719 -3.46132813 7.14226562 -3.375 6.1953125 C-3.29378906 5.27878906 -3.21257813 4.36226563 -3.12890625 3.41796875 C-2.68286913 0.19658955 -2.68286913 0.19658955 0 0 Z " fill="#0C2C6C" transform="translate(692.8125,485.8671875)"/>
<path d="M0 0 C0.721875 0.00257813 1.44375 0.00515625 2.1875 0.0078125 C2.909375 0.00523437 3.63125 0.00265625 4.375 0 C6.1875 0.1328125 6.1875 0.1328125 7.1875 1.1328125 C7.00986496 4.48495758 6.56763585 7.79606448 6.1875 11.1328125 C9.8175 11.1328125 13.4475 11.1328125 17.1875 11.1328125 C17.28515625 17.28515625 17.28515625 17.28515625 17.1875 19.1328125 C16.1875 20.1328125 16.1875 20.1328125 13.46484375 20.23046875 C12.36269531 20.21886719 11.26054687 20.20726562 10.125 20.1953125 C9.02027344 20.18628906 7.91554688 20.17726563 6.77734375 20.16796875 C5.92269531 20.15636719 5.06804687 20.14476562 4.1875 20.1328125 C4.12691406 20.85984375 4.06632812 21.586875 4.00390625 22.3359375 C3.92011719 23.34140625 3.83632813 24.346875 3.75 25.3828125 C3.66105469 26.46691406 3.57210938 27.55101562 3.48046875 28.66796875 C3.28595452 30.96842374 3.08031256 33.26796627 2.86328125 35.56640625 C2.76402344 36.64019531 2.66476562 37.71398437 2.5625 38.8203125 C2.41941406 40.31111328 2.41941406 40.31111328 2.2734375 41.83203125 C2.24507813 42.59128906 2.21671875 43.35054687 2.1875 44.1328125 C3.77022601 45.71553851 5.56784003 45.48016997 7.75 45.6953125 C8.57628906 45.77910156 9.40257812 45.86289062 10.25390625 45.94921875 C11.21103516 46.04009766 11.21103516 46.04009766 12.1875 46.1328125 C12.5175 48.4428125 12.8475 50.7528125 13.1875 53.1328125 C8.5191306 56.24505876 3.65442919 55.73864634 -1.8125 55.1328125 C-5.01058475 53.86316088 -7.23660125 52.28461 -8.8125 49.1328125 C-9.63066072 39.15754529 -7.90108075 29.81736253 -5.8125 20.1328125 C-7.4625 20.1328125 -9.1125 20.1328125 -10.8125 20.1328125 C-9.9375 12.2578125 -9.9375 12.2578125 -8.8125 11.1328125 C-7.14632885 11.09217418 -5.47861905 11.0900915 -3.8125 11.1328125 C-3.75191406 10.42253906 -3.69132812 9.71226562 -3.62890625 8.98046875 C-3.54511719 8.06136719 -3.46132813 7.14226562 -3.375 6.1953125 C-3.29378906 5.27878906 -3.21257812 4.36226563 -3.12890625 3.41796875 C-2.68286913 0.19658955 -2.68286913 0.19658955 0 0 Z " fill="#0C2C6C" transform="translate(385.8125,485.8671875)"/>
<path d="M0 0 C1.125 2.5 1.125 2.5 1 5 C-0.171875 6.6953125 -0.171875 6.6953125 -2 8 C-4.5234375 7.8984375 -4.5234375 7.8984375 -7.375 7.375 C-11.93854199 6.81307762 -11.93854199 6.81307762 -16.0625 8.8125 C-20.3807345 15.91669224 -20.31060492 23.88976034 -20 32 C-15.07872966 32.16682272 -11.49656104 32.24828052 -7 30 C-4.10067643 32.39509338 -3.49831724 34.31245243 -3 38 C-9.14275364 42.46745719 -14.51414591 42.86295262 -22 42 C-26.18517204 40.53151858 -28.99196362 39.01607277 -31 35 C-33.26008191 25.47536909 -31.62460073 12.65279998 -26.625 4.125 C-24.04245237 0.65833696 -21.21359494 -1.16036054 -17.1875 -2.6875 C-10.6310932 -3.62412954 -5.71677261 -3.38339604 0 0 Z " fill="#0C2C6C" transform="translate(474,499)"/>
<path d="M0 0 C6.15234375 -0.09765625 6.15234375 -0.09765625 8 0 C8.33 0.33 8.66 0.66 9 1 C8.77950998 8.22740839 7.5618205 15.43194618 6.40625 22.55859375 C6.25466431 23.51016861 6.10307861 24.46174347 5.94689941 25.44215393 C5.62926258 27.43135973 5.30986963 29.42028586 4.98876953 31.40893555 C4.49740118 34.45360308 4.01194509 37.49917068 3.52734375 40.54492188 C3.21648897 42.48703412 2.90530296 44.42909338 2.59375 46.37109375 C2.44893188 47.2783873 2.30411377 48.18568085 2.15490723 49.12046814 C2.01806519 49.96557449 1.88122314 50.81068085 1.74023438 51.68139648 C1.62111694 52.42099106 1.50199951 53.16058563 1.37927246 53.92259216 C1.00618317 55.96613261 0.5038238 57.9847048 0 60 C-3.3 60 -6.6 60 -10 60 C-9.34175068 49.39587399 -7.72207091 38.99921806 -6.04370117 28.515625 C-5.55937175 25.48039569 -5.08698834 22.44345627 -4.61523438 19.40625 C-4.30800948 17.46863605 -4.00009186 15.53113178 -3.69140625 13.59375 C-3.55174942 12.68959351 -3.41209259 11.78543701 -3.26820374 10.85388184 C-3.13143723 10.01200317 -2.99467072 9.17012451 -2.85375977 8.30273438 C-2.73686295 7.56615601 -2.61996613 6.82957764 -2.49952698 6.07067871 C-1.95929896 3.83128285 -1.10229283 2.01571458 0 0 Z " fill="#0C2C6C" transform="translate(630,480)"/>
<path d="M0 0 C-0.75 5.75 -0.75 5.75 -3 8 C-5.28884635 7.81441786 -7.46204368 7.35724192 -9.7109375 6.8984375 C-12.12857126 6.80253304 -12.12857126 6.80253304 -14.1875 8.51171875 C-16.48805409 11.67002253 -17.05878117 14.66106266 -17.625 18.4375 C-17.80264893 19.48852905 -17.80264893 19.48852905 -17.98388672 20.56079102 C-18.34140642 22.70469644 -18.67486886 24.85096246 -19 27 C-19.1959375 28.2890625 -19.391875 29.578125 -19.59375 30.90625 C-19.93023848 33.14290873 -20.25698446 35.38107315 -20.5703125 37.62109375 C-21 40 -21 40 -22 41 C-23.51928038 41.07179964 -25.04167482 41.08392007 -26.5625 41.0625 C-27.38878906 41.05347656 -28.21507812 41.04445313 -29.06640625 41.03515625 C-29.70449219 41.02355469 -30.34257812 41.01195312 -31 41 C-32.69900792 35.90297623 -31.07361737 30.61029696 -30.21386719 25.39575195 C-29.87944119 23.3398031 -29.5720598 21.28098293 -29.265625 19.22070312 C-27.05458683 5.18689172 -27.05458683 5.18689172 -22 0 C-14.52460432 -4.40880452 -7.55716087 -3.70146655 0 0 Z " fill="#0C2C6C" transform="translate(252,499)"/>
<path d="M0 0 C1.9453125 -0.29296875 1.9453125 -0.29296875 4.125 -0.1875 C5.40375 -0.125625 6.6825 -0.06375 8 0 C9.36347403 4.67178419 8.62212329 8.85161934 7.8203125 13.546875 C7.62198318 14.76458588 7.62198318 14.76458588 7.41964722 16.00689697 C7.1395687 17.7154109 6.85523009 19.42323126 6.56689453 21.13037109 C6.12443784 23.7533326 5.69592993 26.37829139 5.26953125 29.00390625 C4.99560432 30.66419678 4.72089229 32.32435801 4.4453125 33.984375 C4.31609406 34.77285828 4.18687561 35.56134155 4.05374146 36.37371826 C3.11625773 41.88374227 3.11625773 41.88374227 2 43 C0.48071962 43.07179964 -1.04167482 43.08392007 -2.5625 43.0625 C-3.38878906 43.05347656 -4.21507812 43.04445313 -5.06640625 43.03515625 C-5.70449219 43.02355469 -6.34257812 43.01195312 -7 43 C-7.09741154 37.63901922 -6.79407396 32.64139095 -5.9765625 27.32421875 C-5.87032562 26.63237991 -5.76408875 25.94054108 -5.65463257 25.22773743 C-5.43066892 23.78115304 -5.20363876 22.33504027 -4.97363281 20.8894043 C-4.62334711 18.67706066 -4.28772437 16.46281096 -3.953125 14.24804688 C-3.73264625 12.83580055 -3.51132224 11.42368588 -3.2890625 10.01171875 C-3.09006348 8.73772217 -2.89106445 7.46372559 -2.68603516 6.15112305 C-2 3 -2 3 0 0 Z " fill="#0C2C6C" transform="translate(320,497)"/>
<path d="M0 0 C6.15234375 -0.09765625 6.15234375 -0.09765625 8 0 C8.33 0.33 8.66 0.66 9 1 C8.85993039 9.24556842 7.21660354 17.48030769 5.84326172 25.59228516 C5.49483263 27.65559994 5.15528937 29.72025439 4.81640625 31.78515625 C4.48962891 33.73615234 4.48962891 33.73615234 4.15625 35.7265625 C3.95837891 36.90814941 3.76050781 38.08973633 3.55664062 39.30712891 C3 42 3 42 2 43 C0.48071962 43.07179964 -1.04167482 43.08392007 -2.5625 43.0625 C-3.38878906 43.05347656 -4.21507812 43.04445313 -5.06640625 43.03515625 C-5.70449219 43.02355469 -6.34257813 43.01195312 -7 43 C-7.36133121 35.65927116 -6.16510721 28.59258816 -4.97363281 21.37158203 C-4.62379173 19.24264713 -4.28787721 17.11182238 -3.953125 14.98046875 C-3.73259898 13.61705329 -3.51127297 12.25376694 -3.2890625 10.890625 C-2.99056396 9.05032715 -2.99056396 9.05032715 -2.68603516 7.17285156 C-2.09175791 4.42437216 -1.410134 2.40688831 0 0 Z " fill="#0C2C6C" transform="translate(718,497)"/>
<path d="M0 0 C2.15963702 5.02864387 1.94316731 8.89098019 0.875 14.125 C0.75640625 14.82753906 0.6378125 15.53007813 0.515625 16.25390625 C-0.33214547 20.65067664 -1.36426929 23.30914846 -5 26 C-8.14019073 26.44859868 -10.03810539 26.66866115 -12.69140625 24.82421875 C-15.4673607 20.95445538 -13.7209557 15.44130727 -13 11 C-12.042393 6.75563866 -11.03595742 3.21457077 -8.1875 -0.125 C-5.18020287 -1.32791885 -3.08847821 -0.77211955 0 0 Z " fill="#FFFFFF" transform="translate(604,506)"/>
<path d="M0 0 C2.97584832 5.95169665 0.85332226 14.92110299 -1 21 C-2.6875 24.125 -2.6875 24.125 -5 26 C-8.625 26.4375 -8.625 26.4375 -12 26 C-14 24 -14 24 -14.25 20.5625 C-14.08212506 14.00338632 -13.39292357 6.72715294 -10 1 C-6.61943604 -1.53542297 -3.96468831 -1.05725022 0 0 Z " fill="#FFFFFF" transform="translate(164,506)"/>
<path d="M0 0 C2.8125 1 2.8125 1 4.8125 4 C5.03219959 10.96761548 4.09069477 18.75181681 0.8125 25 C-2.66101075 27.31567384 -4.10149472 27.59587577 -8.1875 27 C-10.1290412 24.78542957 -11.16790956 23.07216833 -11.22265625 20.07592773 C-10.98766061 17.85197232 -10.6158317 15.69472616 -10.1875 13.5 C-10.07277344 12.75363281 -9.95804688 12.00726562 -9.83984375 11.23828125 C-8.78915898 5.47481626 -6.67690939 0 0 0 Z " fill="#FFFFFF" transform="translate(751.1875,505)"/>
<path d="M0 0 C2 2 2 2 2.3125 4.9375 C2 8 2 8 0.9375 9.875 C-2.09814371 11.63763183 -4.57798172 11.37331109 -8 11 C-10 8 -10 8 -9.875 4.4375 C-9 1 -9 1 -7.25 -0.5 C-4.47296397 -1.11711912 -2.70379676 -0.85383055 0 0 Z " fill="#0C2C6C" transform="translate(728,480)"/>
<path d="M0 0 C2 2 2 2 2.3125 4.9375 C2 8 2 8 0.9375 9.875 C-2.09814371 11.63763183 -4.57798172 11.37331109 -8 11 C-10 8 -10 8 -9.875 4.4375 C-9 1 -9 1 -7.25 -0.5 C-4.47296397 -1.11711912 -2.70379676 -0.85383055 0 0 Z " fill="#0C2C6C" transform="translate(330,480)"/>
<path d="M0 0 C2 2 2 2 2 8 C-2.29 8 -6.58 8 -11 8 C-9.85714286 2.28571429 -9.85714286 2.28571429 -7 0 C-4.29393021 -1.35303489 -2.8671629 -0.7884698 0 0 Z " fill="#FFFFFF" transform="translate(427,506)"/>
</svg>
