<?xml version="1.0" encoding="UTF-8"?>
<svg version="1.1" xmlns="http://www.w3.org/2000/svg" width="1000" height="1000">
<path d="M0 0 C330 0 660 0 1000 0 C1000 330 1000 660 1000 1000 C670 1000 340 1000 0 1000 C0 670 0 340 0 0 Z " fill="#FEFEFE" transform="translate(0,0)"/>
<path d="M0 0 C98.34 0 196.68 0 298 0 C298.28231944 105.6278032 298.28231944 105.6278032 298.34179688 149.72851562 C298.35550178 159.82267333 298.36964509 169.91683028 298.38452148 180.01098633 C298.38636773 181.27610709 298.38821397 182.54122786 298.39011616 183.84468561 C298.42055313 204.26343082 298.47573529 224.6820379 298.54006957 245.10070124 C298.60555319 266.05909539 298.64441635 287.01741728 298.65861946 307.97590953 C298.66821955 320.9062623 298.6985295 333.83622479 298.75541527 346.76645742 C298.79244532 355.63578281 298.80359424 364.50490672 298.79450964 373.37430378 C298.79003046 378.48998004 298.79684818 383.60497479 298.83443832 388.72052956 C298.86864436 393.40992551 298.87013367 398.09818535 298.84629226 402.78763495 C298.84334821 404.47832219 298.85211037 406.16908196 298.87418228 407.85962769 C299.04505368 421.76271767 295.72928196 431.86288025 285.875 442.2890625 C276.09472404 451.21356431 264.77005987 454.42041171 251.71875 454.2734375 C218.79647973 451.85268233 189.55949891 427.86496737 166.51391602 406.17089844 C162.67810065 402.57268936 158.67166162 399.29003382 154.5234375 396.0546875 C151.59473925 393.67001988 148.82522109 391.13465818 146.0625 388.5625 C141.40934139 384.23071062 136.60220584 380.16825169 131.6484375 376.1796875 C129.02724881 374.02242601 126.50845719 371.78689 124 369.5 C120.60401318 366.40444804 117.13828469 363.44848793 113.5625 360.5625 C108.79003797 356.70291397 104.26890891 352.62800009 99.75390625 348.47265625 C96.16792716 345.25290481 92.43298508 342.24094824 88.68359375 339.21484375 C86.05291443 337.04367173 83.52057576 334.79758643 81 332.5 C77.58260628 329.38541332 74.0947765 326.4081338 70.5 323.5 C66.03723787 319.88967558 61.77280467 316.11572071 57.53125 312.25 C54.9115519 309.92137947 52.2248469 307.70437053 49.5 305.5 C45.9052235 302.5918662 42.41739372 299.61458668 39 296.5 C32.84157238 290.89612273 26.37725247 285.6816406 19.859375 280.50390625 C18.85390625 279.69824219 17.8484375 278.89257812 16.8125 278.0625 C15.42998047 276.96615234 15.42998047 276.96615234 14.01953125 275.84765625 C13.35308594 275.23792969 12.68664062 274.62820313 12 274 C12 273.34 12 272.68 12 272 C11.47019531 271.77957031 10.94039063 271.55914062 10.39453125 271.33203125 C7.14048268 269.5218672 4.47321216 267.13040323 1.6875 264.6875 C1.07720947 264.15842041 0.46691895 263.62934082 -0.16186523 263.08422852 C-2.11117599 261.3932033 -4.05564323 259.6967173 -6 258 C-8.5193152 255.81074862 -11.04087305 253.6240879 -13.5625 251.4375 C-14.18793701 250.89456299 -14.81337402 250.35162598 -15.45776367 249.79223633 C-21.59202256 244.47280182 -27.78963899 239.23018073 -34 234 C-41.56717525 227.62715081 -49.08230232 221.2016689 -56.54321289 214.70458984 C-61.10601427 210.7435741 -65.76046221 206.91102912 -70.45703125 203.109375 C-73.89147379 200.26052865 -77.17135796 197.25521806 -80.46875 194.25 C-83.0884481 191.92137947 -85.7751531 189.70437053 -88.5 187.5 C-92.0947765 184.5918662 -95.58260628 181.61458668 -99 178.5 C-103.19729034 174.67829137 -107.53710231 171.08525811 -111.94921875 167.515625 C-116.18257077 164.02487122 -120.30662985 160.41361199 -124.44091797 156.80664062 C-128.17961514 153.55327802 -131.95894837 150.36772494 -135.8125 147.25 C-140.19439984 143.7042911 -144.37029954 139.97999553 -148.53515625 136.18359375 C-151.75477085 133.33135198 -155.12172065 130.69164499 -158.5 128.03125 C-161.08188242 125.93347053 -163.54282773 123.74216969 -166 121.5 C-167.66461506 119.99772356 -169.3312409 118.49767181 -171 117 C-171.75539063 116.31808594 -172.51078125 115.63617188 -173.2890625 114.93359375 C-188.66388826 101.79557374 -208.39441205 96.12439649 -228 93 C-229.10859375 92.79375 -230.2171875 92.5875 -231.359375 92.375 C-248.76438721 89.48753254 -267.18046209 90.08582896 -284.6015625 92.5546875 C-288.79102028 93.10365093 -292.78391792 93.15331208 -297 93 C-298.200288 75.39577598 -292.51593966 58.50422128 -281.07202148 45.09399414 C-262.54291347 24.59794502 -234.14662757 13.94496016 -207 12 C-183.10769837 11.06000679 -156.93848046 10.07908241 -135 21 C-133.76056641 21.60908203 -133.76056641 21.60908203 -132.49609375 22.23046875 C-125.70896402 25.94541456 -120.08862859 31.04143073 -114.30859375 36.12109375 C-111.77328097 38.34601845 -109.18939354 40.46167007 -106.5 42.5 C-101.94433255 45.97179118 -97.6339237 49.70707223 -93.30175781 53.45043945 C-89.66372716 56.58929618 -85.98648425 59.66549928 -82.25 62.6875 C-77.86992077 66.24151166 -73.68571712 69.96536131 -69.515625 73.76171875 C-66.0896388 76.80999529 -62.53091789 79.6796494 -58.96875 82.56640625 C-47.46528976 91.99621642 -36.33605769 101.89528223 -25.10449219 111.64550781 C-16.09759029 119.46325711 -7.06285103 127.24719406 2 135 C10.42416727 142.20644462 18.82804049 149.43515891 27.19921875 156.703125 C29.76034863 158.9265162 32.32572159 161.14486174 34.89453125 163.359375 C40.57394844 168.25986796 46.22656208 173.17377226 51.75 178.25 C56.13837917 182.27430624 60.68406223 186.04642753 65.31640625 189.78515625 C68.80835948 192.66716132 72.13551156 195.71174991 75.48046875 198.76171875 C78.03204917 201.02847158 80.65171532 203.17540087 83.3125 205.3125 C87.53398655 208.72422326 91.54073342 212.29317966 95.5 216 C100.20464898 220.40092329 105.03332208 224.55323439 110.0546875 228.59375 C119.15407693 236.02773394 127.92279768 243.86595849 136.5859375 251.80078125 C139.35032867 254.31915055 142.16031125 256.77950285 144.984375 259.23046875 C147.28607764 261.25114956 149.54764379 263.31312618 151.8125 265.375 C156.08175264 269.22900618 160.48464387 272.87378482 164.95703125 276.48828125 C168.49042203 279.40480278 171.93021367 282.41749751 175.375 285.4375 C190.00153835 298.88525809 190.00153835 298.88525809 208 306 C208 234.72 208 163.44 208 90 C151.66241166 89.93526572 151.66241166 89.93526572 95.34375 90.390625 C87.61088269 89.81462641 83.83071539 87.4244109 78.76208496 81.64459229 C77.49440808 80.10755044 76.24690787 78.55393792 75 77 C73.34978492 75.31704256 71.68629975 73.64679954 70 72 C68.81923068 70.67913941 67.65121139 69.34670012 66.5 68 C62.94650477 63.90925927 59.35720764 60.09166701 55.125 56.6875 C52.80564601 54.79127679 50.89149972 52.7848441 48.96264648 50.49389648 C44.83385005 45.72512545 40.40440079 41.28986878 35.92607307 36.85090828 C34.44024031 35.37802278 32.9577159 33.90187453 31.47593689 32.4249115 C28.34096036 29.30125099 25.20200834 26.18160478 22.0625 23.0625 C18.39772396 19.421339 14.73460245 15.77854367 11.07562065 12.13155937 C9.61290788 10.67534017 8.14722659 9.22215391 6.68141174 7.76905823 C5.80307175 6.89402145 4.92473175 6.01898468 4.01977539 5.11743164 C2.85231529 3.95782677 2.85231529 3.95782677 1.66127014 2.77479553 C0 1 0 1 0 0 Z " fill="#EB1C29" transform="translate(500,201)"/>
<path d="M0 0 C1.14210938 0.62003906 2.28421875 1.24007813 3.4609375 1.87890625 C21.37381648 11.72818814 36.61705432 25.08030532 51.58203125 38.86328125 C54.0028246 41.0996055 54.0028246 41.0996055 57 43 C57 43.66 57 44.32 57 45 C57.680625 45.185625 58.36125 45.37125 59.0625 45.5625 C62.46132247 47.22575355 64.33906478 49.23905811 66.92578125 51.94921875 C70.12111881 55.1084508 73.64336838 57.83784883 77.14453125 60.6484375 C80.86314793 63.71082771 84.38837784 66.9605611 87.90625 70.25 C89.97293358 72.19418031 89.97293358 72.19418031 93 73 C94.34474329 74.65747429 95.67635672 76.32562728 97 78 C98.77290339 79.56681328 100.58769165 81.08727143 102.4375 82.5625 C103.36433594 83.30628906 104.29117188 84.05007813 105.24609375 84.81640625 C107.09627331 86.28342806 108.96397174 87.72859867 110.84765625 89.15234375 C111.55792969 89.76207031 112.26820313 90.37179687 113 91 C113 91.66 113 92.32 113 93 C113.680625 93.185625 114.36125 93.37125 115.0625 93.5625 C118.46295183 95.2265509 120.34151205 97.24170309 122.9296875 99.953125 C125.25135571 102.24851018 127.70502983 104.26782312 130.25 106.3125 C134.12080581 109.4271238 137.84625351 112.63333359 141.5 116 C145.88678667 120.03311363 150.40513299 123.83380373 155.0390625 127.578125 C162.75975469 133.89320305 170.2763511 140.46437986 177.76953125 147.046875 C186.9553646 155.09051191 196.20864776 163.05708388 205.48828125 170.9921875 C207.97075802 173.11560805 210.4461309 175.24701774 212.91796875 177.3828125 C213.55919678 177.93573975 214.2004248 178.48866699 214.86108398 179.05834961 C216.0950741 180.12264017 217.32771982 181.18849202 218.55883789 182.25610352 C221.58584715 184.90695908 221.58584715 184.90695908 225 187 C225 187.66 225 188.32 225 189 C225.52851563 189.21914063 226.05703125 189.43828125 226.6015625 189.6640625 C229.88104153 191.490743 232.56756229 193.9111708 235.375 196.375 C235.98134277 196.90013184 236.58768555 197.42526367 237.21240234 197.96630859 C239.79866986 200.20640903 242.37645411 202.45618825 244.95507812 204.70507812 C246.84215811 206.34841821 248.73345657 207.98680175 250.625 209.625 C251.20427246 210.13337402 251.78354492 210.64174805 252.38037109 211.16552734 C255.13664592 213.55181061 257.70903211 215.44822243 261 217 C261.598125 217.763125 262.19625 218.52625 262.8125 219.3125 C265.05051128 222.06205672 267.1816903 223.68416075 270.12109375 225.59375 C272.66107626 227.49477641 274.7619261 229.75215285 277 232 C279.13133458 233.91684976 281.31351677 235.77150862 283.5 237.625 C284.11166016 238.14642578 284.72332031 238.66785156 285.35351562 239.20507812 C289.92509205 243.09868647 294.51008296 246.97660131 299.09912109 250.84960938 C303.12752183 254.25196662 307.12830898 257.68549281 311.125 261.125 C315.33151574 264.74325265 319.57044433 268.31058938 323.875 271.8125 C327.16783923 274.49555419 330.45286545 277.18437848 333.6875 279.9375 C334.33074219 280.48277344 334.97398437 281.02804687 335.63671875 281.58984375 C337 283 337 283 337 285 C338.06347656 285.33837891 338.06347656 285.33837891 339.1484375 285.68359375 C342.57081074 287.26351126 344.95448531 289.47361869 347.625 292.0625 C355.05376339 299.06534454 362.83330266 305.58147591 371.1484375 311.515625 C373.62319752 313.49960982 375.77646367 315.73946079 378 318 C404.92923016 344.44756913 439.48924795 351.44768873 476.15234375 351.16796875 C488.12355449 350.96147728 500.07000045 349.96011983 512 349 C512.53277616 368.83794293 505.67869071 386.57586095 491.98046875 401.1484375 C464.16513623 427.26079047 425.30508565 430.98107971 389 430 C383.91661925 429.73199863 378.98874459 429.01515152 374 428 C372.99936523 427.8146167 372.99936523 427.8146167 371.97851562 427.62548828 C359.03844019 425.20142783 347.73476902 420.85392396 337 413 C337 412.34 337 411.68 337 411 C336.43925781 410.74863281 335.87851562 410.49726562 335.30078125 410.23828125 C326.9354889 405.73607807 319.70253023 398.03493738 312.55175781 391.80175781 C308.03821243 387.8750421 303.44441483 384.06440729 298.796875 380.296875 C291.85971006 374.59987362 285.10327659 368.68249333 278.3125 362.8125 C277.10447514 361.77047561 275.89614663 360.72880313 274.6875 359.6875 C274.10750244 359.18710205 273.52750488 358.6867041 272.92993164 358.17114258 C268.89920115 354.71450154 264.76504847 351.43918088 260.4765625 348.3046875 C259.98929688 347.87414062 259.50203125 347.44359375 259 347 C259 346.34 259 345.68 259 345 C258.44441406 344.76410156 257.88882812 344.52820313 257.31640625 344.28515625 C254.43624409 342.6872248 252.33630924 340.694995 249.9375 338.4375 C246.30073228 335.05954445 242.61476017 331.80703736 238.75 328.6875 C232.98901034 324.03281704 227.40919556 319.18675725 221.82421875 314.32421875 C218.23231924 311.19707854 214.61965083 308.09493738 211 305 C191.62669753 288.41629917 191.62669753 288.41629917 183.75 281.25 C180.45707034 278.26136747 177.08683231 275.41616395 173.625 272.625 C169.07219493 268.94428153 164.76582589 265.07351352 160.4831543 261.08862305 C156.37239043 257.28614986 152.07733477 253.75736701 147.71484375 250.24609375 C144.89326505 247.9116941 142.19409288 245.48009402 139.5 243 C134.98839656 238.84880996 130.32964515 234.94283465 125.5625 231.08984375 C121.95907207 228.1510725 118.47993204 225.08284436 115 222 C113.72944484 220.89551325 112.45860479 219.79135416 111.1875 218.6875 C107.97436471 215.88228228 104.82799104 213.01121833 101.6875 210.125 C98.06476095 206.81663086 94.38307109 203.63987642 90.5625 200.5625 C86.02763839 196.90493736 81.74463817 193.05382973 77.48291016 189.08837891 C73.37220724 185.28601193 69.07724416 181.75729408 64.71484375 178.24609375 C60.93290521 175.11715179 57.3524413 171.78482555 53.7421875 168.4609375 C51.09984117 166.08960105 48.39305833 163.84747003 45.625 161.625 C40.76356151 157.71077589 36.18878561 153.55732083 31.67822266 149.24853516 C24.25501241 142.24021376 17.29113854 137.71518976 7 136 C7 207.28 7 278.56 7 352 C46.46111268 352.0190573 46.46111268 352.0190573 85.921875 351.90234375 C93.56640625 351.91601563 93.56640625 351.91601563 97.14892578 351.93286133 C99.64277281 351.93607374 102.13668014 351.92188305 104.63037109 351.89379883 C108.41636728 351.85481908 112.1983779 351.87250111 115.984375 351.90234375 C117.08916199 351.87776596 118.19394897 351.85318817 119.33221436 351.8278656 C123.87969759 351.91350605 126.82732795 352.04333019 130.42736816 354.98025513 C132.44406354 357.23688265 134.2323779 359.54628428 136 362 C138.5498889 364.67131218 141.06529356 367.05279054 143.9375 369.375 C147.3667671 372.18076399 150.43093721 375.38326976 153 379 C153 379.66 153 380.32 153 381 C153.804375 381.3403125 153.804375 381.3403125 154.625 381.6875 C160.36532496 384.85978485 165.21077089 389.66551789 169 395 C169 395.66 169 396.32 169 397 C169.57300842 397.24801865 170.14601685 397.49603729 170.73638916 397.75157166 C173.35064929 399.19339036 175.10872118 400.86162401 177.21777344 402.97485352 C178.03832214 403.79232559 178.85887085 404.60979767 179.70428467 405.45204163 C181.01855438 406.77708961 181.01855438 406.77708961 182.359375 408.12890625 C183.26375305 409.03374252 184.1681311 409.9385788 185.09991455 410.87083435 C187.00864199 412.7825816 188.91535617 414.69609988 190.81884766 416.61303711 C193.26407564 419.07531461 195.71589551 421.53089738 198.17004013 423.9842844 C200.50678654 426.32136715 202.83927551 428.66268557 205.171875 431.00390625 C206.05615173 431.88929581 206.94042847 432.77468536 207.85150146 433.68690491 C208.65944153 434.50122482 209.46738159 435.31554474 210.29980469 436.15454102 C211.01610046 436.87464859 211.73239624 437.59475616 212.47039795 438.33668518 C214 440 214 440 214 441 C116.32 441 18.64 441 -82 441 C-82.24198809 335.33186545 -82.24198809 335.33186545 -82.29296875 291.22265625 C-82.3047159 281.12646425 -82.31683877 271.03027281 -82.32958984 260.93408203 C-82.33117234 259.66869752 -82.33275483 258.403313 -82.33438528 257.09958351 C-82.36047765 236.67371716 -82.40777863 216.2479522 -82.46291678 195.82214597 C-82.51903567 174.85810429 -82.55235479 153.89411568 -82.56453097 132.93000197 C-82.57276164 119.99508513 -82.59875288 107.06045477 -82.6474988 94.12562612 C-82.67922654 85.25445056 -82.68879781 76.38342301 -82.68100826 67.51219484 C-82.67716711 62.39468837 -82.68303479 57.27768235 -82.71523285 52.16026497 C-82.74452472 47.47040013 -82.74584569 42.7813702 -82.72539337 38.09146616 C-82.7228673 36.39945694 -82.73040035 34.70739469 -82.74929909 33.01548913 C-82.87376545 21.17955427 -80.88971782 12.54669861 -73.6484375 2.8515625 C-52.16871563 -18.18527851 -24.26223516 -13.60349597 0 0 Z " fill="#B2BED3" transform="translate(285,357)"/>
<path d="M0 0 C98.34 0 196.68 0 298 0 C298.20165675 105.7891286 298.20165675 105.7891286 298.24414062 149.92382812 C298.25393014 160.02612346 298.26403259 170.1284184 298.2746582 180.23071289 C298.27597695 181.49688865 298.27729569 182.76306441 298.2786544 184.06760913 C298.30040694 204.51488086 298.33982933 224.96208235 298.38576398 245.40931242 C298.43250495 266.39029174 298.46029042 287.37123426 298.47044247 308.35226351 C298.4773065 321.30096993 298.49899382 334.24947793 298.53958233 347.19812328 C298.56599151 356.07487405 298.5740051 364.95152208 298.56750689 373.82830929 C298.56430119 378.95145952 298.56925017 384.07426276 298.59602737 389.19735146 C298.62036964 393.88882893 298.62158115 398.57972627 298.60449447 403.27123053 C298.60238289 404.96721884 298.60871729 406.66324344 298.62441591 408.35916042 C298.70151209 417.20302766 298.7295357 424.702551 293 432 C292.3125 430.3125 292.3125 430.3125 292 428 C292.69965896 426.86119533 292.69965896 426.86119533 293.41345245 425.69938451 C295.46099561 422.21565262 295.37877151 419.8382794 295.38476086 415.80984783 C295.38991076 415.09327329 295.39506067 414.37669875 295.40036663 413.63840982 C295.41401193 411.23074528 295.40629334 408.82362385 295.39872742 406.41593933 C295.40416525 404.67507865 295.41091612 402.93422165 295.41886932 401.19337064 C295.43693659 396.40456195 295.43633243 391.61590799 295.43273985 386.82707322 C295.43211722 381.66485138 295.44872463 376.50268201 295.46325684 371.34048462 C295.48607322 362.39494122 295.49793319 353.44943685 295.50238609 344.5038662 C295.50884006 331.57002634 295.53176416 318.6362571 295.55872939 305.70244566 C295.60202868 284.71903946 295.63197748 263.73563621 295.65356445 242.75219727 C295.67456473 222.36676572 295.70186577 201.98135861 295.73754883 181.59594727 C295.74086909 179.69240409 295.74086909 179.69240409 295.74425644 177.75040549 C295.76161639 167.82600813 295.7793422 157.90161144 295.79718363 147.97721493 C295.884566 99.31815844 295.94003169 50.65911292 296 2 C153.935 2.495 153.935 2.495 9 3 C9 3.99 9 4.98 9 6 C11.8684413 8.10232344 11.8684413 8.10232344 15 9 C14.34 10.32 13.68 11.64 13 13 C11.95203782 12.15356901 10.91207308 11.29723808 9.875 10.4375 C9.29492188 9.96183594 8.71484375 9.48617187 8.1171875 8.99609375 C5.17840912 6.22540048 2.62851724 3.06660344 0 0 Z " fill="#DF4854" transform="translate(500,201)"/>
<path d="M0 0 C0.33 0 0.66 0 1 0 C1.06863638 53.89593154 1.12151367 107.79185867 1.15319599 161.6878253 C1.1569482 168.04782436 1.16083116 174.40782333 1.16479492 180.76782227 C1.16558185 182.03400676 1.16636878 183.30019125 1.16717956 184.60474496 C1.18024066 205.11831782 1.20389838 225.63186551 1.23145839 246.14542342 C1.259493 267.18741656 1.27617214 288.2293965 1.28226548 309.27140754 C1.28638596 322.25998659 1.29940961 335.2484945 1.3237494 348.23705166 C1.33958258 357.13853632 1.34440584 366.0399841 1.34050413 374.94148184 C1.33857882 380.08049906 1.34157205 385.21939179 1.35761642 390.35838699 C1.37219445 395.06197781 1.37296596 399.76536019 1.36269668 404.46896052 C1.3614271 406.17163518 1.36525038 407.87432276 1.37464955 409.57697196 C1.38667977 411.89053638 1.38020567 414.20334727 1.36914349 416.51690006 C1.37028265 417.80225338 1.37142181 419.0876067 1.37259549 420.41191012 C0.82385378 425.6962859 -1.23036391 429.97626106 -4 434.5 C-5.44376594 436.90809262 -6.48438609 439.23643608 -7.4375 441.875 C-7.953125 442.90625 -8.46875 443.9375 -9 445 C-11.375 445.6875 -11.375 445.6875 -14 446 C-15.6825613 447.31321858 -17.34997172 448.64613064 -19 450 C-21.87735595 450.91469631 -24.75335838 451.25402219 -27.75 451.5625 C-28.94882812 451.68818359 -28.94882812 451.68818359 -30.171875 451.81640625 C-30.77515625 451.87699219 -31.3784375 451.93757813 -32 452 C-29.90320934 450.93955415 -27.80096104 449.90798199 -25.66796875 448.921875 C-15.14720594 443.95143588 -9.74854049 438.13109115 -4 428 C-3.2205803 426.65569037 -3.2205803 426.65569037 -2.42541474 425.28422296 C-0.77696805 421.48612384 -0.62136898 418.80269171 -0.61523914 414.67118263 C-0.61008924 413.95176587 -0.60493933 413.23234911 -0.59963337 412.49113184 C-0.58601457 410.07981995 -0.59369937 407.66905252 -0.60127258 405.25772095 C-0.59583344 403.51187242 -0.58908201 401.76602758 -0.58113068 400.02018869 C-0.56308013 395.22223779 -0.56366554 390.42444147 -0.56726015 385.62646461 C-0.56788321 380.45267206 -0.55127132 375.27893174 -0.53674316 370.10516357 C-0.513935 361.14108521 -0.50206822 352.17704576 -0.49761391 343.21294022 C-0.49115791 330.25232736 -0.46823021 317.29178492 -0.44127061 304.33120041 C-0.39797928 283.30398074 -0.36802592 262.27676404 -0.34643555 241.24951172 C-0.32543289 220.82241358 -0.29816402 200.39533967 -0.26245117 179.96826172 C-0.26025235 178.70932593 -0.25805352 177.45039013 -0.25578807 176.15330477 C-0.24471859 169.83765032 -0.23352575 163.5219961 -0.22227156 157.20634198 C-0.12905324 104.80424942 -0.05747066 52.40214312 0 0 Z " fill="#FFEFF7" transform="translate(798,202)"/>
<path d="M0 0 C33.33499996 0 66.66788531 0.56141954 100 1 C100 72.28 100 143.56 100 217 C93.25 217 93.25 217 90 214 C92.64 214 95.28 214 98 214 C98 145.03 98 76.06 98 5 C95.36052914 3.68026457 93.3462718 3.84619404 90.38989258 3.81054688 C89.20877396 3.79382935 88.02765533 3.77711182 86.81074524 3.7598877 C85.51839462 3.74631226 84.22604401 3.73273682 82.89453125 3.71875 C81.53675159 3.70066005 80.17897872 3.68205493 78.82121277 3.66296387 C75.21473503 3.61325972 71.60821361 3.56885837 68.00164795 3.52606201 C61.65336174 3.45048507 55.30516725 3.36850723 48.95703125 3.28125 C48.26281193 3.27186401 47.56859261 3.26247803 46.85333633 3.25280762 C31.56197897 3.04089907 16.28239175 2.55502194 1 2 C0.67 1.34 0.34 0.68 0 0 Z " fill="#FEDBDD" transform="translate(608,290)"/>
<path d="M0 0 C2.16559374 -0.37259549 2.16559374 -0.37259549 4.91568947 -0.36914349 C5.96120684 -0.37511663 7.00672422 -0.38108978 8.08392394 -0.38724393 C9.24149179 -0.3785054 10.39905965 -0.36976688 11.59170532 -0.36076355 C13.42574183 -0.36460846 13.42574183 -0.36460846 15.29682958 -0.36853105 C18.70157286 -0.37263158 22.10580365 -0.36320539 25.51048517 -0.34819686 C29.17783275 -0.33528101 32.84516356 -0.33962279 36.51252747 -0.34190369 C42.87007043 -0.34347925 49.22752126 -0.33404057 55.58504105 -0.31719017 C64.77701223 -0.29284297 73.96893872 -0.2849993 83.16093867 -0.2812262 C98.07313803 -0.27465498 112.98528826 -0.25467566 127.89746094 -0.22631836 C142.3860652 -0.19879512 156.87465613 -0.17755306 171.36328125 -0.16479492 C172.7021606 -0.16361267 172.7021606 -0.16361267 174.06808801 -0.16240653 C178.54578396 -0.15849151 183.02348001 -0.15470036 187.50117612 -0.15097082 C224.66748545 -0.11985403 261.8337389 -0.06700003 299 0 C299 0.33 299 0.66 299 1 C151.985 1.495 151.985 1.495 2 2 C3.32 3.65 4.64 5.3 6 7 C3.0280615 5.87548273 0.66559313 4.77706209 -2 3 C-1.34 2.01 -0.68 1.02 0 0 Z " fill="#FEEAEB" transform="translate(499,200)"/>
<path d="M0 0 C5.50450873 3.92080929 10.55186146 8.20027801 15.5390625 12.7578125 C17.7909289 14.809513 20.07244442 16.81809312 22.375 18.8125 C25.02120015 21.1158726 27.56839026 23.46707319 30 26 C25.50930926 24.77526616 23.15626462 23.3817121 20 20 C19.34 20 18.68 20 18 20 C17.67 20.66 17.34 21.32 17 22 C17.99 22.33 18.98 22.66 20 23 C18.61122646 26.35620271 17.08322035 28.07298728 14 30 C13.34 30 12.68 30 12 30 C12.50424183 27.98303268 13.00466262 25.98507962 13.625 24 C14.05725887 21.69461938 13.71120955 20.21265195 13 18 C13.66 18.33 14.32 18.66 15 19 C15 18.01 15 17.02 15 16 C14.34 15.67 13.68 15.34 13 15 C13 14.01 13 13.02 13 12 C11.02 12.33 9.04 12.66 7 13 C7 11.35 7 9.7 7 8 C4.03 7.01 1.06 6.02 -2 5 C-1.34 3.35 -0.68 1.7 0 0 Z " fill="#E32532" transform="translate(612,432)"/>
<path d="M0 0 C11.39429484 0.91889475 20.147056 4.2118637 30 10 C30 10.66 30 11.32 30 12 C32.31 12.33 34.62 12.66 37 13 C37.495 15.475 37.495 15.475 38 18 C39.32 18 40.64 18 42 18 C42 18.99 42 19.98 42 21 C42.66 20.67 43.32 20.34 44 20 C44 19.01 44 18.02 44 17 C46.0625 19.75 46.0625 19.75 48 23 C47.62109375 25.203125 47.62109375 25.203125 47 27 C46.32195312 26.43152344 45.64390625 25.86304688 44.9453125 25.27734375 C41.98620495 22.82235009 38.99934093 20.40564106 36 18 C35.24460937 17.38125 34.48921875 16.7625 33.7109375 16.125 C24.0306742 8.73653049 11.72134369 4.09117096 0 1 C0 0.67 0 0.34 0 0 Z " fill="#D13140" transform="translate(288,296)"/>
<path d="M0 0 C0.33 0 0.66 0 1 0 C1.33 4.95 1.66 9.9 2 15 C6.18772883 14.69035458 10.37516483 14.3773876 14.5625 14.0625 C15.74392578 13.97548828 16.92535156 13.88847656 18.14257812 13.79882812 C25.23152605 13.27936716 25.23152605 13.27936716 32.27734375 12.37109375 C33.62505859 12.18740234 33.62505859 12.18740234 35 12 C35.495 12.495 35.495 12.495 36 13 C38.69235776 13.23678716 41.36498156 13.42198025 44.0625 13.5625 C45.20041992 13.62727539 45.20041992 13.62727539 46.36132812 13.69335938 C48.24065438 13.79973633 50.12030244 13.90039934 52 14 C52 14.33 52 14.66 52 15 C51.27111572 15.01981934 50.54223145 15.03963867 49.79125977 15.06005859 C36.92404588 15.42691151 24.1975883 15.88207441 11.43359375 17.58984375 C7.23761973 18.09106932 3.21788613 18.15337768 -1 18 C-1.18451025 5.33029613 -1.18451025 5.33029613 0 0 Z " fill="#D72C3C" transform="translate(204,276)"/>
<path d="M0 0 C2.91517292 1.07401108 4.77810176 1.77810176 7 4 C10.08347826 4.16681109 10.08347826 4.16681109 13 4 C13.25394531 4.63808594 13.50789062 5.27617187 13.76953125 5.93359375 C14.11371094 6.75988281 14.45789063 7.58617187 14.8125 8.4375 C15.14894531 9.26121094 15.48539063 10.08492188 15.83203125 10.93359375 C16.88403088 13.33372488 16.88403088 13.33372488 20 14 C20.4125 14.99 20.825 15.98 21.25 17 C21.8275 17.99 22.405 18.98 23 20 C26.59385054 20.97873538 26.59385054 20.97873538 30 21 C29.67 21.99 29.34 22.98 29 24 C28.34 24 27.68 24 27 24 C26.67 24.99 26.34 25.98 26 27 C17.89453125 18.89453125 17.89453125 18.89453125 16.4296875 17.42773438 C15.07881885 16.07871118 13.72125073 14.73640628 12.36328125 13.39453125 C10.27753502 11.2812049 8.30870708 9.12657673 6.375 6.875 C4.32542886 4.49156207 2.25030417 2.19575134 0 0 Z " fill="#DE313E" transform="translate(560,262)"/>
<path d="M0 0 C3.46693687 0.59191605 5.24590819 1.81954463 7.8125 4.1875 C8.5034375 4.81140625 9.194375 5.4353125 9.90625 6.078125 C10.5971875 6.71234375 11.288125 7.3465625 12 8 C13.26385869 9.15352182 14.53418653 10.30001767 15.8125 11.4375 C16.35519531 11.93121094 16.89789063 12.42492187 17.45703125 12.93359375 C19.09871647 14.28428001 19.09871647 14.28428001 22 14 C22.33 14.33 22.66 14.66 23 15 C23.66 14.67 24.32 14.34 25 14 C25 15.32 25 16.64 25 18 C25.66 18 26.32 18 27 18 C27 18.66 27 19.32 27 20 C27.66 20 28.32 20 29 20 C29.33 19.34 29.66 18.68 30 18 C30.2475 18.61875 30.495 19.2375 30.75 19.875 C32.20628639 22.35068687 33.37812506 22.95125002 36 24 C35.67 24.66 35.34 25.32 35 26 C35.33 26.33 35.66 26.66 36 27 C35.01 27.66 34.02 28.32 33 29 C32.09121094 28.21238281 31.18242187 27.42476563 30.24609375 26.61328125 C29.64571289 26.0929834 29.04533203 25.57268555 28.42675781 25.03662109 C27.08873858 23.87693874 25.75085019 22.71710539 24.41308594 21.55712891 C20.8682589 18.48378541 17.32131323 15.41296076 13.76953125 12.34765625 C13.09543213 11.7652417 12.42133301 11.18282715 11.72680664 10.58276367 C10.43122195 9.46350779 9.13486261 8.34514784 7.83764648 7.2277832 C7.24669189 6.71691162 6.6557373 6.20604004 6.046875 5.6796875 C5.52963867 5.23351074 5.01240234 4.78733398 4.47949219 4.32763672 C2.92939525 2.93664214 1.45961529 1.48519393 0 0 Z " fill="#DE2D3C" transform="translate(401,379)"/>
<path d="M0 0 C1.56307035 4.40865997 0.02851683 6.8543765 -1.8828125 10.89453125 C-3.06187552 13.11661156 -4.48241808 14.9995511 -6 17 C-6.72351427 18.98014432 -7.40265389 20.97821315 -8 23 C-8.721875 23.0825 -9.44375 23.165 -10.1875 23.25 C-13.56398961 24.15039723 -15.320982 25.80183139 -18 28 C-20.87735595 28.91469631 -23.75335838 29.25402219 -26.75 29.5625 C-27.94882812 29.68818359 -27.94882812 29.68818359 -29.171875 29.81640625 C-29.77515625 29.87699219 -30.3784375 29.93757812 -31 30 C-28.90320934 28.93955415 -26.80096104 27.90798199 -24.66796875 26.921875 C-12.20966156 21.03606058 -5.72407794 12.45828728 0 0 Z " fill="#FDE5E1" transform="translate(797,624)"/>
<path d="M0 0 C2.9375 0.375 2.9375 0.375 6 1 C6.99 1 7.98 1 9 1 C9 1.66 9 2.32 9 3 C9.62648438 3.20496094 10.25296875 3.40992188 10.8984375 3.62109375 C11.71570313 3.89050781 12.53296875 4.15992188 13.375 4.4375 C14.18710937 4.70433594 14.99921875 4.97117187 15.8359375 5.24609375 C18 6 18 6 20 7 C21.42718877 7.09538588 22.85869124 7.13073477 24.2890625 7.1328125 C25.14886719 7.13410156 26.00867188 7.13539063 26.89453125 7.13671875 C27.79558594 7.13285156 28.69664062 7.12898437 29.625 7.125 C30.94177734 7.13080078 30.94177734 7.13080078 32.28515625 7.13671875 C37.6144196 7.12880008 42.72694774 6.77436432 48 6 C43.7778291 10.2221709 36.65195181 10.17598924 30.9375 10.375 C19.52683415 10.1879399 8.33938615 6.6726072 -2 2 C-1.34 1.34 -0.68 0.68 0 0 Z " fill="#D93344" transform="translate(724,645)"/>
<path d="M0 0 C0.433125 0.474375 0.86625 0.94875 1.3125 1.4375 C3.02309613 3.23686957 3.02309613 3.23686957 6 4 C6 5.32 6 6.64 6 8 C7.093125 8.268125 8.18625 8.53625 9.3125 8.8125 C14.05626598 10.34015345 14.05626598 10.34015345 16 13 C16.268125 13.66 16.53625 14.32 16.8125 15 C17.93007018 17.29827559 17.93007018 17.29827559 20.9375 18.4375 C24.36951277 20.18852692 25.34332392 21.59461027 27 25 C23.02815947 23.62649365 20.27079172 21.82411754 17.0625 19.125 C16.11890625 18.33480469 15.1753125 17.54460937 14.203125 16.73046875 C13.13453163 15.82135177 12.06688818 14.91111749 11 14 C10.38189453 13.4735791 9.76378906 12.9471582 9.12695312 12.40478516 C5.07337086 8.94952136 1.03284711 5.47943452 -3 2 C-2.01 1.34 -1.02 0.68 0 0 Z " fill="#FDF1EE" transform="translate(671,479)"/>
<path d="M0 0 C0.66 0 1.32 0 2 0 C2.33 0.99 2.66 1.98 3 3 C4.99107248 4.01765927 6.99218823 5.01577854 9 6 C10.33333333 7.33333333 11.66666667 8.66666667 13 10 C15.63222962 11.25436187 15.63222962 11.25436187 18 12 C18 12.99 18 13.98 18 15 C18.66 15.33 19.32 15.66 20 16 C21.625 17.4375 21.625 17.4375 23 19 C23 19.66 23 20.32 23 21 C23.99 21.33 24.98 21.66 26 22 C25.34 22.66 24.68 23.32 24 24 C23.26136719 23.31035156 22.52273438 22.62070312 21.76171875 21.91015625 C20.73767195 20.96019015 19.71287593 20.01103131 18.6875 19.0625 C18.1514917 18.56613037 17.6154834 18.06976074 17.06323242 17.55834961 C12.58078621 13.44664686 7.91364467 9.67067224 3.08203125 5.97265625 C0.91761248 3.92194053 0.33247557 2.91405058 0 0 Z " fill="#D72C39" transform="translate(578,528)"/>
<path d="M0 0 C0.66 0 1.32 0 2 0 C2.4228125 0.71929687 2.845625 1.43859375 3.28125 2.1796875 C5.29032805 5.47640193 7.6048471 7.58006721 10.5 10.125 C17.61145598 16.41443284 17.61145598 16.41443284 19 18 C19 18.66 19 19.32 19 20 C20.32 19.01 21.64 18.02 23 17 C23.33 18.32 23.66 19.64 24 21 C23.34 21.33 22.68 21.66 22 22 C23.32 23.32 24.64 24.64 26 26 C25.67 26.66 25.34 27.32 25 28 C16.42 19.42 7.84 10.84 -1 2 C-0.67 1.34 -0.34 0.68 0 0 Z " fill="#C32D3A" transform="translate(518,217)"/>
<path d="M0 0 C0.99 0.66 1.98 1.32 3 2 C2.50371094 2.49886719 2.00742188 2.99773437 1.49609375 3.51171875 C-4.4454362 9.79147621 -8.1941071 16.30496029 -12 24 C-13.1171875 20.28125 -13.1171875 20.28125 -12.0625 17.75 C-11.711875 17.1725 -11.36125 16.595 -11 16 C-11.66 16 -12.32 16 -13 16 C-11.61387367 11.00994522 -9.18965998 9.79310666 -5 7 C-3.1327789 4.75933468 -1.60081915 2.44831164 0 0 Z " fill="#FDE9E8" transform="translate(221,240)"/>
<path d="M0 0 C2.31 0 4.62 0 7 0 C7.33 0.66 7.66 1.32 8 2 C7.67 2.66 7.34 3.32 7 4 C7.66 4 8.32 4 9 4 C9.45375 4.639375 9.9075 5.27875 10.375 5.9375 C12.21084873 8.2676157 13.12909413 8.60401298 16 9 C16 9.99 16 10.98 16 12 C16.5775 12.268125 17.155 12.53625 17.75 12.8125 C20.0325868 14.01719859 21.9737942 15.40798115 24 17 C23.34 17.99 22.68 18.98 22 20 C20.74896484 18.82244141 20.74896484 18.82244141 19.47265625 17.62109375 C13.67640451 12.19935046 7.90838531 6.92701322 1.51171875 2.20703125 C1.01285156 1.80871094 0.51398437 1.41039062 0 1 C0 0.67 0 0.34 0 0 Z " fill="#FDEBE6" transform="translate(608,428)"/>
<path d="M0 0 C7.14117402 2.09009971 12.27000361 4.350876 16 11 C17.01362718 11.88725987 18.05800927 12.74018563 19.125 13.5625 C22.04457276 16.03778995 22.39278963 16.49743284 23 20 C14.703664 14.09683784 7.12586894 7.27179117 0 0 Z " fill="#FCDDDB" transform="translate(488,324)"/>
<path d="M0 0 C0.86625 0.4640625 0.86625 0.4640625 1.75 0.9375 C3.86895512 1.93811769 5.6926424 2.6154404 8 3 C8.66 2.67 9.32 2.34 10 2 C10.28875 2.804375 10.5775 3.60875 10.875 4.4375 C11.73262568 7.1326468 11.73262568 7.1326468 14 8 C14.33 7.34 14.66 6.68 15 6 C14.979375 6.763125 14.95875 7.52625 14.9375 8.3125 C14.87057159 11.10185786 14.87057159 11.10185786 16 14 C17.93330603 15.09166275 17.93330603 15.09166275 20 16 C20.66 16.66 21.32 17.32 22 18 C17.83048082 18 16.80585535 16.27042164 13.8125 13.4375 C9.74032062 9.61961935 5.61320204 5.89701576 1.36328125 2.27734375 C0.91339844 1.85582031 0.46351563 1.43429687 0 1 C0 0.67 0 0.34 0 0 Z " fill="#E22837" transform="translate(640,583)"/>
<path d="M0 0 C4.11813815 1.52959417 7.199301 4.66702737 10.1875 7.8125 C9.5275 7.8125 8.8675 7.8125 8.1875 7.8125 C8.1875 8.4725 8.1875 9.1325 8.1875 9.8125 C8.8475 9.8125 9.5075 9.8125 10.1875 9.8125 C11.4765625 11.34375 11.4765625 11.34375 12.8125 13.3125 C13.25851562 13.9621875 13.70453125 14.611875 14.1640625 15.28125 C14.67066406 16.03921875 14.67066406 16.03921875 15.1875 16.8125 C11.36040304 15.20584137 8.7153708 12.74077599 5.6875 9.9375 C4.27984375 8.64199219 4.27984375 8.64199219 2.84375 7.3203125 C0.58435995 5.18718248 -1.63102983 3.02484003 -3.8125 0.8125 C-1.8125 -0.1875 -1.8125 -0.1875 0 0 Z " fill="#EF1C2F" transform="translate(491.8125,452.1875)"/>
<path d="M0 0 C13.76035266 -0.29705178 27.39434518 -0.43745601 41.0625 1.375 C42.02422119 1.50108643 42.98594238 1.62717285 43.97680664 1.75708008 C50.58025612 2.72017074 50.58025612 2.72017074 54 5 C51.37431025 4.88425034 48.74985333 4.75756835 46.125 4.625 C45.39796875 4.5940625 44.6709375 4.563125 43.921875 4.53125 C39.94335039 4.32185397 36.2014153 3.87598236 32.3125 3 C25.87846798 1.62938531 19.4323881 1.5434982 12.875 1.375 C11.63234375 1.33632813 10.3896875 1.29765625 9.109375 1.2578125 C6.07305681 1.16438732 3.0367315 1.07861881 0 1 C0 0.67 0 0.34 0 0 Z " fill="#FBB2B8" transform="translate(229,291)"/>
<path d="M0 0 C2.475 0.495 2.475 0.495 5 1 C5 1.66 5 2.32 5 3 C6.32 2.67 7.64 2.34 9 2 C9.33 2.99 9.66 3.98 10 5 C10.66 4.67 11.32 4.34 12 4 C12.1546875 4.928125 12.1546875 4.928125 12.3125 5.875 C12.87525373 8.36526484 12.87525373 8.36526484 16 10 C15.67 11.32 15.34 12.64 15 14 C12.68404334 12.04563141 10.37217632 10.08676589 8.0625 8.125 C7.40314453 7.56941406 6.74378906 7.01382812 6.06445312 6.44140625 C5.43603516 5.90644531 4.80761719 5.37148438 4.16015625 4.8203125 C3.57886963 4.32805176 2.99758301 3.83579102 2.39868164 3.32861328 C1 2 1 2 0 0 Z " fill="#E92538" transform="translate(363,346)"/>
<path d="M0 0 C5.59363406 4.06133537 10.85963514 8.3791401 16 13 C15.34 13.66 14.68 14.32 14 15 C14 14.34 14 13.68 14 13 C12.824375 13.0928125 12.824375 13.0928125 11.625 13.1875 C10.325625 13.0946875 10.325625 13.0946875 9 13 C8.34 12.01 7.68 11.02 7 10 C5.19874078 8.7366734 3.34717884 7.60830731 1.4609375 6.4765625 C0 5 0 5 -0.2109375 2.3359375 C-0.14132812 1.56507813 -0.07171875 0.79421875 0 0 Z " fill="#DB3244" transform="translate(498,333)"/>
<path d="M0 0 C0.99 0.33 1.98 0.66 3 1 C3 1.66 3 2.32 3 3 C3.99 3 4.98 3 6 3 C6.33 2.01 6.66 1.02 7 0 C8.32 1.65 9.64 3.3 11 5 C10.67 5.66 10.34 6.32 10 7 C3.6 7.49230769 3.6 7.49230769 0.5625 5 C0.046875 4.34 -0.46875 3.68 -1 3 C-0.67 2.01 -0.34 1.02 0 0 Z " fill="#E32024" transform="translate(522,359)"/>
<path d="M0 0 C2.475 0.99 2.475 0.99 5 2 C5 3.32 5 4.64 5 6 C6.36125 6.37125 6.36125 6.37125 7.75 6.75 C12.22536458 8.47129407 14.26979021 10.39353845 16.25 14.75 C16.4975 15.4925 16.745 16.235 17 17 C10.59099023 12.43492321 4.7809839 7.33082532 -1 2 C-0.67 1.34 -0.34 0.68 0 0 Z " fill="#FDE3E1" transform="translate(471,307)"/>
<path d="M0 0 C2 3 2 3 1.93359375 5.15625 C0.58761169 11.51522035 0.58761169 11.51522035 -2.5 14.0625 C-5 15 -5 15 -7 15 C-5.45454854 9.52067211 -2.84456788 4.88570819 0 0 Z " fill="#DC2734" transform="translate(215,251)"/>
<path d="M0 0 C0.66 0.33 1.32 0.66 2 1 C-3.96774194 8.25806452 -3.96774194 8.25806452 -6 10 C-6.66 10 -7.32 10 -8 10 C-8 10.66 -8 11.32 -8 12 C-8.66 12 -9.32 12 -10 12 C-10 13.32 -10 14.64 -10 16 C-11.98 16.33 -13.96 16.66 -16 17 C-11.81733645 10.14043178 -6.39733419 4.8464653 0 0 Z " fill="#D0313C" transform="translate(232,234)"/>
<path d="M0 0 C2.31 0 4.62 0 7 0 C7.33 0.99 7.66 1.98 8 3 C8.825 3.28875 9.65 3.5775 10.5 3.875 C11.325 4.24625 12.15 4.6175 13 5 C13.8125 7.625 13.8125 7.625 14 10 C10.19136032 8.65378455 7.34590149 6.94641263 4.1875 4.4375 C3.39730469 3.81746094 2.60710938 3.19742188 1.79296875 2.55859375 C0.90544922 1.78708984 0.90544922 1.78708984 0 1 C0 0.67 0 0.34 0 0 Z " fill="#E02E37" transform="translate(687,624)"/>
<path d="M0 0 C2.31 0.33 4.62 0.66 7 1 C7 2.32 7 3.64 7 5 C9.8684413 7.10232344 9.8684413 7.10232344 13 8 C12.34 9.32 11.68 10.64 11 12 C2.63371151 4.94975689 2.63371151 4.94975689 0 2 C0 1.34 0 0.68 0 0 Z " fill="#DD2C3E" transform="translate(502,202)"/>
<path d="M0 0 C8.74625702 2.01836701 15.41073351 9.25191647 22 15 C21.01 15.33 20.02 15.66 19 16 C18.278125 15.2575 17.55625 14.515 16.8125 13.75 C12.135755 9.12342836 12.135755 9.12342836 6.4375 6 C3.57085668 4.8239412 2.02092346 3.32031952 0 1 C0 0.67 0 0.34 0 0 Z " fill="#FEE2E1" transform="translate(310,305)"/>
<path d="M0 0 C3.52238047 1.56367357 6.27123994 3.69495889 9.25 6.125 C10.14203125 6.84945312 11.0340625 7.57390625 11.953125 8.3203125 C12.62859375 8.87460938 13.3040625 9.42890625 14 10 C13.34 10.66 12.68 11.32 12 12 C11.01 11.67 10.02 11.34 9 11 C8.67 11.66 8.34 12.32 8 13 C7 10 7 10 7 7 C6.34 6.67 5.68 6.34 5 6 C4.34 5.649375 3.68 5.29875 3 4.9375 C1.06631779 3.85852204 1.06631779 3.85852204 -1 4 C-0.67 2.68 -0.34 1.36 0 0 Z " fill="#DE2A3C" transform="translate(389,241)"/>
<path d="M0 0 C8.63157895 0.99595142 8.63157895 0.99595142 11 3 C11.75 6.625 11.75 6.625 12 10 C7.53318434 7.5635551 3.65941512 4.52231888 0 1 C0 0.67 0 0.34 0 0 Z " fill="#FCE2DF" transform="translate(380,232)"/>
<path d="M0 0 C1.27310312 0.93441535 2.543388 1.87267111 3.8125 2.8125 C4.52019531 3.33457031 5.22789062 3.85664063 5.95703125 4.39453125 C9.79135237 7.4077358 11.3320325 9.05704049 12 14 C10.68 13.67 9.36 13.34 8 13 C8.33 12.34 8.66 11.68 9 11 C8.360625 10.7525 7.72125 10.505 7.0625 10.25 C4.455699 8.67012061 4.70804922 7.83219689 4 5 C2.0162233 3.71563266 2.0162233 3.71563266 0 3 C0 2.01 0 1.02 0 0 Z " fill="#F8F8F1" transform="translate(540,498)"/>
<path d="M0 0 C4.69159716 3.38772897 9.0299782 6.78185183 13 11 C11.35 11 9.7 11 8 11 C7.67 11.66 7.34 12.32 7 13 C5.68 12.67 4.36 12.34 3 12 C3.66 9.69 4.32 7.38 5 5 C4.01 5 3.02 5 2 5 C1.34 3.35 0.68 1.7 0 0 Z " fill="#FBE9E6" transform="translate(613,561)"/>
<path d="M0 0 C-0.66 0 -1.32 0 -2 0 C-1.34 1.65 -0.68 3.3 0 5 C-0.99 5.495 -0.99 5.495 -2 6 C-2 6.99 -2 7.98 -2 9 C-3.1725131 8.04882866 -4.33787015 7.08882991 -5.5 6.125 C-6.1496875 5.59132813 -6.799375 5.05765625 -7.46875 4.5078125 C-7.9740625 4.01023437 -8.479375 3.51265625 -9 3 C-9 2.34 -9 1.68 -9 1 C-3.375 -1.125 -3.375 -1.125 0 0 Z " fill="#E9222C" transform="translate(487,442)"/>
<path d="M0 0 C0.66 0.33 1.32 0.66 2 1 C2 1.99 2 2.98 2 4 C4.31 4 6.62 4 9 4 C8.67 5.65 8.34 7.3 8 9 C8.66 9 9.32 9 10 9 C9.67 9.99 9.34 10.98 9 12 C0.55353075 4.70159453 0.55353075 4.70159453 -3 1 C-2.01 0.67 -1.02 0.34 0 0 Z " fill="#FADBDA" transform="translate(650,461)"/>
<path d="M0 0 C0 0.66 0 1.32 0 2 C-1.65 2.66 -3.3 3.32 -5 4 C-3.35 4.33 -1.7 4.66 0 5 C-0.66 6.32 -1.32 7.64 -2 9 C-3.65 8.67 -5.3 8.34 -7 8 C-7 7.34 -7 6.68 -7 6 C-8.32 5.67 -9.64 5.34 -11 5 C-9.54462432 4.16151196 -8.08559627 3.32936066 -6.625 2.5 C-5.81289062 2.0359375 -5.00078125 1.571875 -4.1640625 1.09375 C-2 0 -2 0 0 0 Z " fill="#DB262F" transform="translate(250,225)"/>
<path d="M0 0 C4.78775956 3.53613714 9.46451416 7.14483704 14 11 C13.67 11.66 13.34 12.32 13 13 C12.34 13 11.68 13 11 13 C10.67 12.34 10.34 11.68 10 11 C7.69034152 9.94647157 5.3570226 8.94280904 3 8 C3.33 6.68 3.66 5.36 4 4 C2.68 4 1.36 4 0 4 C0 2.68 0 1.36 0 0 Z " fill="#D62F3E" transform="translate(422,268)"/>
<path d="M0 0 C0.72445312 0.42152344 1.44890625 0.84304688 2.1953125 1.27734375 C3.16210938 1.82519531 4.12890625 2.37304688 5.125 2.9375 C6.07632813 3.48277344 7.02765625 4.02804687 8.0078125 4.58984375 C11.06256432 6.02948527 13.66134387 6.60867384 17 7 C17 7.66 17 8.32 17 9 C12.45194365 9.17835515 9.1205746 8.99785435 5 7 C5 6.34 5 5.68 5 5 C3.68 4.67 2.36 4.34 1 4 C0.67 2.68 0.34 1.36 0 0 Z " fill="#D92C38" transform="translate(691,500)"/>
<path d="M0 0 C2.906521 1.3029232 4.80835408 2.70873381 7 5 C7.66 5.33 8.32 5.66 9 6 C9 6.66 9 7.32 9 8 C9.78375 8.28875 10.5675 8.5775 11.375 8.875 C14 10 14 10 16 12 C15.34 12.66 14.68 13.32 14 14 C12.24775086 12.58611621 10.49829345 11.16877217 8.75 9.75 C7.77546875 8.96109375 6.8009375 8.1721875 5.796875 7.359375 C3.39752456 5.33534195 1.17588563 3.25877651 -1 1 C-0.67 0.67 -0.34 0.34 0 0 Z " fill="#FDEAE6" transform="translate(413,258)"/>
<path d="M0 0 C4.1431583 2.31371178 7.71270593 5.12133275 11.3125 8.1875 C11.86228516 8.65091797 12.41207031 9.11433594 12.97851562 9.59179688 C14.32167028 10.72471863 15.66121101 11.8619226 17 13 C16.01 13.33 15.02 13.66 14 14 C13.5875 13.54625 13.175 13.0925 12.75 12.625 C10.93591905 10.94049626 9.24714373 10.00734029 7 9 C7 8.34 7 7.68 7 7 C6.34 7 5.68 7 5 7 C5 6.34 5 5.68 5 5 C4.01 4.67 3.02 4.34 2 4 C2 3.34 2 2.68 2 2 C1.34 2 0.68 2 0 2 C0 1.34 0 0.68 0 0 Z " fill="#D73041" transform="translate(405,254)"/>
<path d="M0 0 C4.66666667 4 9.33333333 8 14 12 C12.02 12.99 12.02 12.99 10 14 C10 13.01 10 12.02 10 11 C8.02 10.01 6.04 9.02 4 8 C4 7.34 4 6.68 4 6 C3.01 6 2.02 6 1 6 C0.67 4.02 0.34 2.04 0 0 Z " fill="#D82639" transform="translate(594,416)"/>
<path d="M0 0 C0 0.33 0 0.66 0 1 C-4.455 1.495 -4.455 1.495 -9 2 C-9 2.66 -9 3.32 -9 4 C-12.63 4.33 -16.26 4.66 -20 5 C-17.55634834 2.55634834 -15.51039337 1.93579473 -12.25 0.8125 C-11.22390625 0.44769531 -10.1978125 0.08289063 -9.140625 -0.29296875 C-5.7148834 -1.0641867 -3.3919613 -0.79721246 0 0 Z " fill="#DB303E" transform="translate(272,219)"/>
<path d="M0 0 C4.69165109 2.97519337 8.84703191 6.31393365 13 10 C12.01 10.33 11.02 10.66 10 11 C10 10.34 10 9.68 10 9 C9.0925 8.938125 8.185 8.87625 7.25 8.8125 C3.22071238 7.80517809 2.15424887 6.47994048 0 3 C0 2.01 0 1.02 0 0 Z " fill="#FDE8E4" transform="translate(496,461)"/>
<path d="M0 0 C2.9719385 1.12451727 5.33440687 2.22293791 8 4 C8 4.66 8 5.32 8 6 C8.721875 6.226875 9.44375 6.45375 10.1875 6.6875 C13.53209313 8.24831013 15.51603959 10.3031287 18 13 C17.67 13.66 17.34 14.32 17 15 C14.72785301 13.06402271 12.45724637 11.12628828 10.1875 9.1875 C9.54490234 8.64029297 8.90230469 8.09308594 8.24023438 7.52929688 C7.61826172 6.99755859 6.99628906 6.46582031 6.35546875 5.91796875 C5.78465576 5.43094482 5.21384277 4.9439209 4.62573242 4.44213867 C3.01956841 3.01735855 1.50185891 1.53368638 0 0 Z " fill="#FEDFE0" transform="translate(392,242)"/>
<path d="M0 0 C4.14524907 3.3883918 7.76906866 6.69209155 11 11 C11.66 11.66 12.32 12.32 13 13 C8.91161216 13 7.60456814 11.30030618 4.65234375 8.66015625 C2.14167048 6.13761219 0 3.65942519 0 0 Z " fill="#FEDCDC" transform="translate(550,252)"/>
<path d="M0 0 C0.99 0.66 1.98 1.32 3 2 C1.41906946 3.12837409 -0.16484716 4.25256518 -1.75 5.375 C-2.63171875 6.00148437 -3.5134375 6.62796875 -4.421875 7.2734375 C-6.57414979 8.71480941 -8.65460523 9.91498093 -11 11 C-11.33 10.34 -11.66 9.68 -12 9 C-11.34 9 -10.68 9 -10 9 C-9.67 7.68 -9.34 6.36 -9 5 C-7.35 5 -5.7 5 -4 5 C-3.67 4.01 -3.34 3.02 -3 2 C-2.01 2 -1.02 2 0 2 C0 1.34 0 0.68 0 0 Z " fill="#FDE2E0" transform="translate(237,228)"/>
<path d="M0 0 C5.19210472 3.80304814 10.15609762 7.76158542 15 12 C14.01 12.33 13.02 12.66 12 13 C11.34 12.67 10.68 12.34 10 12 C10 11.34 10 10.68 10 10 C9.34 10 8.68 10 8 10 C7.67 9.34 7.34 8.68 7 8 C6.38125 7.896875 5.7625 7.79375 5.125 7.6875 C3 7 3 7 1.25 4.5625 C0 2 0 2 0 0 Z " fill="#FEE3E1" transform="translate(336,324)"/>
<path d="M0 0 C0.433125 0.474375 0.86625 0.94875 1.3125 1.4375 C3.02309613 3.23686957 3.02309613 3.23686957 6 4 C6 5.32 6 6.64 6 8 C6.66 8 7.32 8 8 8 C8 8.66 8 9.32 8 10 C5.00779732 8.63629701 2.70973471 7.05091917 0.25 4.875 C-0.36359375 4.33617187 -0.9771875 3.79734375 -1.609375 3.2421875 C-2.06828125 2.83226562 -2.5271875 2.42234375 -3 2 C-2.01 1.34 -1.02 0.68 0 0 Z " fill="#FDE1DD" transform="translate(671,479)"/>
<path d="M0 0 C2.475 0.495 2.475 0.495 5 1 C5 1.66 5 2.32 5 3 C6.65 3.33 8.3 3.66 10 4 C10.66 5.98 11.32 7.96 12 10 C7.53318434 7.5635551 3.65941512 4.52231888 0 1 C0 0.67 0 0.34 0 0 Z " fill="#CD3440" transform="translate(379,360)"/>
<path d="M0 0 C2.31 0.33 4.62 0.66 7 1 C7 2.65 7 4.3 7 6 C9.475 6.99 9.475 6.99 12 8 C12 8.99 12 9.98 12 11 C7.36279281 7.72469104 3.31457218 4.69564393 0 0 Z " fill="#DF3647" transform="translate(336,323)"/>
<path d="M0 0 C4.94515667 2.62711448 8.87775489 6.26645294 13 10 C12.34 10.66 11.68 11.32 11 12 C11 11.34 11 10.68 11 10 C9.68 10 8.36 10 7 10 C7 9.01 7 8.02 7 7 C6.34 7 5.68 7 5 7 C5 6.34 5 5.68 5 5 C2.525 4.01 2.525 4.01 0 3 C0 2.01 0 1.02 0 0 Z " fill="#FEE9E7" transform="translate(668,609)"/>
<path d="M0 0 C0.99 0 1.98 0 3 0 C3 0.66 3 1.32 3 2 C4.1446875 2.1546875 4.1446875 2.1546875 5.3125 2.3125 C8.19700648 3.05039701 9.35495989 3.53243984 11 6 C10.5703125 8.10546875 10.5703125 8.10546875 10 10 C8.33037631 8.52417192 6.6643694 7.04425109 5 5.5625 C4.071875 4.73878906 3.14375 3.91507812 2.1875 3.06640625 C1.465625 2.38449219 0.74375 1.70257813 0 1 C0 0.67 0 0.34 0 0 Z " fill="#DA2B3D" transform="translate(445,416)"/>
<path d="M0 0 C3.76119476 0.62393651 6.18960042 2.34773715 9.25 4.5625 C10.14203125 5.20316406 11.0340625 5.84382813 11.953125 6.50390625 C12.96632813 7.24447266 12.96632813 7.24447266 14 8 C13.67 9.32 13.34 10.64 13 12 C11.39490066 10.56354149 9.79095576 9.12579294 8.1875 7.6875 C7.29417969 6.88699219 6.40085937 6.08648437 5.48046875 5.26171875 C3.60073214 3.54775419 1.77407253 1.82122396 0 0 Z " fill="#FEDDDF" transform="translate(518,350)"/>
<path d="M0 0 C4.84693871 1.41861621 8.81382449 3.20921633 13 6 C13.69921875 8.1328125 13.69921875 8.1328125 14 10 C8.63545519 7.5027119 4.3483523 5.02222588 0 1 C0 0.67 0 0.34 0 0 Z " fill="#FEE9E7" transform="translate(488,324)"/>
<path d="M0 0 C0.33 0.66 0.66 1.32 1 2 C1.99 2 2.98 2 4 2 C4 2.66 4 3.32 4 4 C6.97 4.495 6.97 4.495 10 5 C10.33 5.99 10.66 6.98 11 8 C5.28062041 6.14506608 -0.35555275 4.06896109 -6 2 C-6 1.67 -6 1.34 -6 1 C-4.02 0.67 -2.04 0.34 0 0 Z " fill="#FDE0E0" transform="translate(358,216)"/>
<path d="M0 0 C5.11723176 3.19826985 9.52692892 6.95834187 14 11 C13.34 11.66 12.68 12.32 12 13 C11.236875 12.21625 10.47375 11.4325 9.6875 10.625 C7.09108195 7.92742283 7.09108195 7.92742283 4 6 C4 5.34 4 4.68 4 4 C2.35 3.67 0.7 3.34 -1 3 C-0.67 2.01 -0.34 1.02 0 0 Z " fill="#DA3543" transform="translate(675,487)"/>
<path d="M0 0 C4.6613779 -0.32521241 7.24064446 0.18048334 11 3 C11.99 4.485 11.99 4.485 13 6 C12.01 6 11.02 6 10 6 C9.67 5.34 9.34 4.68 9 4 C8.071875 4.0825 7.14375 4.165 6.1875 4.25 C3 4 3 4 1.125 2 C0.75375 1.34 0.3825 0.68 0 0 Z " fill="#E1202F" transform="translate(506,346)"/>
<path d="M0 0 C1.32 0.33 2.64 0.66 4 1 C4 1.66 4 2.32 4 3 C5.65 3 7.3 3 9 3 C9 3.99 9 4.98 9 6 C9.66 6 10.32 6 11 6 C10.67 7.32 10.34 8.64 10 10 C8.33037631 8.52417192 6.6643694 7.04425109 5 5.5625 C4.071875 4.73878906 3.14375 3.91507812 2.1875 3.06640625 C1.465625 2.38449219 0.74375 1.70257813 0 1 C0 0.67 0 0.34 0 0 Z " fill="#D62C3C" transform="translate(549,505)"/>
<path d="M0 0 C0.66 0.33 1.32 0.66 2 1 C2 1.66 2 2.32 2 3 C2.99 3 3.98 3 5 3 C5 3.99 5 4.98 5 6 C5.66 6.33 6.32 6.66 7 7 C6.4225 6.814375 5.845 6.62875 5.25 6.4375 C2.79307475 5.95976454 1.35602466 6.24270636 -1 7 C-1.99 5.68 -2.98 4.36 -4 3 C-3.01 2.67 -2.02 2.34 -1 2 C-1 2.66 -1 3.32 -1 4 C-0.34 4 0.32 4 1 4 C0.67 2.68 0.34 1.36 0 0 Z " fill="#DF232F" transform="translate(517,211)"/>
<path d="M0 0 C2.875 0.6875 2.875 0.6875 6 2 C7.125 4.5 7.125 4.5 8 7 C9.95021083 8.22527948 9.95021083 8.22527948 12 9 C12.66 9.66 13.32 10.32 14 11 C9.85878264 11 8.16365957 8.75914512 5.3125 6.0625 C4.80138672 5.59392578 4.29027344 5.12535156 3.76367188 4.64257812 C2.48385946 3.45503523 1.23873906 2.23032657 0 1 C0 0.67 0 0.34 0 0 Z " fill="#D03945" transform="translate(648,590)"/>
<path d="M0 0 C1.31611677 0.95336021 2.62778961 1.91285774 3.9375 2.875 C4.66839844 3.40867187 5.39929688 3.94234375 6.15234375 4.4921875 C8 6 8 6 9 8 C8.01 8.33 7.02 8.66 6 9 C5.67 8.01 5.34 7.02 5 6 C4.01 6.33 3.02 6.66 2 7 C0.4375 5.1875 0.4375 5.1875 -1 3 C-0.67 2.01 -0.34 1.02 0 0 Z " fill="#FCE1E1" transform="translate(554,510)"/>
<path d="M0 0 C4.92307692 4.30769231 4.92307692 4.30769231 5.3125 7.8125 C5.209375 8.534375 5.10625 9.25625 5 10 C1.42895561 8.12050295 -0.54744301 6.82946843 -2 3 C-1.01 3 -0.02 3 1 3 C0.67 2.01 0.34 1.02 0 0 Z " fill="#D82534" transform="translate(331,313)"/>
<path d="M0 0 C5.41342681 1.14514798 7.9342948 2.34012809 11 7 C10.01 7.495 10.01 7.495 9 8 C7.49712782 6.85793642 5.99776716 5.71125043 4.5 4.5625 C3.6646875 3.92441406 2.829375 3.28632813 1.96875 2.62890625 C1.3190625 2.09136719 0.669375 1.55382812 0 1 C0 0.67 0 0.34 0 0 Z " fill="#FCE9E4" transform="translate(687,496)"/>
<path d="M0 0 C7.75 1.875 7.75 1.875 10 3 C9.67 4.32 9.34 5.64 9 7 C9.66 7 10.32 7 11 7 C10.67 7.66 10.34 8.32 10 9 C8.33043913 7.69118353 6.66441696 6.37785174 5 5.0625 C4.071875 4.33160156 3.14375 3.60070312 2.1875 2.84765625 C1.465625 2.23792969 0.74375 1.62820313 0 1 C0 0.67 0 0.34 0 0 Z " fill="#FDE1DF" transform="translate(532,362)"/>
<path d="M0 0 C2.475 0.495 2.475 0.495 5 1 C5.33 2.65 5.66 4.3 6 6 C7.32 6 8.64 6 10 6 C9.67 6.99 9.34 7.98 9 9 C4.71930097 7.41455592 2.70478088 4.5312417 0 1 C0 0.67 0 0.34 0 0 Z " fill="#E22E40" transform="translate(320,308)"/>
<path d="M0 0 C-0.33 0.66 -0.66 1.32 -1 2 C-1.66 2 -2.32 2 -3 2 C-3.33 2.99 -3.66 3.98 -4 5 C-5.37562854 3.71034824 -6.70766393 2.37310707 -8 1 C-8 0.34 -8 -0.32 -8 -1 C-4.59745511 -2.2151946 -3.06748874 -1.86240388 0 0 Z " fill="#E02D3B" transform="translate(590,284)"/>
<path d="M0 0 C-2.70045182 1.80030122 -5.06677881 2.93377066 -8.0625 4.125 C-9.37927734 4.65480469 -9.37927734 4.65480469 -10.72265625 5.1953125 C-13 6 -13 6 -15 6 C-15 5.34 -15 4.68 -15 4 C-10.7262195 -0.10940433 -5.67114499 -0.16679838 0 0 Z " fill="#FEE3E2" transform="translate(263,219)"/>
<path d="M0 0 C2.64 0 5.28 0 8 0 C7.67 1.32 7.34 2.64 7 4 C7.99 4 8.98 4 10 4 C10.33 4.99 10.66 5.98 11 7 C6.89188572 5.55007731 3.53144334 3.54592427 0 1 C0 0.67 0 0.34 0 0 Z " fill="#DA3545" transform="translate(703,635)"/>
<path d="M0 0 C1.98 0.66 3.96 1.32 6 2 C6 2.66 6 3.32 6 4 C6.66 4 7.32 4 8 4 C9.2890625 5.53125 9.2890625 5.53125 10.625 7.5 C11.07101562 8.1496875 11.51703125 8.799375 11.9765625 9.46875 C12.48316406 10.22671875 12.48316406 10.22671875 13 11 C9.54691313 9.48729451 7.04375621 7.45279358 4.25 4.9375 C3.45078125 4.22464844 2.6515625 3.51179688 1.828125 2.77734375 C1.22484375 2.19082031 0.6215625 1.60429687 0 1 C0 0.67 0 0.34 0 0 Z " fill="#CF3945" transform="translate(494,458)"/>
<path d="M0 0 C5.78461538 4.43076923 5.78461538 4.43076923 6.875 7.3125 C6.936875 8.1478125 6.936875 8.1478125 7 9 C1.125 6.125 1.125 6.125 0 5 C-0.04063832 3.33382885 -0.042721 1.66611905 0 0 Z " fill="#E12637" transform="translate(498,333)"/>
<path d="M0 0 C1.27609323 0.90933009 2.54565553 1.82782853 3.8125 2.75 C4.87404297 3.51570313 4.87404297 3.51570313 5.95703125 4.296875 C8.02977691 6.02482358 9.47375854 7.78526476 11 10 C9.35 10 7.7 10 6 10 C5.67 8.68 5.34 7.36 5 6 C4.34 6 3.68 6 3 6 C1.375 4.6875 1.375 4.6875 0 3 C0 2.01 0 1.02 0 0 Z " fill="#D1313C" transform="translate(476,314)"/>
<path d="M0 0 C3.53600465 1.91135386 5.78972846 3.62642766 8 7 C6.35 7.33 4.7 7.66 3 8 C2.4465236 5.92446352 2 4.15634036 2 2 C1.01 1.67 0.02 1.34 -1 1 C-0.67 0.67 -0.34 0.34 0 0 Z " fill="#F8EBE3" transform="translate(448,420)"/>
<path d="M0 0 C3.02419525 0.58803797 6.01758453 1.22678118 9 2 C8.67 3.32 8.34 4.64 8 6 C8.66 6 9.32 6 10 6 C9.67 6.66 9.34 7.32 9 8 C7.49712782 6.85793642 5.99776716 5.71125043 4.5 4.5625 C3.6646875 3.92441406 2.829375 3.28632813 1.96875 2.62890625 C1.3190625 2.09136719 0.669375 1.55382812 0 1 C0 0.67 0 0.34 0 0 Z " fill="#FAE5DE" transform="translate(432,276)"/>
<path d="M0 0 C2.3125 -0.25 2.3125 -0.25 5 0 C6.875 1.8125 6.875 1.8125 8 4 C7.67 4.99 7.34 5.98 7 7 C5.83040013 6.02433888 4.66438823 5.044375 3.5 4.0625 C2.8503125 3.51722656 2.200625 2.97195313 1.53125 2.41015625 C1.0259375 1.94480469 0.520625 1.47945312 0 1 C0 0.67 0 0.34 0 0 Z " fill="#DB2F41" transform="translate(664,604)"/>
<path d="M0 0 C3.39192363 0.59283621 5.2107757 1.76743189 7.75 4.0625 C8.67039062 4.88427734 8.67039062 4.88427734 9.609375 5.72265625 C10.29773438 6.35494141 10.29773438 6.35494141 11 7 C10.67 7.66 10.34 8.32 10 9 C6.63983107 7.87994369 5.30935087 6.62788203 3 4 C3 3.34 3 2.68 3 2 C2.01 1.67 1.02 1.34 0 1 C0 0.67 0 0.34 0 0 Z " fill="#FCDFDC" transform="translate(387,369)"/>
<path d="M0 0 C2.31 1.98 4.62 3.96 7 6 C4 8 4 8 1 9 C1.33 7.68 1.66 6.36 2 5 C1.34 4.67 0.68 4.34 0 4 C0 2.68 0 1.36 0 0 Z " fill="#FCECE9" transform="translate(521,223)"/>
<path d="M0 0 C4.43458973 1.3937282 6.87378374 3.60582235 10 7 C9.01 7.33 8.02 7.66 7 8 C6.566875 7.505 6.13375 7.01 5.6875 6.5 C4.00259517 4.66781808 4.00259517 4.66781808 1 5 C0.67 3.35 0.34 1.7 0 0 Z " fill="#DB2C3B" transform="translate(369,225)"/>
<path d="M0 0 C5.40489519 1.52012677 8.98492628 5.27385218 13 9 C12.67 9.66 12.34 10.32 12 11 C10.18401175 9.54601271 8.37230481 8.08667675 6.5625 6.625 C5.04849609 5.40683594 5.04849609 5.40683594 3.50390625 4.1640625 C1 2 1 2 0 0 Z " fill="#CD3945" transform="translate(607,555)"/>
<path d="M0 0 C2.31 0 4.62 0 7 0 C7.93423645 3.01031744 8.04449911 3.86650268 7 7 C5.83040013 6.02433888 4.66438823 5.044375 3.5 4.0625 C2.8503125 3.51722656 2.200625 2.97195313 1.53125 2.41015625 C1.0259375 1.94480469 0.520625 1.47945313 0 1 C0 0.67 0 0.34 0 0 Z " fill="#FBE0DD" transform="translate(608,428)"/>
<path d="M0 0 C3.72114571 2.31537955 6.61229661 4.28579473 9 8 C6.625 7.75 6.625 7.75 4 7 C2.6875 4.9375 2.6875 4.9375 2 3 C1.34 3 0.68 3 0 3 C0 2.01 0 1.02 0 0 Z " fill="#D72A3F" transform="translate(576,401)"/>
<path d="M0 0 C1.31611677 0.95336021 2.62778961 1.91285774 3.9375 2.875 C4.66839844 3.40867187 5.39929688 3.94234375 6.15234375 4.4921875 C8 6 8 6 9 8 C6.03 7.505 6.03 7.505 3 7 C3 6.01 3 5.02 3 4 C2.01 3.67 1.02 3.34 0 3 C0 2.01 0 1.02 0 0 Z " fill="#D72C3E" transform="translate(567,393)"/>
<path d="M0 0 C2.475 0.495 2.475 0.495 5 1 C5 1.66 5 2.32 5 3 C5.99 3.33 6.98 3.66 8 4 C9.1875 6.5625 9.1875 6.5625 10 9 C8.70391053 8.06862408 7.41328368 7.1296434 6.125 6.1875 C5.40570313 5.66542969 4.68640625 5.14335937 3.9453125 4.60546875 C2 3 2 3 0 0 Z " fill="#D32F3C" transform="translate(363,346)"/>
<path d="M0 0 C3.94139078 1.66751148 6.7892812 4.22710649 10 7 C9.34 7.66 8.68 8.32 8 9 C7.67 8.34 7.34 7.68 7 7 C6.195625 6.731875 5.39125 6.46375 4.5625 6.1875 C2 5 2 5 0.6875 2.375 C0.460625 1.59125 0.23375 0.8075 0 0 Z " fill="#DE3643" transform="translate(439,283)"/>
<path d="M0 0 C3.26460973 1.80412643 4.88929795 2.83394693 7 6 C5.68 6.33 4.36 6.66 3 7 C0 3.375 0 3.375 0 0 Z " fill="#FCE7E3" transform="translate(601,551)"/>
<path d="M0 0 C3.80635497 3.20760251 7.54563567 6.40746109 11 10 C5.33802191 8.68326091 3.25415939 6.59410737 0 2 C0 1.34 0 0.68 0 0 Z " fill="#D13B45" transform="translate(631,448)"/>
<path d="M0 0 C1.32 0.66 2.64 1.32 4 2 C4 2.99 4 3.98 4 5 C2.68 5.33 1.36 5.66 0 6 C-0.99 4.68 -1.98 3.36 -3 2 C-2.01 1.34 -1.02 0.68 0 0 Z " fill="#DC2937" transform="translate(442,409)"/>
<path d="M0 0 C5.23880078 0.55145271 9.97350697 1.42922093 15 3 C14.01 3.99 13.02 4.98 12 6 C11.319375 5.525625 10.63875 5.05125 9.9375 4.5625 C6.58158044 2.7774364 3.75838519 2.36846914 0 2 C0 1.34 0 0.68 0 0 Z " fill="#FDE1DE" transform="translate(283,296)"/>
<path d="M0 0 C4.13621084 3.3810038 7.81316569 6.66590534 11 11 C8 11 8 11 6.2109375 9.35546875 C5.60507812 8.64003906 4.99921875 7.92460937 4.375 7.1875 C3.76398437 6.47980469 3.15296875 5.77210938 2.5234375 5.04296875 C1 3 1 3 0 0 Z " fill="#FFEAE9" transform="translate(576,279)"/>
<path d="M0 0 C3.96 1.32 7.92 2.64 12 4 C12 4.33 12 4.66 12 5 C10.56344146 5.08131463 9.1255517 5.13933559 7.6875 5.1875 C6.48673828 5.23970703 6.48673828 5.23970703 5.26171875 5.29296875 C3 5 3 5 1.20703125 3.61328125 C0 2 0 2 0 0 Z " fill="#FDE5E8" transform="translate(723,647)"/>
<path d="M0 0 C1.31611677 0.95336021 2.62778961 1.91285774 3.9375 2.875 C4.66839844 3.40867187 5.39929688 3.94234375 6.15234375 4.4921875 C8 6 8 6 9 8 C2.38016529 6.52892562 2.38016529 6.52892562 0.5625 4 C0 2 0 2 0 0 Z " fill="#FDDEDD" transform="translate(575,528)"/>
<path d="M0 0 C2.97 0.99 5.94 1.98 9 3 C8.34 4.32 7.68 5.64 7 7 C5.83040013 6.02433888 4.66438823 5.044375 3.5 4.0625 C2.8503125 3.51722656 2.200625 2.97195313 1.53125 2.41015625 C1.0259375 1.94480469 0.520625 1.47945313 0 1 C0 0.67 0 0.34 0 0 Z " fill="#FDE0DD" transform="translate(660,473)"/>
<path d="M0 0 C2.912575 0.08566397 4.56798024 0.57910955 6.66796875 2.625 C8.16091772 4.38391375 9.60436262 6.16313019 11 8 C10.67 8.66 10.34 9.32 10 10 C8.33037631 8.52417192 6.6643694 7.04425109 5 5.5625 C4.071875 4.73878906 3.14375 3.91507812 2.1875 3.06640625 C1.465625 2.38449219 0.74375 1.70257813 0 1 C0 0.67 0 0.34 0 0 Z " fill="#FED8DB" transform="translate(575,399)"/>
<path d="M0 0 C4 0 4 0 5.75 1.3125 C7 3 7 3 7 6 C6.01 6 5.02 6 4 6 C4 5.34 4 4.68 4 4 C2.68 3.34 1.36 2.68 0 2 C0 1.34 0 0.68 0 0 Z " fill="#F6172A" transform="translate(518,362)"/>
<path d="M0 0 C3 2 3 2 3.6875 5.125 C3.790625 6.07375 3.89375 7.0225 4 8 C1.69 6.02 -0.62 4.04 -3 2 C-2.01 1.34 -1.02 0.68 0 0 Z " fill="#D7263A" transform="translate(547,244)"/>
<path d="M0 0 C0.66 0.33 1.32 0.66 2 1 C2 1.99 2 2.98 2 4 C1.01 4.495 1.01 4.495 0 5 C1.32 6.32 2.64 7.64 4 9 C3.67 9.66 3.34 10.32 3 11 C0.4375 8.75 0.4375 8.75 -2 6 C-1.85817944 3.51814024 -1.10376548 2.20753096 0 0 Z " fill="#D22532" transform="translate(540,234)"/>
<path d="M0 0 C1.36511719 0.29197266 1.36511719 0.29197266 2.7578125 0.58984375 C3.45648438 0.74582031 4.15515625 0.90179688 4.875 1.0625 C4.875 1.7225 4.875 2.3825 4.875 3.0625 C3.24919034 2.94851335 1.62432843 2.82094341 0 2.6875 C-0.90492188 2.61789063 -1.80984375 2.54828125 -2.7421875 2.4765625 C-5.125 2.0625 -5.125 2.0625 -7.125 0.0625 C-4.4030754 -1.2984623 -2.9418043 -0.64116248 0 0 Z " fill="#FCE2DE" transform="translate(347.125,213.9375)"/>
<path d="M0 0 C2.25 -0.375 2.25 -0.375 5 0 C7.3125 3 7.3125 3 9 6 C8.67 6.66 8.34 7.32 8 8 C6.66372225 6.85760183 5.33104612 5.71098945 4 4.5625 C3.2575 3.92441406 2.515 3.28632813 1.75 2.62890625 C1.1725 2.09136719 0.595 1.55382812 0 1 C0 0.67 0 0.34 0 0 Z " fill="#FDD9DA" transform="translate(599,420)"/>
<path d="M0 0 C1.34173403 0.92543709 2.67320159 1.86577405 4 2.8125 C5.11375 3.59560547 5.11375 3.59560547 6.25 4.39453125 C6.8275 4.92433594 7.405 5.45414062 8 6 C8 6.99 8 7.98 8 9 C4.25366514 7.75122171 2.58958203 5.93952555 0 3 C0 2.01 0 1.02 0 0 Z " fill="#D2313F" transform="translate(558,385)"/>
<path d="M0 0 C2.64 1.98 5.28 3.96 8 6 C4 8 4 8 2 8 C1.33333333 5.33333333 0.66666667 2.66666667 0 0 Z " fill="#DA2938" transform="translate(544,373)"/>
<path d="M0 0 C1.31611677 0.95336021 2.62778961 1.91285774 3.9375 2.875 C4.66839844 3.40867187 5.39929688 3.94234375 6.15234375 4.4921875 C8 6 8 6 9 8 C5.12793601 7.42636089 2.81534937 5.65894107 0 3 C0 2.01 0 1.02 0 0 Z " fill="#FED6D3" transform="translate(540,498)"/>
<path d="M0 0 C2.31 1.65 4.62 3.3 7 5 C6.67 5.66 6.34 6.32 6 7 C4.35 6.67 2.7 6.34 1 6 C0.67 4.02 0.34 2.04 0 0 Z " fill="#FCEAE4" transform="translate(431,405)"/>
<path d="M0 0 C2.64 1.98 5.28 3.96 8 6 C7.01 6.33 6.02 6.66 5 7 C2.7363436 5.59554165 0.9791315 3.8032087 -1 2 C-0.67 1.34 -0.34 0.68 0 0 Z " fill="#FEE5E5" transform="translate(398,377)"/>
<path d="M0 0 C3.65316671 1.24976756 4.78065836 1.67098753 7 5 C4.625 5.125 4.625 5.125 2 5 C1.34 4.34 0.68 3.68 0 3 C0 2.01 0 1.02 0 0 Z " fill="#F71728" transform="translate(502,345)"/>
<path d="M0 0 C0.33 0.66 0.66 1.32 1 2 C0.34 2 -0.32 2 -1 2 C-1 3.32 -1 4.64 -1 6 C-2.98 6.33 -4.96 6.66 -7 7 C-3.375 1.125 -3.375 1.125 0 0 Z " fill="#DF2E40" transform="translate(223,244)"/>
<path d="M0 0 C1.15518918 0.90484792 2.29885406 1.8244206 3.4375 2.75 C4.07558594 3.26046875 4.71367188 3.7709375 5.37109375 4.296875 C7.18810554 6.19667629 7.60423197 7.43586908 8 10 C6.84481082 9.09515208 5.70114594 8.1755794 4.5625 7.25 C3.60537109 6.48429688 3.60537109 6.48429688 2.62890625 5.703125 C0.81189446 3.80332371 0.39576803 2.56413092 0 0 Z " fill="#CF2A3D" transform="translate(530,229)"/>
<path d="M0 0 C0.33 0.66 0.66 1.32 1 2 C3.02463255 2.65213292 3.02463255 2.65213292 5 3 C5.33 4.32 5.66 5.64 6 7 C3 7 3 7 1.3125 5.75 C0 4 0 4 0 0 Z " fill="#EE2132" transform="translate(520,216)"/>
<path d="M0 0 C1.32 0.33 2.64 0.66 4 1 C4 1.66 4 2.32 4 3 C6.475 3.99 6.475 3.99 9 5 C9 5.99 9 6.98 9 8 C7.68388323 7.04663979 6.37221039 6.08714226 5.0625 5.125 C4.33160156 4.59132813 3.60070312 4.05765625 2.84765625 3.5078125 C1 2 1 2 0 0 Z " fill="#E24154" transform="translate(675,614)"/>
<path d="M0 0 C2.35171131 0.59861742 4.6859378 1.26924352 7 2 C7.33 2.66 7.66 3.32 8 4 C6.02 4.99 6.02 4.99 4 6 C0 1.125 0 1.125 0 0 Z " fill="#D9212C" transform="translate(588,537)"/>
<path d="M0 0 C0.99 0.33 1.98 0.66 3 1 C3 1.66 3 2.32 3 3 C4.32 3.66 5.64 4.32 7 5 C6.38125 5.144375 5.7625 5.28875 5.125 5.4375 C2.96741678 5.93152225 2.96741678 5.93152225 1 7 C0.67 4.69 0.34 2.38 0 0 Z " fill="#FCE1E0" transform="translate(509,472)"/>
<path d="M0 0 C1.65 1.65 3.3 3.3 5 5 C4.67 5.66 4.34 6.32 4 7 C2.68 6.34 1.36 5.68 0 5 C0 3.35 0 1.7 0 0 Z " fill="#DB2537" transform="translate(528,359)"/>
<path d="M0 0 C2.37948772 0.17625835 3.70225849 0.69719773 5.37890625 2.40234375 C6.62115486 3.90649092 7.81376056 5.45129851 9 7 C7.68 7 6.36 7 5 7 C4.67 6.01 4.34 5.02 4 4 C1.99983534 2.79117904 1.99983534 2.79117904 0 2 C0 1.34 0 0.68 0 0 Z " fill="#D32F3E" transform="translate(488,326)"/>
<path d="M0 0 C0 0.99 0 1.98 0 3 C0.66 3.33 1.32 3.66 2 4 C-1.20395416 4 -3.09399739 3.25664978 -6 2 C-6 1.34 -6 0.68 -6 0 C-2.25 -1.125 -2.25 -1.125 0 0 Z " fill="#DD202B" transform="translate(476,314)"/>
<path d="M0 0 C3.77727089 1.81309003 7.37269822 3.9073259 11 6 C10.01 6.66 9.02 7.32 8 8 C6.66372225 6.85760183 5.33104612 5.71098945 4 4.5625 C3.2575 3.92441406 2.515 3.28632813 1.75 2.62890625 C1.1725 2.09136719 0.595 1.55382812 0 1 C0 0.67 0 0.34 0 0 Z " fill="#CF3443" transform="translate(426,400)"/>
<path d="M0 0 C0 1.65 0 3.3 0 5 C-4.875 2.25 -4.875 2.25 -6 0 C-3 -1 -3 -1 0 0 Z " fill="#FDE5E3" transform="translate(566,386)"/>
<path d="M0 0 C2.9719385 1.12451727 5.33440687 2.22293791 8 4 C8 4.66 8 5.32 8 6 C8.66 6.33 9.32 6.66 10 7 C6.433255 7 5.89456323 6.36308045 3.3125 4.0625 C2.68988281 3.51722656 2.06726563 2.97195313 1.42578125 2.41015625 C0.95527344 1.94480469 0.48476563 1.47945313 0 1 C0 0.67 0 0.34 0 0 Z " fill="#D43243" transform="translate(392,371)"/>
<path d="M0 0 C3.36591866 1.44253657 5.51047079 3.33264727 8 6 C7.01 6.33 6.02 6.66 5 7 C5 6.34 5 5.68 5 5 C4.34 5 3.68 5 3 5 C3 4.34 3 3.68 3 3 C2.01 3.33 1.02 3.66 0 4 C0 2.68 0 1.36 0 0 Z " fill="#FCE6E3" transform="translate(368,352)"/>
<path d="M0 0 C2 2 2 2 2.5 4.0625 C2.665 4.701875 2.83 5.34125 3 6 C3.66 6.33 4.32 6.66 5 7 C5 7.66 5 8.32 5 9 C3.0625 8.625 3.0625 8.625 1 8 C-0.35439668 5.29120665 -0.06501451 2.99066732 0 0 Z " fill="#E12024" transform="translate(210,263)"/>
<path d="M0 0 C2.31 0.66 4.62 1.32 7 2 C6.34 3.32 5.68 4.64 5 6 C3.31237149 4.3545622 1.6459651 2.68711423 0 1 C0 0.67 0 0.34 0 0 Z " fill="#D63443" transform="translate(551,252)"/>
<path d="M0 0 C2.64 1.98 5.28 3.96 8 6 C5 7 5 7 2.3125 5.8125 C1.549375 5.214375 0.78625 4.61625 0 4 C0 2.68 0 1.36 0 0 Z " fill="#FEDFDB" transform="translate(640,584)"/>
<path d="M0 0 C0.99 0.33 1.98 0.66 3 1 C3 2.98 3 4.96 3 7 C1.68 6.01 0.36 5.02 -1 4 C-0.67 2.68 -0.34 1.36 0 0 Z " fill="#E12130" transform="translate(604,548)"/>
<path d="M0 0 C2.31 0.66 4.62 1.32 7 2 C6.34 3.32 5.68 4.64 5 6 C3.35 4.02 1.7 2.04 0 0 Z " fill="#D9293B" transform="translate(569,522)"/>
<path d="M0 0 C2.64 1.98 5.28 3.96 8 6 C5 7 5 7 2 6 C0.8125 2.9375 0.8125 2.9375 0 0 Z " fill="#FDDCDB" transform="translate(519,480)"/>
<path d="M0 0 C2.64 1.98 5.28 3.96 8 6 C5.37886292 6 3.49064888 5.68707555 1 5 C0.67 3.35 0.34 1.7 0 0 Z " fill="#CD2F3D" transform="translate(667,480)"/>
<path d="M0 0 C2.125 0.375 2.125 0.375 4 1 C4 2.65 4 4.3 4 6 C2.02 4.68 0.04 3.36 -2 2 C-1.34 1.34 -0.68 0.68 0 0 Z " fill="#DD2839" transform="translate(490,452)"/>
<path d="M0 0 C1.98 0.66 3.96 1.32 6 2 C6 2.66 6 3.32 6 4 C6.99 4.33 7.98 4.66 9 5 C8.34 5.66 7.68 6.32 7 7 C5.83040013 6.02433888 4.66438823 5.044375 3.5 4.0625 C2.8503125 3.51722656 2.200625 2.97195313 1.53125 2.41015625 C1.0259375 1.94480469 0.520625 1.47945313 0 1 C0 0.67 0 0.34 0 0 Z " fill="#FCD4D4" transform="translate(548,376)"/>
<path d="M0 0 C2.31 1.65 4.62 3.3 7 5 C5 6 5 6 1.875 5.0625 C0.92625 4.711875 -0.0225 4.36125 -1 4 C-0.67 2.68 -0.34 1.36 0 0 Z " fill="#DB2F40" transform="translate(521,353)"/>
<path d="M0 0 C2.88437779 1.29299694 4.87219421 2.65941363 7 5 C6.67 5.99 6.34 6.98 6 8 C3.69 6.02 1.38 4.04 -1 2 C-0.67 1.34 -0.34 0.68 0 0 Z " fill="#FEDCDE" transform="translate(413,258)"/>
<path d="M0 0 C2.4375 0.8125 2.4375 0.8125 5 2 C5.33 2.99 5.66 3.98 6 5 C3.83125748 4.49396008 2.00032373 4.00016187 0 3 C0 2.01 0 1.02 0 0 Z " fill="#F91724" transform="translate(390,249)"/>
<path d="M0 0 C1.65 0.99 3.3 1.98 5 3 C4.34 4.32 3.68 5.64 3 7 C0 3.375 0 3.375 0 0 Z " fill="#FDE7E3" transform="translate(608,557)"/>
<path d="M0 0 C1.32 0.33 2.64 0.66 4 1 C4 1.66 4 2.32 4 3 C5.32 3.66 6.64 4.32 8 5 C7.67 5.66 7.34 6.32 7 7 C5.83040013 6.02433888 4.66438823 5.044375 3.5 4.0625 C2.8503125 3.51722656 2.200625 2.97195313 1.53125 2.41015625 C1.0259375 1.94480469 0.520625 1.47945313 0 1 C0 0.67 0 0.34 0 0 Z " fill="#CE2C3A" transform="translate(478,444)"/>
<path d="M0 0 C2.64 1.98 5.28 3.96 8 6 C6.68 6.33 5.36 6.66 4 7 C0 2.25 0 2.25 0 0 Z " fill="#FED8DE" transform="translate(472,440)"/>
<path d="M0 0 C2.02054804 1.64169528 4.02043058 3.30911778 6 5 C6 5.33 6 5.66 6 6 C4.35 6 2.7 6 1 6 C0.67 4.02 0.34 2.04 0 0 Z " fill="#D5313F" transform="translate(594,416)"/>
<path d="M0 0 C2.475 0.495 2.475 0.495 5 1 C5 1.66 5 2.32 5 3 C5.66 3 6.32 3 7 3 C7 3.66 7 4.32 7 5 C3.34683329 3.75023244 2.21934164 3.32901247 0 0 Z " fill="#FCEAE4" transform="translate(567,392)"/>
<path d="M0 0 C2.475 0.495 2.475 0.495 5 1 C5 1.66 5 2.32 5 3 C6.65 3.33 8.3 3.66 10 4 C7 5 7 5 5.17578125 4.22265625 C3.45052083 3.1484375 1.72526042 2.07421875 0 1 C0 0.67 0 0.34 0 0 Z " fill="#DD2738" transform="translate(379,360)"/>
<path d="M0 0 C2.31 1.98 4.62 3.96 7 6 C5.68 6.33 4.36 6.66 3 7 C0 2.25 0 2.25 0 0 Z " fill="#FDEEEA" transform="translate(336,324)"/>
<path d="M0 0 C2.64 1.98 5.28 3.96 8 6 C6.68 6.33 5.36 6.66 4 7 C0 2.25 0 2.25 0 0 Z " fill="#D03339" transform="translate(457,298)"/>
</svg>
