<?xml version="1.0" encoding="UTF-8"?>
<svg version="1.1" xmlns="http://www.w3.org/2000/svg" width="200" height="200">
<path d="M0 0 C66 0 132 0 200 0 C200 66 200 132 200 200 C134 200 68 200 0 200 C0 134 0 68 0 0 Z " fill="#FEFEFE" transform="translate(0,0)"/>
<path d="M0 0 C1.7125296 -0.01925285 1.7125296 -0.01925285 3.45965576 -0.03889465 C5.31895721 -0.04997505 5.31895721 -0.04997505 7.21582031 -0.0612793 C8.48613098 -0.06935104 9.75644165 -0.07742279 11.06524658 -0.08573914 C13.75870419 -0.09959131 16.45203893 -0.11060399 19.14550781 -0.11816406 C22.58663115 -0.12920954 26.02710442 -0.16358628 29.4679985 -0.20333576 C32.75887443 -0.23585883 36.04980818 -0.24028631 39.34082031 -0.2487793 C40.57225769 -0.26628738 41.80369507 -0.28379547 43.07244873 -0.30183411 C49.49389171 -0.28555892 53.7195802 -0.27465424 58.54394531 4.17700195 C61.17584964 7.64322753 60.84385681 11.38056999 60.85644531 15.61450195 C60.87320313 16.91258789 60.88996094 18.21067383 60.90722656 19.5480957 C60.51892249 23.42696107 60.03258075 25.20635713 57.54394531 28.17700195 C53.08152642 30.86640552 49.79941526 31.54645625 44.62060547 31.51757812 C43.62442703 31.51823524 43.62442703 31.51823524 42.60812378 31.51890564 C40.43277651 31.51683071 38.25821891 31.49356281 36.08300781 31.4699707 C34.56701071 31.4643701 33.05100815 31.46010219 31.53500366 31.45710754 C27.55976163 31.44569524 23.58485244 31.41625972 19.60974121 31.38299561 C15.54749045 31.35221636 11.48518551 31.33858548 7.42285156 31.32348633 C-0.53693599 31.29138608 -8.49645384 31.24023408 -16.45605469 31.17700195 C-15.9679834 30.10844971 -15.47991211 29.03989746 -14.97705078 27.93896484 C-13.80474927 25.19878648 -13.09345055 22.99930642 -13.12011719 19.9855957 C-13.10722656 19.26823242 -13.09433594 18.55086914 -13.08105469 17.81176758 C-13.08105469 16.3429968 -13.08890929 14.87420569 -13.10449219 13.40551758 C-12.98061528 7.67104903 -11.56234319 5.20265337 -7.45605469 1.17700195 C-4.85223839 -0.12490619 -2.91598999 0.02848272 0 0 Z " fill="#243F67" transform="translate(128.4560546875,90.822998046875)"/>
<path d="M0 0 C-0.33 1.65 -0.66 3.3 -1 5 C-0.278125 5.0825 0.44375 5.165 1.1875 5.25 C5.15395075 6.3077202 7.9086784 8.27143816 10.1171875 11.76953125 C11.91415132 16.30964781 11.65311501 21.2232961 11 26 C9.61187932 28.52657936 8.09910024 29.95209733 6 32 C5.67 33.32 5.34 34.64 5 36 C-1.27 36 -7.54 36 -14 36 C-14.66 34.02 -15.32 32.04 -16 30 C-17.051875 28.576875 -17.051875 28.576875 -18.125 27.125 C-20.41974587 23.30042354 -20.93238614 20.30022917 -20 16 C-17.81254044 10.98856601 -15.14141994 7.22331673 -10 5 C-9.34 5 -8.68 5 -8 5 C-8 3.35 -8 1.7 -8 0 C-5.13822943 -1.43088528 -3.06624227 -0.59991697 0 0 Z " fill="#56B999" transform="translate(101,86)"/>
<path d="M0 0 C0 8.25 0 16.5 0 25 C1.98 25 3.96 25 6 25 C6 22.69 6 20.38 6 18 C6.60328125 17.96261719 7.2065625 17.92523438 7.828125 17.88671875 C11.30132703 17.60101987 14.32892959 17.27824871 17.5625 15.9375 C19.4684949 13.36855035 19.545249 11.08625869 19.40625 7.94140625 C18.80406685 5.0636656 17.29874686 3.72406015 15 2 C15.33 1.34 15.66 0.68 16 0 C27.88 0 39.76 0 52 0 C52.495 0.99 52.495 0.99 53 2 C54.65 1.67 56.3 1.34 58 1 C58.680625 2.4540625 58.680625 2.4540625 59.375 3.9375 C60.65786221 7.07079582 60.65786221 7.07079582 63 8 C63.20413361 13.73842251 63.27141454 18.60539047 61 24 C60.34 24 59.68 24 59 24 C59 24.66 59 25.32 59 26 C57.35 26 55.7 26 54 26 C54.33 25.34 54.66 24.68 55 24 C55.66 24 56.32 24 57 24 C57.66 20.04 58.32 16.08 59 12 C57.35 11.67 55.7 11.34 54 11 C53.34515625 10.48824219 52.6903125 9.97648437 52.015625 9.44921875 C49.43407829 7.59310668 47.88927314 7.68858132 44.75 7.8125 C43.85796875 7.83957031 42.9659375 7.86664063 42.046875 7.89453125 C41.03367187 7.94673828 41.03367187 7.94673828 40 8 C40 6.35 40 4.7 40 3 C39.34 3 38.68 3 38 3 C37.67 4.32 37.34 5.64 37 7 C32.38 7 27.76 7 23 7 C23 12.94 23 18.88 23 25 C21.68 25 20.36 25 19 25 C19 25.99 19 26.98 19 28 C10.09 28 1.18 28 -8 28 C-8.061875 24.2875 -8.12375 20.575 -8.1875 16.75 C-8.21481201 15.5856543 -8.24212402 14.42130859 -8.27026367 13.22167969 C-8.27775635 12.29774414 -8.28524902 11.37380859 -8.29296875 10.421875 C-8.3086792 9.47924805 -8.32438965 8.53662109 -8.34057617 7.56542969 C-7.93597761 4.51774392 -7.12489009 3.19419687 -5 1 C-2 0 -2 0 0 0 Z " fill="#0C2F64" transform="translate(124,93)"/>
<path d="M0 0 C2.64 0 5.28 0 8 0 C8 3.63 8 7.26 8 11 C11.63 11 15.26 11 19 11 C19 7.37 19 3.74 19 0 C26.59 0 34.18 0 42 0 C42 2.31 42 4.62 42 7 C37.05 7 32.1 7 27 7 C27 8.65 27 10.3 27 12 C31.62 12 36.24 12 41 12 C41 13.98 41 15.96 41 18 C36.38 18 31.76 18 27 18 C27 19.65 27 21.3 27 23 C31.95 23 36.9 23 42 23 C42 24.98 42 26.96 42 29 C34.74 29 27.48 29 20 29 C20 25.37 20 21.74 20 18 C15.71 18 11.42 18 7 18 C7 21.63 7 25.26 7 29 C4.69 29 2.38 29 0 29 C0 19.43 0 9.86 0 0 Z " fill="#54B997" transform="translate(11,91)"/>
<path d="M0 0 C0.66 0 1.32 0 2 0 C2.33 1.32 2.66 2.64 3 4 C3.58007812 3.94199219 4.16015625 3.88398437 4.7578125 3.82421875 C8.91321566 3.58422022 12.07047595 3.502904 15.5 6.0625 C18.51882299 9.60961701 19.24477624 11.34925145 19 16 C17.2673402 19.02538645 15.162584 21.418708 12 23 C11.01 22.979375 10.02 22.95875 9 22.9375 C5.88232786 22.65618869 5.88232786 22.65618869 4 25 C1.66162109 25.22705078 1.66162109 25.22705078 -1.2265625 25.1953125 C-2.7734375 25.18564453 -2.7734375 25.18564453 -4.3515625 25.17578125 C-5.43179688 25.15902344 -6.51203125 25.14226562 -7.625 25.125 C-8.71296875 25.11597656 -9.8009375 25.10695313 -10.921875 25.09765625 C-13.61480152 25.07403409 -16.30729255 25.04109556 -19 25 C-19 23.68 -19 22.36 -19 21 C-18.34 20.67 -17.68 20.34 -17 20 C-17 20.66 -17 21.32 -17 22 C-16.34 22 -15.68 22 -15 22 C-15 16.06 -15 10.12 -15 4 C-9.42654907 3.20379272 -6.2947172 3.02750092 -1 4 C-0.67 2.68 -0.34 1.36 0 0 Z " fill="#0F3063" transform="translate(162,96)"/>
<path d="M0 0 C3.5578125 -0.12375 3.5578125 -0.12375 7.1875 -0.25 C7.92508545 -0.28641602 8.6626709 -0.32283203 9.42260742 -0.36035156 C12.94632881 -0.41935784 14.91269077 -0.0522699 17.94921875 1.765625 C20.09182428 4.10004473 20.68560009 4.89727521 20.625 8 C20.3987368 11.10966865 20.05197288 11.93293822 18.0625 14.5 C13.94895266 16.5147987 10.49692378 16.3526999 6 16 C6 18.31 6 20.62 6 23 C4.02 23 2.04 23 0 23 C0 15.41 0 7.82 0 0 Z " fill="#F1F7FB" transform="translate(124,95)"/>
<path d="M0 0 C3.94380481 2.45557658 5.66209574 4.02185608 7.1875 8.4375 C6.93037273 13.32291805 5.45582393 14.62454407 2 18 C-0.90295805 19.45147903 -2.77261779 19.37239025 -6 19 C-10.03318066 16.48877431 -11.70479166 15.0516797 -13 10.4375 C-13 5.54545455 -13 5.54545455 -11 3 C-7.34085646 0.15399947 -4.60021906 -0.75105617 0 0 Z " fill="#E8EFF5" transform="translate(174,100)"/>
<path d="M0 0 C2.31 0 4.62 0 7 0 C7 7.59 7 15.18 7 23 C11.62 23 16.24 23 21 23 C21 24.98 21 26.96 21 29 C14.07 29 7.14 29 0 29 C0 19.43 0 9.86 0 0 Z " fill="#49BB94" transform="translate(58,91)"/>
<path d="M0 0 C2.64 0 5.28 0 8 0 C8 3.63 8 7.26 8 11 C11.63 11 15.26 11 19 11 C19 7.37 19 3.74 19 0 C26.59 0 34.18 0 42 0 C42 2.31 42 4.62 42 7 C37.05 7 32.1 7 27 7 C27 8.65 27 10.3 27 12 C25.35 11.34 23.7 10.68 22 10 C21.6596875 10.9590625 21.6596875 10.9590625 21.3125 11.9375 C20 14 20 14 17.8125 14.75 C14.51604096 15.04301858 11.30744236 15.12720932 8 15 C7 14 7 14 6.90234375 11.05859375 C6.91394531 9.86363281 6.92554688 8.66867188 6.9375 7.4375 C6.94652344 6.23996094 6.95554687 5.04242188 6.96484375 3.80859375 C6.97644531 2.88175781 6.98804688 1.95492187 7 1 C5.02 1 3.04 1 1 1 C1 10.24 1 19.48 1 29 C0.67 29 0.34 29 0 29 C0 19.43 0 9.86 0 0 Z " fill="#73C7AA" transform="translate(11,91)"/>
<path d="M0 0 C1.9765625 0.51171875 1.9765625 0.51171875 5.0390625 3.07421875 C6.9765625 6.51171875 6.9765625 6.51171875 7.0390625 10.13671875 C5.85313614 13.90377896 5.32904379 15.41641794 1.9765625 17.51171875 C-1.17642532 18.1782511 -3.88138132 18.26558205 -7.0234375 17.51171875 C-9.6484375 14.94921875 -9.6484375 14.94921875 -11.0234375 11.51171875 C-11.0234375 7.59871248 -10.57125307 5.36631105 -8.4609375 2.07421875 C-5.6344947 0.26239644 -3.35865034 -0.18239861 0 0 Z " fill="#F5FCFB" transform="translate(99.0234375,96.48828125)"/>
<path d="M0 0 C-0.33 1.65 -0.66 3.3 -1 5 C1.475 5.495 1.475 5.495 4 6 C4.33 7.65 4.66 9.3 5 11 C1.92403034 12.02532322 0.24154512 11.96034283 -2.9375 11.75 C-7.13287619 11.70598503 -7.13287619 11.70598503 -10.625 14.0625 C-12.27624851 17.59016728 -12.30207788 20.14850705 -12 24 C-12.66 23.67 -13.32 23.34 -14 23 C-14.5 20.5 -14.5 20.5 -15 18 C-15.66 17.67 -16.32 17.34 -17 17 C-17.33 19.97 -17.66 22.94 -18 26 C-20 24 -20 24 -20.4375 20.375 C-20.30903342 15.33727484 -18.20641082 11.7901867 -15 8 C-10.96875 5 -10.96875 5 -8 5 C-8 3.35 -8 1.7 -8 0 C-5.13822943 -1.43088528 -3.06624227 -0.59991697 0 0 Z " fill="#5ABB99" transform="translate(101,86)"/>
<path d="M0 0 C1.15452164 -0.00622879 2.30904327 -0.01245758 3.49855042 -0.01887512 C5.36893227 -0.0050605 5.36893227 -0.0050605 7.27709961 0.0090332 C8.55548203 0.0085347 9.83386444 0.00803619 11.15098572 0.00752258 C13.85551982 0.00986503 16.55927333 0.01803063 19.26367188 0.03613281 C22.73301976 0.0588429 26.20193247 0.05935956 29.67133427 0.05261517 C32.97745564 0.04847456 36.2834994 0.06044289 39.58959961 0.0715332 C40.83854507 0.0706218 42.08749054 0.06971039 43.37428284 0.06877136 C45.10133705 0.08306938 45.10133705 0.08306938 46.86328125 0.09765625 C47.88015518 0.10226364 48.89702911 0.10687103 49.94471741 0.11161804 C52.36694336 0.37231445 52.36694336 0.37231445 54.36694336 2.37231445 C53.56256836 2.49606445 52.75819336 2.61981445 51.92944336 2.74731445 C51.08381836 2.95356445 50.23819336 3.15981445 49.36694336 3.37231445 C49.03694336 4.03231445 48.70694336 4.69231445 48.36694336 5.37231445 C47.87194336 3.88731445 47.87194336 3.88731445 47.36694336 2.37231445 C35.48694336 2.37231445 23.60694336 2.37231445 11.36694336 2.37231445 C11.36694336 3.03231445 11.36694336 3.69231445 11.36694336 4.37231445 C6.08694336 4.37231445 0.80694336 4.37231445 -4.63305664 4.37231445 C-4.63305664 3.71231445 -4.63305664 3.05231445 -4.63305664 2.37231445 C-5.95305664 2.70231445 -7.27305664 3.03231445 -8.63305664 3.37231445 C-6.0553697 0.05631488 -4.09219275 -0.00253101 0 0 Z " fill="#203D66" transform="translate(128.633056640625,90.627685546875)"/>
<path d="M0 0 C4.33333333 0 8.66666667 0 13 0 C13 1.65 13 3.3 13 5 C11.7934375 5.4640625 11.7934375 5.4640625 10.5625 5.9375 C8.10919595 6.76335345 8.10919595 6.76335345 7 8 C6.76807135 9.51469448 6.58784762 11.03754562 6.4375 12.5625 C6.35371094 13.38878906 6.26992187 14.21507813 6.18359375 15.06640625 C6.12300781 15.70449219 6.06242188 16.34257813 6 17 C4.02 17 2.04 17 0 17 C0 11.39 0 5.78 0 0 Z " fill="#EBF2F7" transform="translate(147,101)"/>
<path d="M0 0 C3.0933208 1.03110693 4.14599955 1.4011372 6 4 C6.36328125 7.1796875 6.36328125 7.1796875 6.3125 10.875 C6.30863281 12.08929688 6.30476563 13.30359375 6.30078125 14.5546875 C6.01329094 17.84775827 5.40312642 20.04012018 4 23 C3.525625 24.0725 3.05125 25.145 2.5625 26.25 C1 29 1 29 -2 30 C-2 29.01 -2 28.02 -2 27 C-1.34 27 -0.68 27 0 27 C0 26.34 0 25.68 0 25 C-1.65 25.66 -3.3 26.32 -5 27 C-5.66 26.34 -6.32 25.68 -7 25 C-6.01 25 -5.02 25 -4 25 C-3.9175 24.278125 -3.835 23.55625 -3.75 22.8125 C-3 20 -3 20 -0.9375 17.9375 C2.11157678 13.31470617 1.4684842 8.3914083 1 3 C0.67 2.01 0.34 1.02 0 0 Z " fill="#F1FBFA" transform="translate(110,97)"/>
<path d="M0 0 C6.25201072 0.58981233 6.25201072 0.58981233 8.9375 2.0625 C10.6911868 5.26039945 10.78561033 8.51385415 10 12 C7.5 14.5 7.5 14.5 5 16 C4 12.125 4 12.125 4 11 C1.36 11 -1.28 11 -4 11 C-4 8.69 -4 6.38 -4 4 C-2.35 3.67 -0.7 3.34 1 3 C0.67 2.01 0.34 1.02 0 0 Z " fill="#EEF4F8" transform="translate(134,95)"/>
<path d="M0 0 C2.31 0 4.62 0 7 0 C7 7.59 7 15.18 7 23 C11.62 23 16.24 23 21 23 C21 24.98 21 26.96 21 29 C14.07 29 7.14 29 0 29 C0 19.43 0 9.86 0 0 Z M2 2 C0.98026871 5.05919388 0.88466398 7.12418025 0.90234375 10.32421875 C0.90556641 11.35224609 0.90878906 12.38027344 0.91210938 13.43945312 C0.92048828 14.51130859 0.92886719 15.58316406 0.9375 16.6875 C0.94201172 17.77095703 0.94652344 18.85441406 0.95117188 19.97070312 C0.96296243 22.64715894 0.98089792 25.32358639 1 28 C7.27 28 13.54 28 20 28 C20 26.68 20 25.36 20 24 C15.05 23.67 10.1 23.34 5 23 C5 16.07 5 9.14 5 2 C4.01 2 3.02 2 2 2 Z " fill="#63B599" transform="translate(58,91)"/>
<path d="M0 0 C0.33 0.99 0.66 1.98 1 3 C1.33 2.01 1.66 1.02 2 0 C4.875 0.3125 4.875 0.3125 8 1 C10 4 10 4 10 7 C3.73 7 -2.54 7 -9 7 C-8.67 5.35 -8.34 3.7 -8 2 C-4.77208445 -0.1519437 -3.71599191 -0.20086443 0 0 Z " fill="#133B64" transform="translate(96,115)"/>
<path d="M0 0 C0.66 0.33 1.32 0.66 2 1 C2 1.99 2 2.98 2 4 C7.61 4.33 13.22 4.66 19 5 C19 6.32 19 7.64 19 9 C12.4 9 5.8 9 -1 9 C-1 1 -1 1 0 0 Z " fill="#4ABA95" transform="translate(33,110)"/>
<path d="M0 0 C0.33 0 0.66 0 1 0 C1.125 6.625 1.125 6.625 0 10 C0.66 10 1.32 10 2 10 C2 12.31 2 14.62 2 17 C1.67 17 1.34 17 1 17 C1 15.02 1 13.04 1 11 C-3.95 11 -8.9 11 -14 11 C-14 9.35 -14 7.7 -14 6 C-9.38 6 -4.76 6 0 6 C0 4.02 0 2.04 0 0 Z " fill="#EEFDFB" transform="translate(52,103)"/>
<path d="M0 0 C0.33 0 0.66 0 1 0 C1 1.98 1 3.96 1 6 C22.12 6 43.24 6 65 6 C65 6.33 65 6.66 65 7 C42.56 7 20.12 7 -3 7 C-2.01 4.69 -1.02 2.38 0 0 Z " fill="#445B81" transform="translate(115,115)"/>
<path d="M0 0 C0.66 0 1.32 0 2 0 C2.66 1.98 3.32 3.96 4 6 C3.01 6.33 2.02 6.66 1 7 C0.19436362 9.10584438 0.19436362 9.10584438 -0.1875 11.5625 C-0.34605469 12.38878906 -0.50460938 13.21507813 -0.66796875 14.06640625 C-0.77753906 14.70449219 -0.88710937 15.34257813 -1 16 C-1.33 14.68 -1.66 13.36 -2 12 C-2.598125 12.309375 -3.19625 12.61875 -3.8125 12.9375 C-6 14 -6 14 -9 15 C-8.3125 13.0625 -8.3125 13.0625 -7 11 C-4.375 10.25 -4.375 10.25 -2 10 C-2 8.35 -2 6.7 -2 5 C-4.31 5.66 -6.62 6.32 -9 7 C-9 6.34 -9 5.68 -9 5 C-10.98 5 -12.96 5 -15 5 C-11.4513865 2.63425766 -10.4235475 2.89134735 -6.3125 3.375 C-4.82169922 3.54128906 -4.82169922 3.54128906 -3.30078125 3.7109375 C-2.54152344 3.80632812 -1.78226563 3.90171875 -1 4 C-0.67 2.68 -0.34 1.36 0 0 Z " fill="#1E3968" transform="translate(162,96)"/>
<path d="M0 0 C4.55555556 0.55555556 4.55555556 0.55555556 6 2 C6.1875 4.4375 6.1875 4.4375 6 7 C5.34 7.66 4.68 8.32 4 9 C-0.55555556 8.44444444 -0.55555556 8.44444444 -2 7 C-2.1875 4.5625 -2.1875 4.5625 -2 2 C-1.34 1.34 -0.68 0.68 0 0 Z " fill="#103161" transform="translate(169,105)"/>
<path d="M0 0 C7.26 0 14.52 0 22 0 C22 1.98 22 3.96 22 6 C17.05 6 12.1 6 7 6 C7 5.67 7 5.34 7 5 C13.435 4.505 13.435 4.505 20 4 C20 3.01 20 2.02 20 1 C13.73 1 7.46 1 1 1 C1 3.97 1 6.94 1 10 C0.67 10 0.34 10 0 10 C0 6.7 0 3.4 0 0 Z " fill="#6ABCA0" transform="translate(31,92)"/>
<path d="M0 0 C2.31 0 4.62 0 7 0 C8.0625 1.875 8.0625 1.875 9 4 C8.67 4.66 8.34 5.32 8 6 C5.36 6 2.72 6 0 6 C0 4.02 0 2.04 0 0 Z " fill="#163461" transform="translate(130,100)"/>
<path d="M0 0 C3.4375 1.5 3.4375 1.5 6 3 C6 3.66 6 4.32 6 5 C5.195625 4.649375 4.39125 4.29875 3.5625 3.9375 C-2.12508297 2.44076764 -7.38416734 3.51345606 -13 5 C-13 4.34 -13 3.68 -13 3 C-8.44784545 0.33532416 -5.2694336 -0.56458217 0 0 Z " fill="#364969" transform="translate(100,78)"/>
<path d="M0 0 C4.16756757 1.38918919 4.16756757 1.38918919 6 4 C6.29296875 7.35546875 6.29296875 7.35546875 6.1875 11.1875 C6.16042969 12.45980469 6.13335937 13.73210937 6.10546875 15.04296875 C6.07066406 16.01878906 6.03585938 16.99460937 6 18 C5.67 18 5.34 18 5 18 C4.67 15.69 4.34 13.38 4 11 C3.34 11.66 2.68 12.32 2 13 C1.93941406 12.31292969 1.87882812 11.62585938 1.81640625 10.91796875 C1.73261719 10.01691406 1.64882812 9.11585937 1.5625 8.1875 C1.48128906 7.29417969 1.40007812 6.40085937 1.31640625 5.48046875 C1.06510233 2.87256441 1.06510233 2.87256441 0 0 Z " fill="#DFF4F2" transform="translate(110,97)"/>
<path d="M0 0 C-0.33 1.65 -0.66 3.3 -1 5 C-3.31 5 -5.62 5 -8 5 C-8 3.35 -8 1.7 -8 0 C-5.13822943 -1.43088528 -3.06624227 -0.59991697 0 0 Z " fill="#D2F2E9" transform="translate(101,86)"/>
<path d="M0 0 C1.32 0.33 2.64 0.66 4 1 C4.25 6.625 4.25 6.625 2 10 C1.34 10 0.68 10 0 10 C0 6.7 0 3.4 0 0 Z " fill="#48BA94" transform="translate(83,102)"/>
<path d="M0 0 C0 0.33 0 0.66 0 1 C-1.11375 1.103125 -2.2275 1.20625 -3.375 1.3125 C-4.57125 1.539375 -5.7675 1.76625 -7 2 C-7.99 3.485 -7.99 3.485 -9 5 C-9.66 5 -10.32 5 -11 5 C-11 7.64 -11 10.28 -11 13 C-11.66 12.34 -12.32 11.68 -13 11 C-12.86119636 7.2523018 -12.47382932 4.73917374 -10.4375 1.5625 C-6.85236684 -0.73566228 -4.20922245 -0.28061483 0 0 Z " fill="#DAF9F3" transform="translate(101,97)"/>
<path d="M0 0 C1.875 0.25 1.875 0.25 4 1 C5.3125 2.875 5.3125 2.875 6 5 C5.67 5.99 5.34 6.98 5 8 C3.0625 7.375 3.0625 7.375 1 6 C0.25 2.875 0.25 2.875 0 0 Z " fill="#173566" transform="translate(182,93)"/>
<path d="M0 0 C1.60332791 -0.08121924 3.20784026 -0.13929134 4.8125 -0.1875 C6.15248047 -0.23970703 6.15248047 -0.23970703 7.51953125 -0.29296875 C10.41647515 0.04918998 11.22555028 0.75393573 13 3 C12.01 3.66 11.02 4.32 10 5 C9.5875 4.525625 9.175 4.05125 8.75 3.5625 C6.817815 1.83733482 5.51807725 1.43415125 3 1 C2.67 2.32 2.34 3.64 2 5 C0 1.125 0 1.125 0 0 Z " fill="#59A69E" transform="translate(95,114)"/>
<path d="M0 0 C2 1.5 2 1.5 3 3 C0.83323318 3 -1.33357856 2.9761861 -3.5 2.9375 C-6.97347545 2.82491443 -6.97347545 2.82491443 -10 4 C-10 3.01 -10 2.02 -10 1 C-6.82975235 -0.58512383 -3.45332972 -0.42372144 0 0 Z " fill="#273E63" transform="translate(101,82)"/>
<path d="M0 0 C2.125 0.375 2.125 0.375 4 1 C3.01 2.485 3.01 2.485 2 4 C1.34 4 0.68 4 0 4 C0.75150023 7.27773504 0.75150023 7.27773504 4 9 C-0.875 8.125 -0.875 8.125 -2 7 C-2.1875 4.5625 -2.1875 4.5625 -2 2 C-1.34 1.34 -0.68 0.68 0 0 Z " fill="#203A63" transform="translate(169,105)"/>
<path d="M0 0 C0.99 0 1.98 0 3 0 C2.34 3.96 1.68 7.92 1 12 C-0.65 12.33 -2.3 12.66 -4 13 C-3.34 12.154375 -2.68 11.30875 -2 10.4375 C0.25272405 6.56563053 0.35177696 4.39721203 0 0 Z " fill="#183661" transform="translate(180,105)"/>
<path d="M0 0 C1.95825873 -0.02694851 3.91662226 -0.04637218 5.875 -0.0625 C6.96554688 -0.07410156 8.05609375 -0.08570312 9.1796875 -0.09765625 C12 0 12 0 14 1 C13.67 2.32 13.34 3.64 13 5 C11 4 9 3 7 2 C4.6670134 1.95977609 2.33293334 1.95679753 0 2 C0 1.34 0 0.68 0 0 Z " fill="#1A3660" transform="translate(167,99)"/>
<path d="M0 0 C2.31 0 4.62 0 7 0 C7 0.33 7 0.66 7 1 C9.64 1.33 12.28 1.66 15 2 C15 2.33 15 2.66 15 3 C11.04 3 7.08 3 3 3 C3 2.34 3 1.68 3 1 C1.68 1.33 0.36 1.66 -1 2 C-0.67 1.34 -0.34 0.68 0 0 Z " fill="#1D355D" transform="translate(121,92)"/>
<path d="M0 0 C0.33 0.66 0.66 1.32 1 2 C3.64 2 6.28 2 9 2 C9 2.33 9 2.66 9 3 C7.02 3 5.04 3 3 3 C3 3.66 3 4.32 3 5 C1.35 4.67 -0.3 4.34 -2 4 C-1.34 2.68 -0.68 1.36 0 0 Z " fill="#14366A" transform="translate(144,116)"/>
<path d="M0 0 C1.49080078 0.16628906 1.49080078 0.16628906 3.01171875 0.3359375 C3.77097656 0.43132812 4.53023437 0.52671875 5.3125 0.625 C4.9825 1.615 4.6525 2.605 4.3125 3.625 C4.3125 2.965 4.3125 2.305 4.3125 1.625 C2.0025 2.285 -0.3075 2.945 -2.6875 3.625 C-2.6875 2.965 -2.6875 2.305 -2.6875 1.625 C-4.6675 1.625 -6.6475 1.625 -8.6875 1.625 C-5.1388865 -0.74074234 -4.1110475 -0.48365265 0 0 Z " fill="#2F4871" transform="translate(155.6875,99.375)"/>
<path d="M0 0 C-0.33 1.32 -0.66 2.64 -1 4 C-1.99 4 -2.98 4 -4 4 C-4 3.34 -4 2.68 -4 2 C-5.98 2 -7.96 2 -10 2 C-10 1.67 -10 1.34 -10 1 C-6.56484998 0.37542727 -3.50935186 0 0 0 Z " fill="#18366C" transform="translate(134,117)"/>
<path d="M0 0 C0 0.66 0 1.32 0 2 C-2.64 2 -5.28 2 -8 2 C-8 1.34 -8 0.68 -8 0 C-5.13822943 -1.43088528 -3.06624227 -0.59991697 0 0 Z " fill="#44587B" transform="translate(101,86)"/>
</svg>
