<?xml version="1.0" encoding="UTF-8"?>
<svg version="1.1" xmlns="http://www.w3.org/2000/svg" width="458" height="458">
<path d="M0 0 C151.14 0 302.28 0 458 0 C458 151.14 458 302.28 458 458 C306.86 458 155.72 458 0 458 C0 306.86 0 155.72 0 0 Z " fill="#FEFEFE" transform="translate(0,0)"/>
<path d="M0 0 C3.62634632 2.02598679 6.48375007 4.2199569 9.43896484 7.13256836 C10.28268646 7.96030258 11.12640808 8.7880368 11.99569702 9.64085388 C13.33974106 10.97685387 13.33974106 10.97685387 14.7109375 12.33984375 C15.63846832 13.2583461 16.56599915 14.17684845 17.52163696 15.1231842 C19.47695788 17.06207153 21.42789303 19.00525914 23.37646484 20.95092773 C25.87667285 23.44572492 28.39268348 25.92392116 30.91283226 28.39855099 C33.31488776 30.76379282 35.69920183 33.1466446 38.0859375 35.52734375 C38.99411224 36.41598618 39.90228699 37.3046286 40.83798218 38.22019958 C41.66279083 39.05108597 42.48759949 39.88197235 43.33740234 40.73803711 C44.07066742 41.46623154 44.8039325 42.19442596 45.55941772 42.94468689 C47 45 47 45 46.81301308 46.84255791 C45.78125796 49.58046211 44.32363638 51.33872065 42.43237305 53.5743866 C41.66268 54.48721972 40.89298695 55.40005283 40.09996986 56.34054756 C38.81878556 57.8313625 38.81878556 57.8313625 37.51171875 59.35229492 C37.06800202 59.87124006 36.62428529 60.3901852 36.1671226 60.92485595 C-51.10573616 162.91067278 -51.10573616 162.91067278 -98.05191326 167.86356735 C-128.47921918 170.09280368 -155.34853641 163.70729766 -178.82421875 143.83984375 C-194.9416971 129.78715441 -208.52893259 113.30583083 -221 96 C-219.47102424 92.38307227 -217.32184367 90.0796478 -214.55029297 87.32324219 C-213.16908768 85.94226349 -213.16908768 85.94226349 -211.75997925 84.53338623 C-210.75415535 83.5377747 -209.7482222 82.54227352 -208.7421875 81.546875 C-207.71327851 80.52169807 -206.68481163 79.49607725 -205.6567688 78.47003174 C-202.95518419 75.77606836 -200.24764659 73.08816632 -197.53881836 70.40148926 C-194.77355511 67.65671696 -192.01397367 64.90624528 -189.25390625 62.15625 C-183.84147726 56.76524427 -178.42274562 51.38063036 -173 46 C-165.97694971 51.74088886 -159.6765639 58.19693456 -153.28515625 64.6171875 C-152.06226684 65.84194489 -150.8391543 67.06647953 -149.61582947 68.290802 C-146.41614044 71.49428634 -143.21946752 74.70076366 -140.0234375 77.90789795 C-136.753788 81.18782616 -133.4812616 84.46488126 -130.20898438 87.7421875 C-123.80318881 94.15866765 -117.40057951 100.578317 -111 107 C-107.64953623 105.54496506 -105.47034898 103.70899848 -102.90917969 101.12036133 C-101.71708893 99.92320244 -101.71708893 99.92320244 -100.50091553 98.70185852 C-99.64983215 97.83731552 -98.79874878 96.97277252 -97.921875 96.08203125 C-97.03647034 95.19142502 -96.15106567 94.30081879 -95.23883057 93.38322449 C-92.88422236 91.01381223 -90.53375145 88.64045715 -88.18560791 86.26464844 C-84.89608841 82.93722835 -81.60157268 79.61478841 -78.30401611 76.29533386 C-76.55147181 74.53065247 -74.80160649 72.76330509 -73.05487061 70.99287415 C-69.49241902 67.40160423 -65.92893739 63.8772267 -62.08691406 60.5847168 C-57.32456086 56.49194231 -52.92770712 52.04035818 -48.50927734 47.58444214 C-46.9630726 46.02526273 -45.41358104 44.46941379 -43.86328125 42.91430664 C-40.57267017 39.61236864 -37.28603038 36.30649584 -34 33 C-30.18663495 29.16288524 -26.37157851 25.32748325 -22.55224609 21.49630737 C-21.03923948 19.97690534 -19.5293203 18.45448297 -18.01953125 16.93188477 C-13.34051378 12.22834404 -8.61278142 7.64427379 -3.55859375 3.34204102 C-2.32544785 2.28022976 -1.15067197 1.15067197 0 0 Z " fill="#091954" transform="translate(316,77)"/>
<path d="M0 0 C7.10512006 5.80138692 13.4701862 12.34389677 19.93359375 18.8359375 C21.17890345 20.0831151 22.42443621 21.33007001 23.67018127 22.57681274 C26.92905366 25.83948105 30.18491018 29.10514251 33.44012451 32.37145996 C36.77009779 35.71171062 40.10294673 39.04908931 43.43554688 42.38671875 C49.95983139 48.92168893 56.48092996 55.45982831 63 62 C61.47102424 65.61692773 59.32184367 67.9203522 56.55029297 70.67675781 C55.62948944 71.59741028 54.70868591 72.51806274 53.75997925 73.46661377 C52.75415535 74.4622253 51.7482222 75.45772648 50.7421875 76.453125 C49.71327851 77.47830193 48.68481163 78.50392275 47.6567688 79.52996826 C44.95518419 82.22393164 42.24764659 84.91183368 39.53881836 87.59851074 C36.77355511 90.34328304 34.01397367 93.09375472 31.25390625 95.84375 C25.84147726 101.23475573 20.42274562 106.61936964 15 112 C7.89487994 106.19861308 1.5298138 99.65610323 -4.93359375 93.1640625 C-6.17890345 91.9168849 -7.42443621 90.66992999 -8.67018127 89.42318726 C-11.92905366 86.16051895 -15.18491018 82.89485749 -18.44012451 79.62854004 C-21.77009779 76.28828938 -25.10294673 72.95091069 -28.43554688 69.61328125 C-34.95983139 63.07831107 -41.48092996 56.54017169 -48 50 C-46.47102424 46.38307227 -44.32184367 44.0796478 -41.55029297 41.32324219 C-40.16908768 39.94226349 -40.16908768 39.94226349 -38.75997925 38.53338623 C-37.75415535 37.5377747 -36.7482222 36.54227352 -35.7421875 35.546875 C-34.71327851 34.52169807 -33.68481163 33.49607725 -32.6567688 32.47003174 C-29.95518419 29.77606836 -27.24764659 27.08816632 -24.53881836 24.40148926 C-21.77355511 21.65671696 -19.01397367 18.90624528 -16.25390625 16.15625 C-10.84147726 10.76524427 -5.42274562 5.38063036 0 0 Z " fill="#ED1E25" transform="translate(143,123)"/>
<path d="M0 0 C0.69029297 -0.01611328 1.38058594 -0.03222656 2.09179688 -0.04882812 C6.8217545 -0.0533115 10.10884585 0.70226335 14.0625 3.3125 C16.90534864 6.82280006 16.4665478 11.3610149 16.5 15.6875 C16.53287109 16.43 16.56574219 17.1725 16.59960938 17.9375 C16.63900989 21.99217164 16.28940234 24.56257117 13.72265625 27.7890625 C9.55190523 31.74545774 5.71645256 31.52285211 0.25 31.5625 C-0.79897461 31.5934375 -0.79897461 31.5934375 -1.86914062 31.625 C-6.64718353 31.6607571 -9.9818238 31.03239694 -13.9375 28.3125 C-16.34323429 24.3676504 -16.2362803 20.41621926 -16.25 15.875 C-16.26675781 14.59753906 -16.28351563 13.32007813 -16.30078125 12.00390625 C-15.90672905 7.99982742 -15.18713657 5.64039374 -12.9375 2.3125 C-8.92736178 -0.16792417 -4.59327791 -0.02132441 0 0 Z " fill="#0E1C52" transform="translate(278.9375,273.6875)"/>
<path d="M0 0 C10 0 10 0 13.0234375 2.8515625 C13.8424985 4.08673808 14.62615084 5.34603769 15.375 6.625 C15.97248047 7.55119141 15.97248047 7.55119141 16.58203125 8.49609375 C17.33275767 9.66525785 18.06973047 10.84348022 18.78662109 12.03369141 C20.45318674 14.7343996 22.23964463 17.35946695 24 20 C24.33 13.4 24.66 6.8 25 0 C27.31 0 29.62 0 32 0 C32 10.23 32 20.46 32 31 C22 31 22 31 19.68725586 29.37939453 C19.20135986 28.63802246 18.71546387 27.89665039 18.21484375 27.1328125 C17.39016602 25.92818359 17.39016602 25.92818359 16.54882812 24.69921875 C15.7512207 23.42498047 15.7512207 23.42498047 14.9375 22.125 C14.08768555 20.86236328 14.08768555 20.86236328 13.22070312 19.57421875 C11.35110068 16.77541269 9.50618232 14.01236465 8 11 C7.67 17.6 7.34 24.2 7 31 C4.69 31 2.38 31 0 31 C0 20.77 0 10.54 0 0 Z " fill="#0A1951" transform="translate(302,274)"/>
<path d="M0 0 C2.97 0 5.94 0 9 0 C18.75185644 18.44331683 18.75185644 18.44331683 22.125 25.0625 C22.49882812 25.79597656 22.87265625 26.52945312 23.2578125 27.28515625 C24 29 24 29 24 31 C22.72125 31.061875 21.4425 31.12375 20.125 31.1875 C19.04605469 31.23970703 19.04605469 31.23970703 17.9453125 31.29296875 C17.30335938 31.19628906 16.66140625 31.09960938 16 31 C14 28 14 28 14 25 C8.06 25 2.12 25 -4 25 C-4.33 26.65 -4.66 28.3 -5 30 C-6 31 -6 31 -7.84765625 31.09765625 C-9.8984375 31.06510417 -11.94921875 31.03255208 -14 31 C-12.68106727 26.80240081 -11.09759162 22.90354015 -9.1796875 18.9453125 C-8.37724609 17.28242188 -8.37724609 17.28242188 -7.55859375 15.5859375 C-7.00300781 14.44382812 -6.44742188 13.30171875 -5.875 12.125 C-5.31167969 10.9596875 -4.74835938 9.794375 -4.16796875 8.59375 C-2.78187239 5.72758466 -1.39245478 2.86308022 0 0 Z " fill="#101D55" transform="translate(169,274)"/>
<path d="M0 0 C9.9 0 19.8 0 30 0 C30 2.31 30 4.62 30 7 C26.37 7 22.74 7 19 7 C19 14.92 19 22.84 19 31 C16.36 31 13.72 31 11 31 C11 23.08 11 15.16 11 7 C7.37 7 3.74 7 0 7 C0 4.69 0 2.38 0 0 Z " fill="#0D1C52" transform="translate(229,274)"/>
<path d="M0 0 C3.48030854 -0.55712449 6.54540915 -0.78653631 10 0 C12.66561407 2.67082035 14.35182607 5.62325341 16 9 C19.27431421 7.6408507 20.52507278 6.47055414 22.1875 3.375 C23.4296875 1.48828125 23.4296875 1.48828125 25 0 C28.0826992 -0.60719833 30.90012668 -0.42547281 34 0 C33.12824374 1.3354564 32.25235729 2.66821662 31.375 4 C30.83230469 4.83144531 30.28960937 5.66289062 29.73046875 6.51953125 C28 9 28 9 26.30078125 10.88671875 C20.91819861 16.89488 21.02199313 23.17044599 21 31 C18.36 31 15.72 31 13 31 C13.06703125 30.175 13.1340625 29.35 13.203125 28.5 C13.35764588 16.96244063 8.38261682 10.82719163 1.08569336 2.36010742 C0 1 0 1 0 0 Z " fill="#111E52" transform="translate(190,274)"/>
<path d="M0 0 C2.64 0 5.28 0 8 0 C8 7.92 8 15.84 8 24 C14.27 24 20.54 24 27 24 C27 26.31 27 28.62 27 31 C18.09 31 9.18 31 0 31 C0 20.77 0 10.54 0 0 Z " fill="#0B184D" transform="translate(123,274)"/>
<path d="M0 0 C1.15048828 0.14501953 1.15048828 0.14501953 2.32421875 0.29296875 C4.3125 0.8125 4.3125 0.8125 6.3125 2.8125 C6.61328125 5.52734375 6.61328125 5.52734375 6.625 8.75 C6.64175781 9.81089844 6.65851563 10.87179687 6.67578125 11.96484375 C6.3125 14.8125 6.3125 14.8125 4.91796875 16.62890625 C1.97667088 18.79730833 0.39151393 18.88927587 -3.1875 18.5 C-4.37859375 18.38205078 -4.37859375 18.38205078 -5.59375 18.26171875 C-7.6875 17.8125 -7.6875 17.8125 -9.6875 15.8125 C-10.05859375 12.87890625 -10.05859375 12.87890625 -10.125 9.375 C-10.16496094 8.22128906 -10.20492188 7.06757813 -10.24609375 5.87890625 C-9.6875 2.8125 -9.6875 2.8125 -7.453125 0.890625 C-4.56553787 -0.23504456 -3.03263994 -0.43764753 0 0 Z " fill="#F2F4F7" transform="translate(280.6875,280.1875)"/>
<path d="M0 0 C1.98 0.66 3.96 1.32 6 2 C6 2.66 6 3.32 6 4 C9.63 4 13.26 4 17 4 C17 3.01 17 2.02 17 1 C18.32 1.33 19.64 1.66 21 2 C20.67 4.64 20.34 7.28 20 10 C14.06 10 8.12 10 2 10 C1.67 11.65 1.34 13.3 1 15 C0 16 0 16 -1.84765625 16.09765625 C-3.8984375 16.06510417 -5.94921875 16.03255208 -8 16 C-6.33766168 10.50149633 -4.88568639 6.25712426 0 3 C0 2.01 0 1.02 0 0 Z " fill="#0C1A4E" transform="translate(163,289)"/>
<path d="M0 0 C2.62527189 -0.05382106 5.24944713 -0.09358313 7.875 -0.125 C8.62136719 -0.14175781 9.36773437 -0.15851563 10.13671875 -0.17578125 C12.09194461 -0.1933959 14.04742021 -0.10320189 16 0 C18 2 18 2 18.375 4.4375 C18 7 18 7 16 8.8125 C15.34 9.204375 14.68 9.59625 14 10 C15.65 11.65 17.3 13.3 19 15 C16.09573295 15.34574608 13.88195513 15.58374009 11.37109375 13.921875 C9.89583745 12.63518529 8.44700427 11.31838167 7 10 C6.01 9.67 5.02 9.34 4 9 C4 10.98 4 12.96 4 15 C2.68 15 1.36 15 0 15 C0 10.05 0 5.1 0 0 Z " fill="#0C1949" transform="translate(213,315)"/>
<path d="M0 0 C2.62527189 -0.05382106 5.24944713 -0.09358313 7.875 -0.125 C8.62136719 -0.14175781 9.36773437 -0.15851563 10.13671875 -0.17578125 C12.09194461 -0.1933959 14.04742021 -0.10320189 16 0 C18 2 18 2 18.375 4.4375 C18 7 18 7 16 8.8125 C15.34 9.204375 14.68 9.59625 14 10 C15.65 11.65 17.3 13.3 19 15 C16.09573295 15.34574608 13.88195513 15.58374009 11.37109375 13.921875 C9.89583745 12.63518529 8.44700427 11.31838167 7 10 C6.01 9.67 5.02 9.34 4 9 C4 10.98 4 12.96 4 15 C2.68 15 1.36 15 0 15 C0 10.05 0 5.1 0 0 Z " fill="#0B184D" transform="translate(259,315)"/>
<path d="M0 0 C5.34203818 0 5.73348606 0.10296982 9.3125 3.5 C10.00988281 4.1496875 10.70726562 4.799375 11.42578125 5.46875 C11.94527344 5.9740625 12.46476563 6.479375 13 7 C13.33 4.69 13.66 2.38 14 0 C15.65 0 17.3 0 19 0 C19 4.95 19 9.9 19 15 C14 15 14 15 11.83203125 13.28515625 C11.16558594 12.55167969 10.49914062 11.81820313 9.8125 11.0625 C7.21289233 8.12442614 7.21289233 8.12442614 4 6 C4 8.97 4 11.94 4 15 C2.68 15 1.36 15 0 15 C0 10.05 0 5.1 0 0 Z " fill="#1A2659" transform="translate(145,315)"/>
<path d="M0 0 C1.39456452 0.00667256 2.78911118 0.01863093 4.18359375 0.03515625 C4.89451172 0.03966797 5.60542969 0.04417969 6.33789062 0.04882812 C8.09899388 0.06064761 9.86005411 0.07858362 11.62109375 0.09765625 C12.28109375 1.41765625 12.94109375 2.73765625 13.62109375 4.09765625 C6.69109375 3.60265625 6.69109375 3.60265625 -0.37890625 3.09765625 C-0.04890625 3.75765625 0.28109375 4.41765625 0.62109375 5.09765625 C3.14201548 5.49024564 3.14201548 5.49024564 6.05859375 5.59765625 C11.3996357 5.8761982 11.3996357 5.8761982 13.62109375 8.09765625 C13.93359375 10.59765625 13.93359375 10.59765625 13.62109375 13.09765625 C9.98913879 15.51895956 8.23760027 15.3078841 3.93359375 15.22265625 C2.16435547 15.19558594 2.16435547 15.19558594 0.359375 15.16796875 C-0.54425781 15.14476562 -1.44789063 15.1215625 -2.37890625 15.09765625 C-3.03890625 13.77765625 -3.69890625 12.45765625 -4.37890625 11.09765625 C-0.08890625 11.42765625 4.20109375 11.75765625 8.62109375 12.09765625 C8.62109375 11.10765625 8.62109375 10.11765625 8.62109375 9.09765625 C7.46480469 9.13246094 7.46480469 9.13246094 6.28515625 9.16796875 C5.28226562 9.18601562 4.279375 9.2040625 3.24609375 9.22265625 C2.24835938 9.24585938 1.250625 9.2690625 0.22265625 9.29296875 C-2.37890625 9.09765625 -2.37890625 9.09765625 -4.37890625 7.09765625 C-4.56640625 4.03515625 -4.56640625 4.03515625 -4.37890625 1.09765625 C-3.37890625 0.09765625 -3.37890625 0.09765625 0 0 Z " fill="#141E4E" transform="translate(298.37890625,314.90234375)"/>
<path d="M0 0 C2.62527189 -0.05382106 5.24944713 -0.09358313 7.875 -0.125 C8.62136719 -0.14175781 9.36773437 -0.15851563 10.13671875 -0.17578125 C12.09194461 -0.1933959 14.04742021 -0.10320189 16 0 C18 2 18 2 18.3125 4.5 C18.209375 5.325 18.10625 6.15 18 7 C14.57905758 9.28062828 13.31812778 9.21925007 9.3125 9.125 C7.82169922 9.09792969 7.82169922 9.09792969 6.30078125 9.0703125 C5.54152344 9.04710937 4.78226563 9.02390625 4 9 C4 10.98 4 12.96 4 15 C2.68 15 1.36 15 0 15 C0 10.05 0 5.1 0 0 Z " fill="#0B194D" transform="translate(236,315)"/>
<path d="M0 0 C5.61 0 11.22 0 17 0 C17 0.99 17 1.98 17 3 C12.71 3 8.42 3 4 3 C4 3.99 4 4.98 4 6 C8.29 6 12.58 6 17 6 C17 6.99 17 7.98 17 9 C12.71 9 8.42 9 4 9 C4 9.99 4 10.98 4 12 C8.29 12 12.58 12 17 12 C17 12.99 17 13.98 17 15 C11.39 15 5.78 15 0 15 C0 10.05 0 5.1 0 0 Z " fill="#0C194A" transform="translate(317,315)"/>
<path d="M0 0 C5.61 0 11.22 0 17 0 C17 0.99 17 1.98 17 3 C12.71 3 8.42 3 4 3 C4 3.99 4 4.98 4 6 C8.29 6 12.58 6 17 6 C17 6.99 17 7.98 17 9 C12.71 9 8.42 9 4 9 C4 9.99 4 10.98 4 12 C8.29 12 12.58 12 17 12 C17 12.99 17 13.98 17 15 C11.39 15 5.78 15 0 15 C0 10.05 0 5.1 0 0 Z " fill="#0D184A" transform="translate(123,315)"/>
<path d="M0 0 C5.61 0 11.22 0 17 0 C17 0.99 17 1.98 17 3 C12.71 3 8.42 3 4 3 C4 3.99 4 4.98 4 6 C8.29 6 12.58 6 17 6 C17 6.99 17 7.98 17 9 C12.71 9 8.42 9 4 9 C4 9.99 4 10.98 4 12 C8.29 12 12.58 12 17 12 C17 12.99 17 13.98 17 15 C11.39 15 5.78 15 0 15 C0 10.05 0 5.1 0 0 Z " fill="#0C194A" transform="translate(191,315)"/>
<path d="M0 0 C4.42629397 3.88977349 7.28052985 8.36937108 10.3515625 13.37890625 C11.92918209 15.98924868 11.92918209 15.98924868 13.73046875 18.19921875 C15 20 15 20 14.6875 22.25 C14.460625 22.8275 14.23375 23.405 14 24 C12.35 24.33 10.7 24.66 9 25 C7.15785783 22.5687312 5.32621761 20.13068302 3.5 17.6875 C2.71302734 16.65206055 2.71302734 16.65206055 1.91015625 15.59570312 C1.41386719 14.92861328 0.91757812 14.26152344 0.40625 13.57421875 C-0.05458984 12.96151123 -0.51542969 12.34880371 -0.99023438 11.7175293 C-2 10 -2 10 -2 7 C-1.34 7 -0.68 7 0 7 C0.22609337 4.87635519 0.22609337 4.87635519 -1.5 3.375 C-1.995 2.92125 -2.49 2.4675 -3 2 C-2.01 1.34 -1.02 0.68 0 0 Z " fill="#152256" transform="translate(311,274)"/>
<path d="M0 0 C2.97 0 5.94 0 9 0 C9 0.99 9 1.98 9 3 C8.67 2.67 8.34 2.34 8 2 C5.67182036 1.63239269 3.3381615 1.29758419 1 1 C1 3.64 1 6.28 1 9 C1.66 9.33 2.32 9.66 3 10 C3.33 9.34 3.66 8.68 4 8 C4.66 8 5.32 8 6 8 C6.67119549 9.4562545 7.33681807 10.91507867 8 12.375 C8.556875 13.59316406 8.556875 13.59316406 9.125 14.8359375 C10 17 10 17 10 19 C6.7 19 3.4 19 0 19 C-0.33 18.34 -0.66 17.68 -1 17 C-3.02463255 16.34786708 -3.02463255 16.34786708 -5 16 C-5.66 17.32 -6.32 18.64 -7 20 C-7.66 20 -8.32 20 -9 20 C-7.55676531 15.26210835 -5.62773267 11.01141849 -3.375 6.625 C-2.88773438 5.66400391 -2.88773438 5.66400391 -2.390625 4.68359375 C-1.59742593 3.12052499 -0.79922969 1.55999378 0 0 Z " fill="#131E51" transform="translate(169,274)"/>
<path d="M0 0 C5.61 0 11.22 0 17 0 C17 0.99 17 1.98 17 3 C15.02 3 13.04 3 11 3 C11 6.96 11 10.92 11 15 C9.35 15 7.7 15 6 15 C6 11.04 6 7.08 6 3 C4.02 3 2.04 3 0 3 C0 2.01 0 1.02 0 0 Z " fill="#162255" transform="translate(169,315)"/>
<path d="M0 0 C0 3 0 3 -1 5 C29.03 5 59.06 5 90 5 C90 5.33 90 5.66 90 6 C58.65 6 27.3 6 -5 6 C-3.35 4.02 -1.7 2.04 0 0 Z " fill="#111844" transform="translate(164,228)"/>
<path d="M0 0 C2 2 2 2 2.125 4.625 C2.08375 5.40875 2.0425 6.1925 2 7 C1.01 7.495 1.01 7.495 0 8 C-0.66 7.67 -1.32 7.34 -2 7 C-4.2072923 6.92907158 -6.41667452 6.91584975 -8.625 6.9375 C-10.40777344 6.95103516 -10.40777344 6.95103516 -12.2265625 6.96484375 C-13.59941406 6.98224609 -13.59941406 6.98224609 -15 7 C-15 5.35 -15 3.7 -15 2 C-9.7709663 0.25698877 -5.52246315 -0.37440428 0 0 Z " fill="#121D50" transform="translate(229,315)"/>
<path d="M0 0 C0.928125 0.33 1.85625 0.66 2.8125 1 C5.92029291 2.14967004 5.92029291 2.14967004 9 2 C10 3 10 3 10.0625 6.0625 C10.041875 7.031875 10.02125 8.00125 10 9 C13.08809695 10.76462683 14.23312136 11 18 11 C18 12.98 18 14.96 18 17 C18.969375 17.268125 19.93875 17.53625 20.9375 17.8125 C21.948125 18.204375 22.95875 18.59625 24 19 C25 22 25 22 24 25 C20.57886664 21.60350912 17.16097238 18.20380482 13.74609375 14.80102539 C12.58292608 13.64289941 11.41886426 12.48567077 10.25390625 11.3293457 C8.5835999 9.67111215 6.9164921 8.00972188 5.25 6.34765625 C4.7250293 5.82784683 4.20005859 5.30803741 3.65917969 4.7724762 C2.42032908 3.53382033 1.20725811 2.26946722 0 1 C0 0.67 0 0.34 0 0 Z " fill="#DE3840" transform="translate(124,201)"/>
<path d="M0 0 C6.19519509 0 6.71567182 1.01457844 11 5 C10.67 6.32 10.34 7.64 10 9 C8 8 6 7 4 6 C4 8.97 4 11.94 4 15 C2.68 15 1.36 15 0 15 C0 10.05 0 5.1 0 0 Z " fill="#0F1945" transform="translate(145,315)"/>
<path d="M0 0 C2.31 0 4.62 0 7 0 C7 10.23 7 20.46 7 31 C3.7 31 0.4 31 -3 31 C-3 30.34 -3 29.68 -3 29 C-0.03 29.33 2.94 29.66 6 30 C6 20.76 6 11.52 6 2 C5.01 2.33 4.02 2.66 3 3 C1.62227165 7.13318505 2.0291282 10.96123058 2.16015625 15.28515625 C2 18 2 18 0 20 C0 13.4 0 6.8 0 0 Z " fill="#0F1846" transform="translate(327,274)"/>
<path d="M0 0 C1.65 0 3.3 0 5 0 C5 4.95 5 9.9 5 15 C3.35 15 1.7 15 0 15 C0 10.05 0 5.1 0 0 Z " fill="#0F1944" transform="translate(283,315)"/>
<path d="M0 0 C1.125 3.75 1.125 3.75 0 6 C-0.66 5.67 -1.32 5.34 -2 5 C-2.66 6.32 -3.32 7.64 -4 9 C-4.99 9 -5.98 9 -7 9 C-7.061875 9.7425 -7.12375 10.485 -7.1875 11.25 C-8.27549868 14.93245708 -9.80268735 15.93950962 -13 18 C-16.3125 19.25 -16.3125 19.25 -19 20 C-13.17371096 12.84198775 -6.5617015 6.47408234 0 0 Z " fill="#DE393F" transform="translate(131,135)"/>
<path d="M0 0 C0.66 0 1.32 0 2 0 C2.67119549 1.4562545 3.33681807 2.91507867 4 4.375 C4.556875 5.59316406 4.556875 5.59316406 5.125 6.8359375 C6 9 6 9 6 11 C2.7 11 -0.6 11 -4 11 C-2.7874262 7.27566618 -1.49140021 3.62197194 0 0 Z " fill="#E8EFF6" transform="translate(173,282)"/>
<path d="M0 0 C6.875 5.75 6.875 5.75 8 8 C5.36 8.33 2.72 8.66 0 9 C-0.33 8.01 -0.66 7.02 -1 6 C-1.78375 6.515625 -2.5675 7.03125 -3.375 7.5625 C-4.24125 8.036875 -5.1075 8.51125 -6 9 C-6.66 8.67 -7.32 8.34 -8 8 C-5.36 5.36 -2.72 2.72 0 0 Z " fill="#E03238" transform="translate(143,123)"/>
<path d="M0 0 C0.33 0 0.66 0 1 0 C1.1875 2.375 1.1875 2.375 1 5 C-2.08888522 7.05925681 -2.70935927 7.2390374 -6.1875 7.125 C-8.0746875 7.063125 -8.0746875 7.063125 -10 7 C-10 6.67 -10 6.34 -10 6 C-8.35 5.67 -6.7 5.34 -5 5 C-7.64 4.67 -10.28 4.34 -13 4 C-13 3.01 -13 2.02 -13 1 C-9.7 1 -6.4 1 -3 1 C-3 1.66 -3 2.32 -3 3 C-2.01 3 -1.02 3 0 3 C0 2.01 0 1.02 0 0 Z " fill="#16204E" transform="translate(253,317)"/>
<path d="M0 0 C0.66 0 1.32 0 2 0 C2.66 1.65 3.32 3.3 4 5 C2 7 2 7 -0.625 7.125 C-1.40875 7.08375 -2.1925 7.0425 -3 7 C-3.33 7.66 -3.66 8.32 -4 9 C-4.99 8.01 -5.98 7.02 -7 6 C-6.67 5.34 -6.34 4.68 -6 4 C-4.68 4 -3.36 4 -2 4 C-1.34 2.68 -0.68 1.36 0 0 Z M-7 8 C-7 8.99 -7 9.98 -7 11 C-7.66 10.34 -8.32 9.68 -9 9 C-8.34 8.67 -7.68 8.34 -7 8 Z " fill="#0D1D58" transform="translate(291,293)"/>
<path d="M0 0 C0.28875 0.969375 0.5775 1.93875 0.875 2.9375 C1.64214682 6.10664203 1.64214682 6.10664203 4 7 C2.72125 7.061875 1.4425 7.12375 0.125 7.1875 C-0.59429687 7.22230469 -1.31359375 7.25710938 -2.0546875 7.29296875 C-2.69664062 7.19628906 -3.33859375 7.09960938 -4 7 C-6 4 -6 4 -6 1 C-3 0 -3 0 0 0 Z " fill="#0D1B4F" transform="translate(189,298)"/>
<path d="M0 0 C5.28 0 10.56 0 16 0 C15.34 1.32 14.68 2.64 14 4 C11.03 3.67 8.06 3.34 5 3 C5 2.34 5 1.68 5 1 C3.68 1 2.36 1 1 1 C0.67 1.66 0.34 2.32 0 3 C0 2.01 0 1.02 0 0 Z " fill="#0D1A49" transform="translate(259,315)"/>
<path d="M0 0 C0 3.73335719 -1.20800723 5.76062846 -3 9 C-5.6855594 11.6855594 -8.37621328 12.06049974 -12 13 C-8.19524578 8.43969176 -4.25030379 4.14910608 0 0 Z " fill="#DF3B41" transform="translate(111,155)"/>
<path d="M0 0 C4.25320049 0.15190002 7.01521119 3.28655563 10 6 C10 6.33 10 6.66 10 7 C7.03155565 7.35338623 4.84401782 7.5417682 2.265625 5.88671875 C0.79651181 4.64496832 -0.60704814 3.32662082 -2 2 C-1.34 1.34 -0.68 0.68 0 0 Z " fill="#202953" transform="translate(222,323)"/>
<path d="M0 0 C0.928125 0.33 1.85625 0.66 2.8125 1 C5.92029291 2.14967004 5.92029291 2.14967004 9 2 C10 3 10 3 10.0625 5.5625 C10.041875 6.366875 10.02125 7.17125 10 8 C6.40094092 7.44449305 5.00090201 6.25112752 2.75 3.4375 C2.22921875 2.79683594 1.7084375 2.15617188 1.171875 1.49609375 C0.78515625 1.00238281 0.3984375 0.50867188 0 0 Z " fill="#E4323B" transform="translate(124,201)"/>
<path d="M0 0 C0.66 0.99 1.32 1.98 2 3 C0.6875 4.5 0.6875 4.5 -1 6 C-1.99 6 -2.98 6 -4 6 C-4.2475 6.598125 -4.495 7.19625 -4.75 7.8125 C-6.16370012 10.28647521 -7.65055383 11.43370255 -10 13 C-10.66 12.67 -11.32 12.34 -12 12 C-8.04 8.04 -4.08 4.08 0 0 Z " fill="#212B58" transform="translate(241,150)"/>
<path d="M0 0 C3.96 0 7.92 0 12 0 C12.33 0.99 12.66 1.98 13 3 C8.71 3 4.42 3 0 3 C0 2.01 0 1.02 0 0 Z " fill="#C8CFDF" transform="translate(321,324)"/>
<path d="M0 0 C3.96 0 7.92 0 12 0 C12.33 0.99 12.66 1.98 13 3 C8.71 3 4.42 3 0 3 C0 2.01 0 1.02 0 0 Z " fill="#C8D0DD" transform="translate(127,324)"/>
<path d="M0 0 C5.61 0 11.22 0 17 0 C17 0.99 17 1.98 17 3 C15.35 3 13.7 3 12 3 C12 2.67 12 2.34 12 2 C9.69 1.67 7.38 1.34 5 1 C5 1.66 5 2.32 5 3 C3.35 3 1.7 3 0 3 C0 2.01 0 1.02 0 0 Z " fill="#0F1842" transform="translate(169,315)"/>
<path d="M0 0 C7.48291572 6.15034169 7.48291572 6.15034169 10 10 C9.01 10.495 9.01 10.495 8 11 C8 10.34 8 9.68 8 9 C7.01 9.33 6.02 9.66 5 10 C4.67 9.34 4.34 8.68 4 8 C3.01 8 2.02 8 1 8 C1.33 7.01 1.66 6.02 2 5 C1.12085312 2.3430809 1.12085312 2.3430809 0 0 Z " fill="#E1353D" transform="translate(192,172)"/>
<path d="M0 0 C0.33 0.99 0.66 1.98 1 3 C-2.82042691 7.1842771 -5.32976351 9.64994369 -11 11 C-7.6189962 6.86378916 -4.33409466 3.18683431 0 0 Z " fill="#25305B" transform="translate(253,139)"/>
<path d="M0 0 C2 3 2 3 2 7 C2.66 7.33 3.32 7.66 4 8 C4 8.66 4 9.32 4 10 C4.99 10.33 5.98 10.66 7 11 C6.34 11.66 5.68 12.32 5 13 C2.36 10.36 -0.28 7.72 -3 5 C-1 1 -1 1 0 0 Z " fill="#DC484E" transform="translate(98,168)"/>
<path d="M0 0 C0.33 0.66 0.66 1.32 1 2 C-2.08632611 5.2626876 -4.93483504 8.02235218 -9 10 C-9.66 9.67 -10.32 9.34 -11 9 C-9.92319498 7.86874978 -8.83824365 6.74525081 -7.75 5.625 C-7.14671875 4.99851563 -6.5434375 4.37203125 -5.921875 3.7265625 C-4.0299412 2.02689839 -2.31798691 1.01540134 0 0 Z " fill="#E23337" transform="translate(123,145)"/>
<path d="M0 0 C1.43739513 -0.02712066 2.87493863 -0.04645067 4.3125 -0.0625 C5.51326172 -0.07990234 5.51326172 -0.07990234 6.73828125 -0.09765625 C9 0 9 0 12 1 C12 1.66 12 2.32 12 3 C8.37 3 4.74 3 1 3 C0.67 2.01 0.34 1.02 0 0 Z " fill="#BFC9DB" transform="translate(298,318)"/>
<path d="M0 0 C7.48291572 6.15034169 7.48291572 6.15034169 10 10 C9.01 10 8.02 10 7 10 C6.67 9.01 6.34 8.02 6 7 C2.48809191 5.77030122 2.48809191 5.77030122 -1 5 C-0.67 3.35 -0.34 1.7 0 0 Z " fill="#DD3A3C" transform="translate(163,143)"/>
<path d="M0 0 C1.51400391 0.01740234 1.51400391 0.01740234 3.05859375 0.03515625 C4.07050781 0.04417969 5.08242188 0.05320312 6.125 0.0625 C7.29869141 0.07990234 7.29869141 0.07990234 8.49609375 0.09765625 C8.49609375 1.08765625 8.49609375 2.07765625 8.49609375 3.09765625 C-0.07533482 3.38337054 -0.07533482 3.38337054 -3.50390625 1.09765625 C-2.50390625 0.09765625 -2.50390625 0.09765625 0 0 Z " fill="#DAE2EB" transform="translate(298.50390625,323.90234375)"/>
<path d="M0 0 C0.66 0 1.32 0 2 0 C2 3.96 2 7.92 2 12 C1.01 12 0.02 12 -1 12 C-1.08159574 7.83861737 -0.98248524 4.0527516 0 0 Z " fill="#0A1952" transform="translate(285,317)"/>
<path d="M0 0 C1.32 0 2.64 0 4 0 C4 4.95 4 9.9 4 15 C3.01 14.67 2.02 14.34 1 14 C1.66 14 2.32 14 3 14 C3 10.7 3 7.4 3 4 C2.01 4 1.02 4 0 4 C0 2.68 0 1.36 0 0 Z " fill="#0D1948" transform="translate(160,315)"/>
<path d="M0 0 C2 2 2 2 2 6 C2.99 6.33 3.98 6.66 5 7 C4.34 7.66 3.68 8.32 3 9 C0.69 7.35 -1.62 5.7 -4 4 C-3.67 3.34 -3.34 2.68 -3 2 C-2.01 2 -1.02 2 0 2 C0 1.34 0 0.68 0 0 Z " fill="#071854" transform="translate(319,287)"/>
<path d="M0 0 C1.32 0.99 2.64 1.98 4 3 C2.59155282 6.21524305 0.89655214 8.32183868 -1.625 10.75 C-2.57246094 11.67039063 -2.57246094 11.67039063 -3.5390625 12.609375 C-4.02117187 13.06828125 -4.50328125 13.5271875 -5 14 C-5 10.21313821 -3.52879328 9.28420369 -1.11328125 6.5625 C0.45744794 4.3579678 0.38550953 2.62146478 0 0 Z " fill="#BC3349" transform="translate(202,182)"/>
<path d="M0 0 C0.33 0.99 0.66 1.98 1 3 C0.43410156 3.47050781 -0.13179687 3.94101563 -0.71484375 4.42578125 C-1.44832031 5.04839844 -2.18179688 5.67101562 -2.9375 6.3125 C-4.03384766 7.23482422 -4.03384766 7.23482422 -5.15234375 8.17578125 C-7.23820366 9.95975519 -7.23820366 9.95975519 -8 13 C-8.99 12.67 -9.98 12.34 -11 12 C-9.54234835 10.37438849 -8.08385614 8.74953066 -6.625 7.125 C-5.81289062 6.22007812 -5.00078125 5.31515625 -4.1640625 4.3828125 C-2.80923795 2.89103817 -1.42494565 1.42494565 0 0 Z " fill="#161749" transform="translate(215,176)"/>
<path d="M0 0 C0.66 1.32 1.32 2.64 2 4 C-1.32052768 6.33946269 -4.01532244 8.17707746 -8 9 C-7.04270084 7.87411986 -6.08412105 6.7493285 -5.125 5.625 C-4.59132813 4.99851562 -4.05765625 4.37203125 -3.5078125 3.7265625 C-2.38567993 2.44163349 -1.20628025 1.20628025 0 0 Z " fill="#212A58" transform="translate(294,98)"/>
<path d="M0 0 C2.97 0 5.94 0 9 0 C9 0.99 9 1.98 9 3 C6.03 3 3.06 3 0 3 C0 2.01 0 1.02 0 0 Z " fill="#B4BDD2" transform="translate(263,318)"/>
<path d="M0 0 C1.98 0.495 1.98 0.495 4 1 C2.8141763 4.37503669 1.72426311 6.64722731 -1 9 C-1.125 2.25 -1.125 2.25 0 0 Z " fill="#0A1955" transform="translate(147,317)"/>
<path d="M0 0 C2.97 0 5.94 0 9 0 C9 0.99 9 1.98 9 3 C6.03 3 3.06 3 0 3 C0 2.01 0 1.02 0 0 Z " fill="#B3BDD4" transform="translate(240,318)"/>
<path d="M0 0 C0.33 0 0.66 0 1 0 C1 7.26 1 14.52 1 22 C0.01 21.01 -0.98 20.02 -2 19 C-2 18.34 -2 17.68 -2 17 C-1.34 17 -0.68 17 0 17 C0 11.39 0 5.78 0 0 Z " fill="#D5DCF5" transform="translate(326,274)"/>
<path d="M0 0 C2.97 0 5.94 0 9 0 C9 0.99 9 1.98 9 3 C6.36 3 3.72 3 1 3 C0.67 2.01 0.34 1.02 0 0 Z " fill="#B6C2D6" transform="translate(217,318)"/>
<path d="M0 0 C1.98 0 3.96 0 6 0 C5.67 2.31 5.34 4.62 5 7 C3.0625 6.3125 3.0625 6.3125 1 5 C0.25 2.375 0.25 2.375 0 0 Z " fill="#0E1A54" transform="translate(193,275)"/>
<path d="M0 0 C-0.33 1.98 -0.66 3.96 -1 6 C-2.65 5.67 -4.3 5.34 -6 5 C-3.74193548 0 -3.74193548 0 0 0 Z " fill="#122056" transform="translate(165,298)"/>
<path d="M0 0 C0.33 0.99 0.66 1.98 1 3 C1.66 3.33 2.32 3.66 3 4 C2.34 4.66 1.68 5.32 1 6 C0.505 6.70125 0.01 7.4025 -0.5 8.125 C-0.995 8.74375 -1.49 9.3625 -2 10 C-2.66 10 -3.32 10 -4 10 C-2.8905928 6.51329166 -1.73662334 3.22515763 0 0 Z " fill="#212C5E" transform="translate(164,284)"/>
<path d="M0 0 C1.14926266 0.95421808 2.29430541 1.91352045 3.4375 2.875 C4.07558594 3.40867187 4.71367187 3.94234375 5.37109375 4.4921875 C7 6 7 6 8 8 C4.31731261 7.50233954 2.34971233 6.93714041 0 4 C-0.33 3.34 -0.66 2.68 -1 2 C-0.67 1.34 -0.34 0.68 0 0 Z " fill="#2F3A65" transform="translate(318,78)"/>
<path d="M0 0 C0 0.99 0 1.98 0 3 C-3.3 3 -6.6 3 -10 3 C-10 2.34 -10 1.68 -10 1 C-3.375 0 -3.375 0 0 0 Z " fill="#0E1941" transform="translate(258,278)"/>
<path d="M0 0 C4.875 2.75 4.875 2.75 6 5 C3.125 5.1875 3.125 5.1875 0 5 C-0.66 4.01 -1.32 3.02 -2 2 C-1.34 2 -0.68 2 0 2 C0 1.34 0 0.68 0 0 Z " fill="#1F2956" transform="translate(272,325)"/>
<path d="M0 0 C0.66 0.33 1.32 0.66 2 1 C2 2.65 2 4.3 2 6 C1.01 6.495 1.01 6.495 0 7 C0 6.34 0 5.68 0 5 C-0.99 5.33 -1.98 5.66 -3 6 C-2.42655063 3.13275314 -2.1385485 2.1385485 0 0 Z " fill="#192454" transform="translate(275,316)"/>
<path d="M0 0 C0.33 0.66 0.66 1.32 1 2 C1.66 2 2.32 2 3 2 C3 2.66 3 3.32 3 4 C3.66 4 4.32 4 5 4 C5 4.66 5 5.32 5 6 C5.99 6.33 6.98 6.66 8 7 C7.67 7.99 7.34 8.98 7 10 C4.36 7.36 1.72 4.72 -1 2 C-0.67 1.34 -0.34 0.68 0 0 Z " fill="#FEF1EF" transform="translate(190,167)"/>
<path d="M0 0 C0.66 0.33 1.32 0.66 2 1 C2 1.66 2 2.32 2 3 C1.01 3.33 0.02 3.66 -1 4 C-1.33 4.99 -1.66 5.98 -2 7 C-3.65 7.33 -5.3 7.66 -7 8 C-6.02133662 6.85373678 -5.04205413 5.70800212 -4.0625 4.5625 C-3.51722656 3.92441406 -2.97195313 3.28632812 -2.41015625 2.62890625 C-1.63204305 1.73008851 -0.84063472 0.84063472 0 0 Z " fill="#0F1846" transform="translate(316,77)"/>
<path d="M0 0 C1.65 1.32 3.3 2.64 5 4 C4.67 4.99 4.34 5.98 4 7 C0.125 5.25 0.125 5.25 -1 3 C-0.67 2.01 -0.34 1.02 0 0 Z " fill="#131F4D" transform="translate(151,317)"/>
<path d="M0 0 C1.32 0.33 2.64 0.66 4 1 C1.03 3.475 1.03 3.475 -2 6 C-2.99 4.68 -3.98 3.36 -5 2 C-2.525 2.495 -2.525 2.495 0 3 C0 2.01 0 1.02 0 0 Z " fill="#CA3441" transform="translate(159,229)"/>
<path d="M0 0 C1.65 0 3.3 0 5 0 C5.66 1.65 6.32 3.3 7 5 C6.01 5 5.02 5 4 5 C1.8125 2.5 1.8125 2.5 0 0 Z " fill="#E23E49" transform="translate(111,188)"/>
<path d="M0 0 C1.65 1.32 3.3 2.64 5 4 C3.35 4.66 1.7 5.32 0 6 C-1.24546405 3.50907189 -0.7767578 2.58919267 0 0 Z " fill="#182455" transform="translate(307,324)"/>
<path d="M0 0 C0.66 0 1.32 0 2 0 C2.66 1.65 3.32 3.3 4 5 C3.34 5.66 2.68 6.32 2 7 C2 6.34 2 5.68 2 5 C1.01 5 0.02 5 -1 5 C-0.67 3.35 -0.34 1.7 0 0 Z " fill="#192761" transform="translate(291,293)"/>
<path d="M0 0 C0.99 0.66 1.98 1.32 3 2 C-0.465 4.97 -0.465 4.97 -4 8 C-3.67 6.68 -3.34 5.36 -3 4 C-2.01 3.67 -1.02 3.34 0 3 C0 2.01 0 1.02 0 0 Z " fill="#E1E6F3" transform="translate(215,172)"/>
<path d="M0 0 C0.66 0.33 1.32 0.66 2 1 C-0.31 3.31 -2.62 5.62 -5 8 C-5.33 7.01 -5.66 6.02 -6 5 C-4.02 3.35 -2.04 1.7 0 0 Z " fill="#0D1945" transform="translate(334,151)"/>
<path d="M0 0 C2.0625 0.1875 2.0625 0.1875 4 1 C4.33 1.99 4.66 2.98 5 4 C2.69 3.34 0.38 2.68 -2 2 C-1.34 1.34 -0.68 0.68 0 0 Z " fill="#19225B" transform="translate(222,323)"/>
<path d="M0 0 C0.99 0.66 1.98 1.32 3 2 C3 2.66 3 3.32 3 4 C1.68 4.33 0.36 4.66 -1 5 C-1.66 4.01 -2.32 3.02 -3 2 C-2.01 1.34 -1.02 0.68 0 0 Z " fill="#19235B" transform="translate(268,321)"/>
<path d="M0 0 C1.98 1.65 3.96 3.3 6 5 C5.34 5.66 4.68 6.32 4 7 C4 6.34 4 5.68 4 5 C3.01 5.33 2.02 5.66 1 6 C0.67 4.02 0.34 2.04 0 0 Z " fill="#E14247" transform="translate(196,176)"/>
</svg>
